<svg width="101" height="100" viewBox="0 0 101 100" fill="none" xmlns="http://www.w3.org/2000/svg">
<g clip-path="url(#clip0_36_236)">
<path d="M50.5 68.75C60.8553 68.75 69.25 60.3553 69.25 50C69.25 39.6447 60.8553 31.25 50.5 31.25C40.1447 31.25 31.75 39.6447 31.75 50C31.75 60.3553 40.1447 68.75 50.5 68.75Z" stroke="#0072B9" stroke-width="3" stroke-linecap="round" stroke-linejoin="round"/>
<path d="M77.6094 31.5234C78.5498 32.8698 79.3732 34.2943 80.0704 35.7812L90.1876 41.4062C91.4508 47.0643 91.4642 52.93 90.2266 58.5937L80.0704 64.2188C79.3732 65.7057 78.5498 67.1302 77.6094 68.4766L77.8047 80.0781C73.517 83.9853 68.4423 86.9289 62.9219 88.7109L52.961 82.7344C51.3225 82.8516 49.6776 82.8516 48.0391 82.7344L38.1172 88.6719C32.5794 86.9223 27.4879 83.99 23.1954 80.0781L23.3907 68.5156C22.4581 67.1506 21.6353 65.7138 20.9297 64.2188L10.8126 58.5937C9.54927 52.9357 9.53593 47.07 10.7735 41.4062L20.9297 35.7812C21.6269 34.2943 22.4503 32.8698 23.3907 31.5234L23.1954 19.9219C27.4831 16.0147 32.5578 13.0711 38.0782 11.2891L48.0391 17.2656C49.6776 17.1484 51.3225 17.1484 52.961 17.2656L62.8829 11.3281C68.4207 13.0777 73.5122 16.01 77.8047 19.9219L77.6094 31.5234Z" stroke="#0072B9" stroke-width="3" stroke-linecap="round" stroke-linejoin="round"/>
</g>
<defs>
<clipPath id="clip0_36_236">
<rect width="100" height="100" fill="white" transform="translate(0.5)"/>
</clipPath>
</defs>
</svg>
