<svg width="200" height="50" viewBox="0 0 200 50" fill="none" xmlns="http://www.w3.org/2000/svg">
<mask id="mask0_12_349" style="mask-type:luminance" maskUnits="userSpaceOnUse" x="1" y="0" width="199" height="50">
<path d="M199.809 0H1.02899V50H199.809V0Z" fill="white"/>
</mask>
<g mask="url(#mask0_12_349)">
<path d="M100.825 14.9486L99.2759 8.39722H96.4063L94.8576 14.9486H95.8136L97.1346 9.28634H98.5467L99.8678 14.9486H100.825Z" fill="white"/>
<path d="M107.296 8.39722L104.198 13.3108H104.107V8.39722H103.151V14.9486H104.198L107.296 10.0351H107.387V14.9486H108.344V8.39722H107.296Z" fill="white"/>
<path d="M113.218 9.28634H114.539L115.632 14.0595H112.125L113.218 9.28634ZM111.442 14.9486H116.316V16.0718H117.272V14.0595H116.589L115.268 8.39722H112.489L111.168 14.0595H110.485V16.0718H111.442V14.9486Z" fill="white"/>
<path d="M124.106 14.0595H120.371V12.0941H123.332V11.205H120.371V9.28634H124.106V8.39722H119.415V14.9486H124.106V14.0595Z" fill="white"/>
<path d="M131.806 10.7838C131.806 10.4562 131.743 10.1474 131.624 9.85725C131.496 9.56712 131.323 9.31442 131.095 9.09917C130.867 8.8839 130.604 8.70608 130.294 8.5844C129.976 8.46274 129.628 8.39722 129.255 8.39722H126.477V14.9486H127.433V13.1704H129.255C129.628 13.1704 129.976 13.1049 130.294 12.9831C130.604 12.8615 130.867 12.6838 131.095 12.4685C131.323 12.2532 131.496 12.0005 131.624 11.7104C131.743 11.4203 131.806 11.1114 131.806 10.7838ZM130.85 10.7838C130.85 11.2331 130.712 11.598 130.431 11.8694C130.149 12.1409 129.756 12.2813 129.255 12.2813H127.433V9.28634H129.255C129.756 9.28634 130.149 9.42673 130.431 9.69814C130.712 9.96955 130.85 10.3346 130.85 10.7838Z" fill="white"/>
<path d="M136.729 14.0595H135.272V11.4389H136.729C136.949 11.4389 137.149 11.4671 137.331 11.5325C137.512 11.5981 137.667 11.6916 137.805 11.8133C137.942 11.935 138.042 12.066 138.123 12.2251C138.196 12.3842 138.233 12.562 138.233 12.7493C138.233 12.9364 138.196 13.1049 138.123 13.264C138.042 13.4231 137.942 13.5635 137.805 13.6851C137.667 13.8069 137.512 13.891 137.331 13.9565C137.149 14.0221 136.949 14.0595 136.729 14.0595ZM139.189 12.7493C139.189 12.4403 139.135 12.1596 139.016 11.8882C138.898 11.6261 138.734 11.3921 138.523 11.1956C138.315 10.9991 138.051 10.8399 137.749 10.7183C137.449 10.606 137.104 10.5498 136.729 10.5498H135.272V8.39722H134.316V14.9486H136.729C137.104 14.9486 137.449 14.8925 137.749 14.7708C138.051 14.6585 138.315 14.4994 138.523 14.3029C138.734 14.1063 138.898 13.8723 139.016 13.6009C139.135 13.3389 139.189 13.058 139.189 12.7493ZM141.012 14.9486V8.39722H140.055V14.9486H141.012Z" fill="white"/>
<path d="M95.3124 25.6444H100.05V26.7675H101.007V24.7554H100.277V19.093H99.3206V24.7554H96.2694V19.093H95.3124V25.6444Z" fill="white"/>
<path d="M107.385 19.093L104.287 24.0065H104.196V19.093H103.239V25.6444H104.287L107.385 20.7309H107.475V25.6444H108.432V19.093H107.385Z" fill="white"/>
<path d="M114.172 20.2625V24.4741C113.799 24.4649 113.461 24.3994 113.17 24.287C112.87 24.184 112.623 24.0344 112.423 23.8471C112.222 23.66 112.068 23.4353 111.967 23.1826C111.858 22.9299 111.803 22.6585 111.803 22.3684C111.803 22.0783 111.858 21.8069 111.967 21.5541C112.068 21.3015 112.222 21.0861 112.423 20.899C112.623 20.7118 112.87 20.5621 113.17 20.4498C113.461 20.3374 113.799 20.272 114.172 20.2625ZM115.129 24.4741V20.2625C115.502 20.272 115.84 20.3374 116.14 20.4498C116.431 20.5621 116.678 20.7118 116.878 20.899C117.079 21.0861 117.233 21.3015 117.342 21.5541C117.443 21.8069 117.497 22.0783 117.497 22.3684C117.497 22.6585 117.443 22.9299 117.342 23.1826C117.233 23.4353 117.079 23.66 116.878 23.8471C116.678 24.0344 116.431 24.184 116.14 24.287C115.84 24.3994 115.502 24.4649 115.129 24.4741ZM115.129 26.0185V25.3633C115.63 25.354 116.085 25.2604 116.495 25.0919C116.905 24.9328 117.251 24.7081 117.543 24.4368C117.835 24.1654 118.062 23.8565 118.217 23.5008C118.372 23.1451 118.454 22.7708 118.454 22.3684C118.454 21.966 118.372 21.5915 118.217 21.2359C118.062 20.8803 117.835 20.5621 117.543 20.2906C117.251 20.0193 116.905 19.804 116.495 19.6355C116.085 19.4764 115.63 19.3828 115.129 19.3735V18.7183H114.172V19.3735C113.671 19.3828 113.215 19.4764 112.806 19.6355C112.396 19.804 112.049 20.0193 111.758 20.2906C111.467 20.5621 111.239 20.8803 111.084 21.2359C110.929 21.5915 110.847 21.966 110.847 22.3684C110.847 22.7708 110.929 23.1451 111.084 23.5008C111.239 23.8565 111.467 24.1654 111.758 24.4368C112.049 24.7081 112.396 24.9328 112.806 25.0919C113.215 25.2604 113.671 25.354 114.172 25.3633V26.0185H115.129Z" fill="white"/>
<path d="M126.195 21.4796C126.195 21.1521 126.131 20.8433 126.012 20.553C125.884 20.2629 125.712 20.0103 125.484 19.795C125.256 19.5798 124.993 19.4019 124.683 19.2803C124.363 19.1585 124.017 19.093 123.644 19.093H120.865V25.6444H121.822V23.8661H123.644C124.017 23.8661 124.363 23.8008 124.683 23.679C124.993 23.5573 125.256 23.3795 125.484 23.1643C125.712 22.949 125.884 22.6963 126.012 22.4061C126.131 22.116 126.195 21.8071 126.195 21.4796ZM125.238 21.4796C125.238 21.9289 125.101 22.2939 124.818 22.5653C124.537 22.8366 124.145 22.9771 123.644 22.9771H121.822V19.9821H123.644C124.145 19.9821 124.537 20.1225 124.818 20.394C125.101 20.6654 125.238 21.0304 125.238 21.4796Z" fill="white"/>
<path d="M135.215 22.3688C135.215 21.8728 135.123 21.4141 134.941 20.9836C134.76 20.553 134.513 20.1788 134.204 19.8511C133.894 19.533 133.529 19.2803 133.12 19.093C132.71 18.9059 132.263 18.8123 131.799 18.8123C131.334 18.8123 130.888 18.9059 130.478 19.093C130.067 19.2803 129.704 19.533 129.394 19.8511C129.084 20.1788 128.838 20.553 128.655 20.9836C128.473 21.4141 128.382 21.8728 128.382 22.3688C128.382 22.8648 128.473 23.3234 128.655 23.754C128.838 24.1845 129.084 24.5588 129.394 24.877C129.704 25.2046 130.067 25.4573 130.478 25.6445C130.888 25.8316 131.334 25.9253 131.799 25.9253C132.263 25.9253 132.71 25.8316 133.12 25.6445C133.529 25.4573 133.894 25.2046 134.204 24.877C134.513 24.5588 134.76 24.1845 134.941 23.754C135.123 23.3234 135.215 22.8648 135.215 22.3688ZM129.339 22.3688C129.339 21.9944 129.402 21.6481 129.539 21.3206C129.676 20.993 129.849 20.7121 130.077 20.4689C130.305 20.2349 130.56 20.0476 130.86 19.9073C131.161 19.7669 131.471 19.7014 131.799 19.7014C132.127 19.7014 132.437 19.7669 132.737 19.9073C133.038 20.0476 133.293 20.2349 133.521 20.4689C133.749 20.7121 133.922 20.993 134.059 21.3206C134.194 21.6481 134.259 21.9944 134.259 22.3688C134.259 22.7431 134.194 23.0894 134.059 23.417C133.922 23.7445 133.749 24.0254 133.521 24.2594C133.293 24.5026 133.038 24.6899 132.737 24.8303C132.437 24.9706 132.127 25.0361 131.799 25.0361C131.471 25.0361 131.161 24.9706 130.86 24.8303C130.56 24.6899 130.305 24.5026 130.077 24.2594C129.849 24.0254 129.676 23.7445 129.539 23.417C129.402 23.0894 129.339 22.7431 129.339 22.3688Z" fill="white"/>
<path d="M138.635 19.9821H140.412C140.731 19.9821 140.985 20.0664 141.159 20.2255C141.332 20.3846 141.413 20.5905 141.413 20.8245C141.413 21.0865 141.332 21.3018 141.159 21.4609C140.985 21.6294 140.731 21.7136 140.412 21.7136H138.635V19.9821ZM140.867 24.7554H138.635V22.6026H140.867C141.277 22.6026 141.596 22.7056 141.815 22.9115C142.033 23.1268 142.143 23.3795 142.143 23.679C142.143 23.9879 142.033 24.2405 141.815 24.4465C141.596 24.6524 141.277 24.7554 140.867 24.7554ZM140.412 19.093H137.678V25.6444H140.867C141.205 25.6444 141.515 25.5883 141.796 25.4853C142.07 25.3824 142.306 25.242 142.498 25.0643C142.69 24.8864 142.845 24.6805 142.944 24.4371C143.045 24.2031 143.099 23.9504 143.099 23.679C143.099 23.3046 143.026 23.0051 142.871 22.7899C142.716 22.5746 142.552 22.4156 142.371 22.3033C142.161 22.1721 141.915 22.088 141.642 22.0411V21.9944C141.778 21.9476 141.896 21.8633 142.006 21.7604C142.098 21.6763 142.179 21.5545 142.261 21.4048C142.334 21.255 142.371 21.0585 142.371 20.8245C142.371 20.5905 142.324 20.3659 142.233 20.1506C142.134 19.9448 142.006 19.7575 141.833 19.5984C141.66 19.4394 141.459 19.3176 141.222 19.2241C140.977 19.1399 140.712 19.093 140.412 19.093Z" fill="white"/>
<path d="M152.031 22.3688C152.031 21.8728 151.939 21.4141 151.757 20.9836C151.576 20.553 151.329 20.1788 151.02 19.8511C150.71 19.533 150.345 19.2803 149.935 19.093C149.526 18.9059 149.079 18.8123 148.615 18.8123C148.15 18.8123 147.704 18.9059 147.294 19.093C146.883 19.2803 146.52 19.533 146.21 19.8511C145.9 20.1788 145.654 20.553 145.471 20.9836C145.289 21.4141 145.198 21.8728 145.198 22.3688C145.198 22.8648 145.289 23.3234 145.471 23.754C145.654 24.1845 145.9 24.5588 146.21 24.877C146.52 25.2046 146.883 25.4573 147.294 25.6445C147.704 25.8316 148.15 25.9253 148.615 25.9253C149.079 25.9253 149.526 25.8316 149.935 25.6445C150.345 25.4573 150.71 25.2046 151.02 24.877C151.329 24.5588 151.576 24.1845 151.757 23.754C151.939 23.3234 152.031 22.8648 152.031 22.3688ZM146.154 22.3688C146.154 21.9944 146.218 21.6481 146.355 21.3206C146.491 20.993 146.665 20.7121 146.893 20.4689C147.121 20.2349 147.376 20.0476 147.676 19.9073C147.977 19.7669 148.287 19.7014 148.615 19.7014C148.943 19.7014 149.252 19.7669 149.552 19.9073C149.854 20.0476 150.109 20.2349 150.337 20.4689C150.565 20.7121 150.738 20.993 150.874 21.3206C151.01 21.6481 151.074 21.9944 151.074 22.3688C151.074 22.7431 151.01 23.0894 150.874 23.417C150.738 23.7445 150.565 24.0254 150.337 24.2594C150.109 24.5026 149.854 24.6899 149.552 24.8303C149.252 24.9706 148.943 25.0361 148.615 25.0361C148.287 25.0361 147.977 24.9706 147.676 24.8303C147.376 24.6899 147.121 24.5026 146.893 24.2594C146.665 24.0254 146.491 23.7445 146.355 23.417C146.218 23.0894 146.154 22.7431 146.154 22.3688Z" fill="white"/>
<path d="M157.088 18.3444C157.279 18.3444 157.462 18.3069 157.627 18.2414C157.782 18.1759 157.927 18.0824 158.045 17.9606C158.163 17.839 158.254 17.6986 158.318 17.5301C158.382 17.371 158.41 17.1839 158.41 16.9872H157.68C157.68 17.1745 157.627 17.3242 157.526 17.4271C157.416 17.5395 157.271 17.5956 157.088 17.5956C156.906 17.5956 156.761 17.5395 156.66 17.4271C156.551 17.3242 156.496 17.1745 156.496 16.9872H155.767C155.767 17.1839 155.804 17.371 155.867 17.5301C155.932 17.6986 156.022 17.839 156.141 17.9606C156.26 18.0824 156.396 18.1759 156.56 18.2414C156.715 18.3069 156.898 18.3444 157.088 18.3444ZM158.638 19.0931L155.539 24.0066H155.449V19.0931H154.493V25.6445H155.539L158.638 20.731H158.728V25.6445H159.685V19.0931H158.638Z" fill="white"/>
<path d="M94.7671 30.6779H96.9076V36.3401H97.8644V30.6779H100.006V29.7889H94.7671V30.6779Z" fill="white"/>
<path d="M107.563 32.1766C107.563 31.849 107.5 31.5401 107.382 31.25C107.254 30.9599 107.081 30.7072 106.853 30.4919C106.626 30.2766 106.361 30.0989 106.052 29.9771C105.733 29.8555 105.386 29.79 105.013 29.79H102.234V36.3414H103.191V34.5631H105.013C105.386 34.5631 105.733 34.4976 106.052 34.376C106.361 34.2544 106.626 34.0765 106.853 33.8612C107.081 33.646 107.254 33.3932 107.382 33.1031C107.5 32.813 107.563 32.5041 107.563 32.1766ZM106.607 32.1766C106.607 32.6259 106.471 32.9909 106.188 33.2622C105.906 33.5337 105.514 33.6741 105.013 33.6741H103.191V30.6791H105.013C105.514 30.6791 105.906 30.8195 106.188 31.0909C106.471 31.3624 106.607 31.7274 106.607 32.1766Z" fill="white"/>
<path d="M110.729 33.9068L111.486 30.6779H112.807L113.554 33.9068H110.729ZM110.712 29.7889L109.163 36.3401H110.165L110.52 34.796H113.763L114.128 36.3401H115.13L113.581 29.7889H110.712Z" fill="white"/>
<path d="M117.457 29.7889V36.3401H118.414V33.5325H121.648V36.3401H122.604V29.7889H121.648V32.6433H118.414V29.7889H117.457Z" fill="white"/>
<path d="M128.389 36.6222C128.809 36.6222 129.192 36.5568 129.537 36.435C129.884 36.304 130.184 36.1355 130.448 35.9203C130.712 35.7144 130.931 35.4804 131.104 35.2183C131.277 34.9563 131.405 34.6943 131.487 34.4229L130.531 34.2824C130.448 34.4697 130.349 34.6474 130.221 34.8253C130.093 35.003 129.938 35.1529 129.765 35.2839C129.592 35.4243 129.392 35.5272 129.163 35.6115C128.937 35.6957 128.672 35.7332 128.389 35.7332C128.079 35.7332 127.779 35.6675 127.496 35.5272C127.215 35.3868 126.959 35.1997 126.74 34.9563C126.522 34.7224 126.349 34.4415 126.221 34.114C126.084 33.7864 126.021 33.4402 126.021 33.0658C126.021 32.6914 126.084 32.3452 126.221 32.0175C126.349 31.6899 126.522 31.4092 126.74 31.1658C126.959 30.9318 127.215 30.7448 127.496 30.6043C127.779 30.4639 128.079 30.3984 128.389 30.3984C128.654 30.3984 128.89 30.4359 129.1 30.5108C129.31 30.5857 129.501 30.6792 129.665 30.8009C129.82 30.9225 129.956 31.0629 130.074 31.222C130.194 31.381 130.284 31.5495 130.349 31.7087L131.304 31.5683C131.223 31.3157 131.104 31.0629 130.94 30.8102C130.776 30.5669 130.576 30.3517 130.329 30.155C130.084 29.9585 129.793 29.8088 129.473 29.687C129.155 29.5654 128.79 29.5093 128.389 29.5093C127.943 29.5093 127.523 29.6029 127.123 29.7902C126.722 29.9772 126.367 30.2299 126.066 30.5482C125.756 30.8757 125.511 31.2502 125.338 31.6807C125.155 32.1112 125.065 32.5697 125.065 33.0658C125.065 33.5618 125.155 34.0204 125.338 34.4509C125.511 34.8814 125.756 35.2558 126.066 35.574C126.367 35.9015 126.722 36.1543 127.123 36.3414C127.523 36.5287 127.943 36.6222 128.389 36.6222Z" fill="white"/>
<path d="M136.813 30.9595V35.1711C136.44 35.1617 136.104 35.0962 135.812 34.984C135.511 34.881 135.266 34.7312 135.065 34.5441C134.865 34.3568 134.71 34.1322 134.609 33.8796C134.5 33.6268 134.445 33.3555 134.445 33.0653C134.445 32.7752 134.5 32.5037 134.609 32.2511C134.71 31.9983 134.865 31.7831 135.065 31.5958C135.266 31.4088 135.511 31.259 135.812 31.1466C136.104 31.0343 136.44 30.9688 136.813 30.9595ZM137.771 35.1711V30.9595C138.144 30.9688 138.48 31.0343 138.782 31.1466C139.073 31.259 139.32 31.4088 139.52 31.5958C139.721 31.7831 139.876 31.9983 139.984 32.2511C140.084 32.5037 140.139 32.7752 140.139 33.0653C140.139 33.3555 140.084 33.6268 139.984 33.8796C139.876 34.1322 139.721 34.3568 139.52 34.5441C139.32 34.7312 139.073 34.881 138.782 34.984C138.48 35.0962 138.144 35.1617 137.771 35.1711ZM137.771 36.7153V36.0602C138.272 36.0508 138.727 35.9572 139.137 35.7888C139.548 35.6297 139.893 35.4051 140.185 35.1337C140.477 34.8622 140.704 34.5533 140.859 34.1978C141.013 33.8421 141.096 33.4677 141.096 33.0653C141.096 32.6628 141.013 32.2885 140.859 31.9328C140.704 31.5772 140.477 31.259 140.185 30.9876C139.893 30.7161 139.548 30.5008 139.137 30.3325C138.727 30.1733 138.272 30.0797 137.771 30.0703V29.4152H136.813V30.0703C136.312 30.0797 135.857 30.1733 135.448 30.3325C135.038 30.5008 134.691 30.7161 134.4 30.9876C134.109 31.259 133.88 31.5772 133.726 31.9328C133.571 32.2885 133.489 32.6628 133.489 33.0653C133.489 33.4677 133.571 33.8421 133.726 34.1978C133.88 34.5533 134.109 34.8622 134.4 35.1337C134.691 35.4051 135.038 35.6297 135.448 35.7888C135.857 35.9572 136.312 36.0508 136.813 36.0602V36.7153H137.771Z" fill="white"/>
<path d="M150.021 33.0658C150.021 32.5697 149.929 32.1112 149.748 31.6807C149.565 31.2502 149.32 30.8757 149.01 30.5482C148.7 30.2299 148.335 29.9772 147.926 29.7902C147.515 29.6029 147.068 29.5093 146.604 29.5093C146.139 29.5093 145.694 29.6029 145.283 29.7902C144.873 29.9772 144.509 30.2299 144.199 30.5482C143.889 30.8757 143.643 31.2502 143.461 31.6807C143.279 32.1112 143.188 32.5697 143.188 33.0658C143.188 33.5618 143.279 34.0204 143.461 34.4509C143.643 34.8814 143.889 35.2558 144.199 35.574C144.509 35.9015 144.873 36.1543 145.283 36.3414C145.694 36.5287 146.139 36.6222 146.604 36.6222C147.068 36.6222 147.515 36.5287 147.926 36.3414C148.335 36.1543 148.7 35.9015 149.01 35.574C149.32 35.2558 149.565 34.8814 149.748 34.4509C149.929 34.0204 150.021 33.5618 150.021 33.0658ZM144.145 33.0658C144.145 32.6914 144.209 32.3452 144.345 32.0175C144.482 31.6899 144.655 31.4092 144.882 31.1658C145.11 30.9318 145.365 30.7448 145.666 30.6043C145.966 30.4639 146.276 30.3984 146.604 30.3984C146.933 30.3984 147.242 30.4639 147.543 30.6043C147.843 30.7448 148.099 30.9318 148.326 31.1658C148.554 31.4092 148.727 31.6899 148.863 32.0175C149 32.3452 149.063 32.6914 149.063 33.0658C149.063 33.4402 149 33.7864 148.863 34.114C148.727 34.4415 148.554 34.7224 148.326 34.9563C148.099 35.1997 147.843 35.3868 147.543 35.5272C147.242 35.6675 146.933 35.7332 146.604 35.7332C146.276 35.7332 145.966 35.6675 145.666 35.5272C145.365 35.3868 145.11 35.1997 144.882 34.9563C144.655 34.7224 144.482 34.4415 144.345 34.114C144.209 33.7864 144.145 33.4402 144.145 33.0658Z" fill="white"/>
<path d="M157.811 32.1754C157.811 31.8478 157.748 31.539 157.629 31.2489C157.501 30.9588 157.329 30.706 157.101 30.4908C156.873 30.2755 156.609 30.0976 156.299 29.9759C155.981 29.8543 155.634 29.7889 155.26 29.7889H152.482V36.3401H153.439V34.562H155.26C155.634 34.562 155.981 34.4964 156.299 34.3748C156.609 34.2531 156.873 34.0753 157.101 33.86C157.329 33.6448 157.501 33.3921 157.629 33.102C157.748 32.8118 157.811 32.5029 157.811 32.1754ZM156.855 32.1754C156.855 32.6246 156.718 32.9896 156.435 33.261C156.154 33.5325 155.762 33.6729 155.26 33.6729H153.439V30.6779H155.26C155.762 30.6779 156.154 30.8183 156.435 31.0898C156.718 31.3611 156.855 31.7261 156.855 32.1754Z" fill="white"/>
<path d="M163.6 34.0484L165.832 31.1939H165.923V36.3414H166.879V29.79H165.832L163.6 32.6445L161.368 29.79H160.321V36.3414H161.277V31.1939H161.368L163.6 34.0484Z" fill="white"/>
<path d="M170.774 33.908L171.532 30.6791H172.852L173.599 33.908H170.774ZM170.757 29.79L169.207 36.3414H170.21L170.565 34.7971H173.809L174.173 36.3414H175.176L173.627 29.79H170.757Z" fill="white"/>
<path d="M177.499 36.3401H182.237V37.4634H183.193V35.451H182.465V29.7889H181.507V35.451H178.455V29.7889H177.499V36.3401Z" fill="white"/>
<path d="M189.573 29.79L186.476 34.7036H186.384V29.79H185.428V36.3414H186.476L189.573 31.4279H189.665V36.3414H190.621V29.79H189.573Z" fill="white"/>
<path d="M197.543 29.7889L194.445 34.7024H194.354V29.7889H193.398V36.3401H194.445L197.543 31.4266H197.633V36.3401H198.59V29.7889H197.543Z" fill="white"/>
<path d="M42.032 11.7467C41.4375 11.7358 40.8487 11.8486 40.3003 12.0764C40.015 12.1949 39.8488 12.4928 39.8488 12.8099V29.2555C39.8488 29.3272 39.7925 29.3854 39.723 29.3854C39.6533 29.3854 39.597 29.3272 39.597 29.2555V19.4841C39.597 19.3881 39.5214 19.3127 39.4291 19.3247C39.3909 19.3296 39.3528 19.3345 39.3147 19.3371C39.2851 19.3392 39.2611 19.3144 39.2611 19.2837C39.2611 19.2514 39.2342 19.2259 39.2028 19.2287C38.3122 19.3101 37.6054 19.4872 37.3399 19.9442C37.287 20.0354 37.2347 20.1286 37.1867 20.2226C37.131 20.3321 37.1027 20.4551 37.106 20.5805V29.7029C37.106 29.8464 36.9932 29.9627 36.8541 29.9627H36.7422C36.6648 29.9627 36.6022 30.0272 36.6022 30.1071C36.6022 30.1867 36.5395 30.2514 36.4622 30.2514H36.3503C36.2112 30.2514 36.0984 30.3677 36.0984 30.5111V31.7959C36.0984 31.8516 36.0545 31.8969 36.0004 31.8969C35.9464 31.8969 35.9025 31.9421 35.9025 31.998V32.3444C35.9025 32.3682 35.8837 32.3877 35.8605 32.3877C35.8373 32.3877 35.8184 32.407 35.8184 32.431V33.7012C35.8184 33.8367 35.712 33.9466 35.5806 33.9466C35.4493 33.9466 35.3427 33.8367 35.3427 33.7012V30.3836C35.3427 30.3534 35.338 30.3234 35.3287 30.2947L35.3271 30.2896C35.3189 30.2644 35.3147 30.2379 35.3147 30.2111V30.0074C35.3147 29.9827 35.2954 29.9627 35.2715 29.9627C35.2486 29.9627 35.2297 29.9444 35.2282 29.9209L35.2028 29.5009L35.1836 29.2641C35.178 29.1945 35.2308 29.1376 35.2308 29.0677C35.2308 29.0447 35.2219 29.0227 35.2061 29.0065C35.1904 28.9902 35.1691 28.9811 35.1467 28.9811C35.1245 28.9811 35.1032 28.9902 35.0875 29.0065C35.0717 29.0227 35.0628 29.0447 35.0628 29.0677C35.0628 29.1354 35.1156 29.1932 35.1102 29.2605L35.0908 29.5009L35.0653 29.9209C35.0639 29.9444 35.045 29.9627 35.0221 29.9627C34.9983 29.9627 34.9788 29.9827 34.9788 30.0074V30.0205C34.9788 30.0524 34.9538 30.0781 34.9228 30.0781H34.7588C34.7103 30.0781 34.671 30.0376 34.671 29.9876C34.671 29.9544 34.6534 29.924 34.6253 29.9081L34.4142 29.7894C34.3806 29.7705 34.3432 29.7606 34.305 29.7606C34.2695 29.7606 34.2347 29.7691 34.203 29.7855L33.9631 29.9091C33.9338 29.9242 33.9153 29.9552 33.9153 29.989C33.9153 30.0382 33.8766 30.0781 33.8288 30.0781H33.6634C33.6325 30.0781 33.6073 30.0524 33.6073 30.0205V30.0074C33.6073 29.9827 33.5881 29.9627 33.5642 29.9627C33.5412 29.9627 33.5223 29.9444 33.5209 29.9209L33.4955 29.5009L33.4764 29.2641C33.4706 29.1945 33.5234 29.1376 33.5234 29.0677C33.5234 29.0447 33.5147 29.0227 33.4989 29.0065C33.4832 28.9902 33.4617 28.9811 33.4394 28.9811C33.4172 28.9811 33.3959 28.9902 33.3801 29.0065C33.3644 29.0227 33.3555 29.0447 33.3555 29.0677C33.3555 29.1354 33.4084 29.1932 33.403 29.2605L33.3836 29.5009L33.3564 29.9479C33.3559 29.9559 33.3621 29.9627 33.37 29.9627C33.3775 29.9627 33.3836 29.9689 33.3836 29.9767V30.2111C33.3836 30.2379 33.3794 30.2644 33.3711 30.2896L33.3695 30.2947C33.3603 30.3234 33.3555 30.3534 33.3555 30.3836V31.5794C33.3555 31.7069 33.2553 31.8104 33.1316 31.8104C33.008 31.8104 32.9077 31.7069 32.9077 31.5794V28.0719C32.9077 28.0639 32.9141 28.0574 32.9217 28.0574C32.9294 28.0574 32.9356 28.051 32.9356 28.0429V27.5982C32.9356 27.5649 32.9095 27.5377 32.8771 27.5377C32.8469 27.5377 32.8216 27.5141 32.8187 27.483L32.7677 26.9315L32.7494 26.6479C32.7433 26.553 32.8238 26.4781 32.8238 26.383C32.8238 26.3524 32.812 26.323 32.791 26.3014C32.7699 26.2796 32.7415 26.2676 32.7119 26.2676C32.6821 26.2676 32.6537 26.2796 32.6327 26.3014C32.6116 26.323 32.5998 26.3524 32.5998 26.383C32.5998 26.4764 32.6799 26.5591 32.6738 26.6522L32.6559 26.9315L32.6049 27.483C32.602 27.5141 32.5767 27.5377 32.5465 27.5377C32.5142 27.5377 32.488 27.5649 32.488 27.5982V27.7255C32.488 27.829 32.4065 27.9131 32.306 27.9131H32.208C32.1153 27.9131 32.04 27.8355 32.04 27.7399V27.711C32.04 27.6312 31.9775 27.5666 31.9002 27.5666C31.8228 27.5666 31.7602 27.502 31.7602 27.4222V24.7241C31.7602 24.7155 31.7536 24.7086 31.7453 24.7086C31.7377 24.7086 31.7314 24.703 31.7304 24.6954L31.7064 24.5219C31.7049 24.5117 31.7042 24.5014 31.7042 24.4911V24.3826C31.7042 24.3696 31.7092 24.357 31.7183 24.3477C31.7272 24.3386 31.7338 24.3246 31.7255 24.3146L31.7241 24.3129L31.7225 24.3115C31.7127 24.3029 31.6992 24.3097 31.6903 24.319L31.6867 24.3226C31.68 24.3295 31.6753 24.3424 31.6769 24.352C31.6803 24.3721 31.7042 24.3787 31.7042 24.399V24.497C31.7042 24.5034 31.7038 24.5097 31.703 24.5161L31.6781 24.6954C31.677 24.703 31.6708 24.7086 31.6633 24.7086C31.655 24.7086 31.6483 24.7155 31.6483 24.7241V24.7809C31.6483 24.8047 31.6294 24.8241 31.6062 24.8241C31.5831 24.8241 31.5643 24.8047 31.5643 24.7809V24.7664C31.5643 24.7345 31.5392 24.7086 31.5083 24.7086H31.4662C31.4431 24.7086 31.4243 24.6892 31.4243 24.6654C31.4243 24.6415 31.4055 24.622 31.3823 24.622H31.3253C31.2725 24.622 31.2287 24.5755 31.2486 24.5249C31.2533 24.5126 31.2569 24.4997 31.2569 24.4866C31.257 24.4144 31.2406 24.343 31.2093 24.2782C31.1822 24.2224 31.1447 24.173 31.0989 24.1327C31.0759 24.1124 31.0605 24.0837 31.0605 24.0526V24.0024C31.0605 23.9779 31.0412 23.958 31.0175 23.958C30.9945 23.958 30.9756 23.9395 30.9745 23.9159L30.8925 22.1394L30.8383 21.215C30.8375 21.2024 30.8503 21.1937 30.8611 21.1994L30.8661 21.2019C30.8812 21.2097 30.8954 21.1896 30.8834 21.1772C30.8752 21.1686 30.8791 21.154 30.8899 21.1497C30.9337 21.1329 30.9714 21.1021 30.9976 21.0616C31.0102 21.0422 31.0195 21.0211 31.026 20.9991C31.0447 20.9341 31.0421 20.861 31.0186 20.7976C31.0134 20.7841 31.0071 20.771 30.9995 20.7586C30.9981 20.756 30.9964 20.7535 30.9948 20.751C30.9878 20.7405 30.9767 20.7537 30.9822 20.7651C31.0022 20.8062 31.0099 20.8524 31.0045 20.898C30.9995 20.9605 30.9752 21.0197 30.9347 21.0666C30.9216 21.0819 30.907 21.0956 30.8911 21.1075C30.826 21.1567 30.7342 21.1626 30.667 21.1167C30.6493 21.1046 30.6331 21.0902 30.6188 21.0736C30.5772 21.0254 30.555 20.9626 30.5566 20.898C30.5566 20.8531 30.5669 20.809 30.5862 20.7689C30.593 20.7551 30.5802 20.7409 30.5717 20.7537C30.57 20.7564 30.5682 20.7591 30.5665 20.7619C30.5419 20.8026 30.5287 20.8499 30.5287 20.898C30.5297 20.9534 30.5459 21.0072 30.5756 21.0534C30.6012 21.0929 30.6358 21.1251 30.6761 21.1475C30.6858 21.1529 30.6883 21.1665 30.6805 21.1745C30.668 21.1874 30.6827 21.2082 30.6984 21.2002L30.7 21.1994C30.711 21.1937 30.7237 21.2024 30.723 21.215L30.6687 22.1394L30.5866 23.9159C30.5855 23.9395 30.5666 23.958 30.5437 23.958C30.52 23.958 30.5008 23.9779 30.5008 24.0024V24.0544C30.5008 24.0846 30.4865 24.1127 30.4648 24.1331C30.4203 24.1749 30.3836 24.2249 30.3565 24.2806C30.3225 24.3509 30.3048 24.4281 30.3048 24.5066C30.3048 24.5642 30.3048 24.622 30.3328 24.622H30.1789C30.1556 24.622 30.1369 24.6415 30.1369 24.6654C30.1369 24.6892 30.1181 24.7086 30.0949 24.7086H30.0528C30.022 24.7086 29.997 24.7345 29.997 24.7664V24.7809C29.997 24.8047 29.9781 24.8241 29.9549 24.8241C29.9317 24.8241 29.913 24.8047 29.913 24.7809V24.7241C29.913 24.7155 29.9062 24.7086 29.8981 24.7086C29.8905 24.7086 29.8842 24.703 29.8831 24.6954L29.8591 24.5219C29.8577 24.5117 29.857 24.5014 29.857 24.4911V24.3826C29.857 24.3696 29.862 24.357 29.871 24.3477C29.8799 24.3386 29.8865 24.3246 29.8783 24.3146L29.8767 24.3129C29.8716 24.3076 29.8644 24.3045 29.857 24.3045C29.8406 24.3069 29.8253 24.3134 29.8121 24.3235C29.8045 24.3292 29.8002 24.3424 29.8017 24.352C29.805 24.3721 29.8291 24.3787 29.8291 24.3991V24.497C29.8291 24.5034 29.8286 24.5097 29.8277 24.5161L29.8028 24.6954C29.8019 24.703 29.7955 24.7086 29.7881 24.7086C29.7798 24.7086 29.7731 24.7155 29.7731 24.7241V27.4367C29.7731 27.5244 29.7042 27.5955 29.6191 27.5955C29.5341 27.5955 29.4652 27.6665 29.4652 27.7542V27.7687C29.4652 27.8644 29.39 27.9419 29.2972 27.9419H29.1993C29.0988 27.9419 29.0173 27.8579 29.0173 27.7542V27.6271C29.0173 27.5936 28.9911 27.5666 28.9587 27.5666C28.9284 27.5666 28.9032 27.5429 28.9004 27.5119L28.8494 26.9604L28.8311 26.6767C28.8249 26.5817 28.9054 26.507 28.9054 26.4119C28.9054 26.3812 28.8936 26.3519 28.8726 26.3302C28.8516 26.3086 28.8232 26.2964 28.7934 26.2964C28.7637 26.2964 28.7353 26.3086 28.7143 26.3302C28.6933 26.3519 28.6815 26.3812 28.6815 26.4119C28.6815 26.5052 28.7615 26.588 28.7555 26.6811L28.7375 26.9604L28.6841 27.5392C28.6826 27.5549 28.6699 27.5666 28.6548 27.5666C28.6387 27.5666 28.6255 27.5802 28.6255 27.5969V28.0719C28.6255 28.0797 28.6317 28.0862 28.6395 28.0862C28.6472 28.0862 28.6534 28.0927 28.6534 28.1007V31.3484C28.6534 31.6194 28.4405 31.8391 28.1777 31.8391C27.9149 31.8391 27.7019 31.6194 27.7019 31.3484V30.4125C27.7019 30.3822 27.6971 30.3522 27.688 30.3235L27.6862 30.3185C27.6781 30.2931 27.6738 30.2666 27.6738 30.24V30.0362C27.6738 30.0116 27.6545 29.9915 27.6306 29.9915C27.6077 29.9915 27.5888 29.9732 27.5873 29.9496L27.562 29.5297L27.5428 29.293C27.5372 29.2234 27.5899 29.1665 27.5899 29.0966C27.5899 29.0737 27.5811 29.0517 27.5654 29.0355C27.5497 29.0191 27.5282 29.0101 27.5059 29.0101C27.4837 29.0101 27.4623 29.0191 27.4466 29.0355C27.4309 29.0517 27.422 29.0737 27.422 29.0966C27.422 29.1642 27.4749 29.222 27.4694 29.2894L27.45 29.5297L27.4245 29.9496C27.4232 29.9732 27.4042 29.9915 27.3814 29.9915C27.3575 29.9915 27.3381 30.0116 27.3381 30.0362V30.0494C27.3381 30.0811 27.313 30.1071 27.2821 30.1071H27.1355C27.0773 30.1071 27.0301 30.0584 27.0301 29.9984C27.0301 29.9586 27.0091 29.922 26.9753 29.903L26.7469 29.7745C26.7308 29.7654 26.7127 29.7606 26.6943 29.7606C26.6759 29.7606 26.6578 29.7654 26.6417 29.7745L26.4042 29.9081C26.376 29.924 26.3584 29.9544 26.3584 29.9876C26.3584 30.0376 26.3192 30.0781 26.2706 30.0781H26.1065C26.0756 30.0781 26.0506 30.0524 26.0506 30.0205V30.0074C26.0506 29.9827 26.0311 29.9627 26.0073 29.9627C25.9844 29.9627 25.9655 29.9444 25.9641 29.9209L25.9386 29.5009L25.9195 29.2641C25.9139 29.1945 25.9666 29.1376 25.9666 29.0677C25.9666 29.0447 25.9577 29.0227 25.942 29.0065C25.9262 28.9902 25.9049 28.9811 25.8827 28.9811C25.8604 28.9811 25.8391 28.9902 25.8232 29.0065C25.8075 29.0227 25.7987 29.0447 25.7987 29.0677C25.7987 29.1354 25.8515 29.1932 25.8461 29.2605L25.8266 29.5009L25.8012 29.9209C25.7998 29.9444 25.7809 29.9627 25.7581 29.9627C25.7341 29.9627 25.7148 29.9827 25.7148 30.0074V30.2111C25.7148 30.2379 25.7105 30.2644 25.7023 30.2896L25.7006 30.2947C25.6915 30.3234 25.6867 30.3534 25.6867 30.3836V35.2269C25.6867 35.2851 25.641 35.3322 25.5845 35.3322C25.5445 35.3322 25.5082 35.3564 25.4916 35.394L25.393 35.6179C25.3864 35.6327 25.397 35.6499 25.4128 35.6499C25.425 35.6499 25.4348 35.6599 25.4348 35.6725V36.0972C25.4348 36.185 25.3659 36.256 25.2809 36.256H25.2087C25.1636 36.256 25.127 36.2937 25.127 36.3404C25.127 36.3605 25.12 36.38 25.1072 36.3952L24.8312 36.7274C24.8058 36.758 24.7686 36.7756 24.7294 36.7756C24.6553 36.7756 24.5951 36.8376 24.5951 36.9141V37.4109C24.5951 37.4426 24.5702 37.4685 24.5392 37.4685C24.5083 37.4685 24.4832 37.4944 24.4832 37.5262V37.6272C24.4832 37.6671 24.4519 37.6995 24.4133 37.6995C24.3745 37.6995 24.3433 37.7317 24.3433 37.7716V38.3779C24.3433 38.5135 24.2369 38.6232 24.1054 38.6232H23.9654C23.9114 38.6232 23.8675 38.6685 23.8675 38.7242V38.7821C23.8675 38.806 23.8862 38.8254 23.9095 38.8254C23.9327 38.8254 23.9515 38.8447 23.9515 38.8686V39.3557C23.9515 39.6029 23.7854 39.8174 23.552 39.8732C14.9553 41.9331 7.34072 44.4121 1.02899 47.255C21.6005 40.4709 49.6727 36.2849 80.6278 36.2849C82.9953 36.2849 85.1632 36.3077 87.467 36.3536C87.9366 36.363 88.3233 35.9717 88.3217 35.4865L88.2966 27.9131V27.7399L88.0731 24.42V23.8281C88.0731 23.7246 88.1543 23.6405 88.2548 23.6405H88.2689C88.361 23.6405 88.4364 23.5629 88.4364 23.4674V23.3951C88.4364 23.3392 88.3928 23.2941 88.3384 23.2941C88.2849 23.2941 88.2405 23.2489 88.2405 23.193V22.89C88.2405 22.858 88.2656 22.8322 88.2966 22.8322C88.3276 22.8322 88.3527 22.8064 88.3527 22.7744V22.6331C88.3527 22.5357 88.2765 22.457 88.1819 22.457C88.0898 22.457 88.0144 22.3816 88.0111 22.2867L87.9325 19.9165V19.6422C87.9325 19.6342 87.9392 19.6277 87.9466 19.6277C87.9542 19.6277 87.9609 19.6214 87.9609 19.6134V19.3247C87.9609 19.3007 87.9416 19.2814 87.9191 19.2814C87.8956 19.2814 87.8772 19.262 87.8772 19.2381V19.036C87.8772 19.012 87.8956 18.9927 87.9191 18.9927C87.9416 18.9927 87.9609 18.9732 87.9609 18.9494V18.6904C87.9609 18.666 87.9416 18.6462 87.9182 18.6462C87.8948 18.6462 87.8764 18.6275 87.8755 18.6037L87.7976 16.5121C87.7952 16.448 87.8445 16.3945 87.9073 16.3945C87.9676 16.3945 88.017 16.3439 88.017 16.2812V16.1636C88.017 16.1316 88.0421 16.1059 88.0731 16.1059C88.1041 16.1059 88.1292 16.08 88.1292 16.0481V15.4275C88.1292 15.4035 88.1099 15.3841 88.0865 15.3841C88.0638 15.3841 88.0447 15.3647 88.0447 15.3409V15.2831C88.0447 15.2591 88.0261 15.2397 88.0027 15.2397C87.9793 15.2397 87.9609 15.2204 87.9609 15.1965V14.648C87.9609 14.6241 87.9793 14.6046 88.0027 14.6046C88.0261 14.6046 88.0447 14.5854 88.0447 14.5614V14.316C88.0447 14.2522 87.9944 14.2005 87.9325 14.2005C87.8714 14.2005 87.8211 14.1489 87.8211 14.085V13.5799C87.8211 13.5559 87.8395 13.5366 87.863 13.5366C87.8864 13.5366 87.9048 13.5171 87.9048 13.4932V13.2622C87.9048 13.2384 87.8864 13.219 87.863 13.219C87.8395 13.219 87.8211 13.1996 87.8211 13.1756V12.5406C87.8211 12.5166 87.8395 12.4972 87.863 12.4972C87.8864 12.4972 87.9048 12.4779 87.9048 12.454V12.223C87.9048 12.1991 87.8864 12.1797 87.863 12.1797C87.8395 12.1797 87.8211 12.1603 87.8211 12.1364V11.5302C87.8211 11.4584 87.8772 11.4003 87.9466 11.4003C88.0161 11.4003 88.0731 11.3421 88.0731 11.2704V10.9095C88.0731 10.8776 88.0982 10.8518 88.1292 10.8518C88.1593 10.8518 88.1844 10.8259 88.1844 10.794V10.2744C88.1844 10.2585 88.1719 10.2455 88.1567 10.2455C88.1409 10.2455 88.1292 10.2326 88.1292 10.2167V9.48052C88.1292 9.37688 88.0471 9.29287 87.9466 9.29287C87.8463 9.29287 87.765 9.20886 87.765 9.10523V8.44126C87.765 8.41733 87.7834 8.39794 87.8069 8.39794C87.8303 8.39794 87.8487 8.37856 87.8487 8.35464V8.34021C87.8487 8.30832 87.8236 8.28247 87.7926 8.28247H87.765C87.7181 8.28247 87.6812 8.24371 87.6812 8.19587V6.85348C87.6812 6.82957 87.6997 6.81018 87.7232 6.81018C87.7458 6.81018 87.765 6.79079 87.765 6.76688V6.75244C87.765 6.72056 87.7399 6.69471 87.7089 6.69471H87.6812C87.6344 6.69471 87.5967 6.65593 87.5967 6.60811V5.33788C87.5967 5.30601 87.6219 5.28016 87.6528 5.28016H87.6812C87.6964 5.28016 87.7089 5.26723 87.7089 5.25128C87.7089 5.23534 87.6964 5.22241 87.6812 5.22241H87.6386C87.6 5.22241 87.5691 5.19011 87.5691 5.15023V4.26976C87.5691 4.25381 87.5816 4.24089 87.5967 4.24089C87.6126 4.24089 87.6252 4.22797 87.6252 4.21202V4.16872C87.6252 4.14479 87.606 4.12541 87.5833 4.12541C87.5599 4.12541 87.5406 4.10603 87.5406 4.08211V3.23049C87.5406 3.21454 87.5532 3.20162 87.5691 3.20162C87.5842 3.20162 87.5967 3.18869 87.5967 3.17274V3.12944C87.5967 3.10553 87.5783 3.08614 87.5549 3.08614C87.5315 3.08614 87.5131 3.06676 87.5131 3.04283V2.42217C87.5131 2.40623 87.5256 2.39331 87.5406 2.39331C87.5566 2.39331 87.5691 2.38038 87.5691 2.36443V2.33556C87.5691 2.30367 87.5441 2.27783 87.5131 2.27783C87.4821 2.27783 87.457 2.30367 87.457 2.33556V2.36443C87.457 2.38038 87.4695 2.39331 87.4854 2.39331C87.5005 2.39331 87.5131 2.40623 87.5131 2.42217V2.99954C87.5131 3.03143 87.488 3.05727 87.457 3.05727C87.426 3.05727 87.4009 3.08313 87.4009 3.11502V3.17276C87.4009 3.18869 87.4134 3.20162 87.4293 3.20162C87.4444 3.20162 87.457 3.21454 87.457 3.23049V4.08209C87.457 4.10602 87.4386 4.12541 87.415 4.12541C87.3916 4.12541 87.3732 4.14479 87.3732 4.16872V4.21202C87.3732 4.22796 87.3858 4.24089 87.4009 4.24089C87.4167 4.24089 87.4293 4.25382 87.4293 4.26976V5.09251C87.4293 5.13237 87.3975 5.16467 87.3591 5.16467H87.3448C87.3138 5.16467 87.2895 5.19053 87.2895 5.22241C87.2895 5.25429 87.3138 5.28016 87.3448 5.28016C87.3758 5.28016 87.4009 5.30601 87.4009 5.33789V6.57923C87.4009 6.62706 87.3632 6.66584 87.3171 6.66584H87.2895C87.2586 6.66584 87.2335 6.69169 87.2335 6.72358V6.73801C87.2335 6.76192 87.2519 6.78132 87.2753 6.78132C87.2978 6.78132 87.3171 6.80071 87.3171 6.82462V8.15257C87.3171 8.20837 87.2736 8.25361 87.2192 8.25361H87.1773C87.1464 8.25361 87.1212 8.27946 87.1212 8.31134V8.32578C87.1212 8.34969 87.1397 8.36907 87.1631 8.36907C87.1865 8.36907 87.2049 8.38847 87.2049 8.41238V9.07636C87.2049 9.17999 87.1238 9.26401 87.0233 9.26401C86.9228 9.26401 86.8416 9.34801 86.8416 9.45164V10.1878C86.8416 10.2037 86.8291 10.2167 86.8132 10.2167C86.7981 10.2167 86.7855 10.2296 86.7855 10.2455V10.7652C86.7855 10.797 86.8106 10.8229 86.8416 10.8229C86.8717 10.8229 86.8969 10.8487 86.8969 10.8806V11.2415C86.8969 11.3133 86.9538 11.3714 87.0233 11.3714C87.0928 11.3714 87.1489 11.4296 87.1489 11.5013V12.1076C87.1489 12.1315 87.1305 12.1508 87.107 12.1508C87.0836 12.1508 87.0652 12.1702 87.0652 12.1942V12.4251C87.0652 12.4491 87.0836 12.4684 87.107 12.4684C87.1305 12.4684 87.1489 12.4878 87.1489 12.5117V13.1469C87.1489 13.1707 87.1305 13.1901 87.107 13.1901C87.0836 13.1901 87.0652 13.2095 87.0652 13.2334V13.4644C87.0652 13.4882 87.0836 13.5076 87.107 13.5076C87.1305 13.5076 87.1489 13.5271 87.1489 13.551V14.0706C87.1489 14.1264 87.1054 14.1716 87.0509 14.1716C86.9973 14.1716 86.953 14.2169 86.953 14.2726V14.5325C86.953 14.5564 86.9722 14.5759 86.9948 14.5759C87.0183 14.5759 87.0376 14.5951 87.0376 14.6191V15.1676C87.0376 15.1915 87.0183 15.2109 86.9948 15.2109C86.9722 15.2109 86.953 15.2304 86.953 15.2542V15.2975C86.953 15.3294 86.9278 15.3552 86.8969 15.3552C86.8659 15.3552 86.8416 15.3811 86.8416 15.413V16.0192C86.8416 16.0511 86.8659 16.077 86.8969 16.077C86.9278 16.077 86.953 16.1029 86.953 16.1347V16.2524C86.953 16.315 87.0023 16.3656 87.0627 16.3656C87.1254 16.3656 87.1748 16.419 87.1732 16.4832L87.0944 18.575C87.0936 18.5986 87.0751 18.6174 87.0517 18.6174C87.0283 18.6174 87.009 18.6371 87.009 18.6616V18.9205C87.009 18.9444 87.0283 18.9639 87.0509 18.9639C87.0744 18.9639 87.0928 18.9832 87.0928 19.0071V19.2091C87.0928 19.2331 87.0744 19.2525 87.0509 19.2525C87.0283 19.2525 87.009 19.2719 87.009 19.2957V19.5845C87.009 19.5925 87.0158 19.5989 87.0233 19.5989C87.0309 19.5989 87.0376 19.6054 87.0376 19.6134V19.8876L86.9588 22.2579C86.9555 22.3527 86.8801 22.428 86.7881 22.428C86.6934 22.428 86.6173 22.5069 86.6173 22.6042V22.7456C86.6173 22.7775 86.6425 22.8034 86.6734 22.8034C86.7044 22.8034 86.7294 22.8291 86.7294 22.861V23.2075C86.7294 23.2552 86.6919 23.2941 86.6458 23.2941C86.5989 23.2941 86.5612 23.3329 86.5612 23.3807V23.4674C86.5612 23.5629 86.6366 23.6405 86.7294 23.6405H86.7437C86.8442 23.6405 86.9254 23.7246 86.9254 23.8281V24.42L86.8132 27.7399V27.9131L86.7597 29.7212C86.7588 29.7534 86.7253 29.774 86.6951 29.7671C86.6692 29.7614 86.6483 29.7849 86.6516 29.8119L86.6919 30.1654C86.6969 30.2111 86.6616 30.2514 86.6173 30.2514C86.573 30.2514 86.5378 30.2111 86.5437 30.1654L86.5654 29.972C86.5747 29.8866 86.4766 29.8181 86.3938 29.8181C86.31 29.8181 86.2121 29.8866 86.2214 29.972L86.2389 30.1224C86.2465 30.1911 86.1945 30.2514 86.1276 30.2514C86.0606 30.2514 86.0087 30.1911 86.0163 30.1224L86.0338 29.972C86.0431 29.8866 85.9452 29.8181 85.8614 29.8181C85.7785 29.8181 85.6798 29.8866 85.6898 29.972L85.7115 30.1654C85.7173 30.2111 85.6822 30.2514 85.6378 30.2514C85.5936 30.2514 85.5583 30.2111 85.5633 30.1654L85.586 29.972C85.5951 29.8866 85.4972 29.8181 85.4136 29.8181C85.3306 29.8181 85.2327 29.8866 85.2419 29.972L85.2645 30.1654C85.2695 30.2111 85.2344 30.2514 85.19 30.2514C85.1456 30.2514 85.1105 30.2111 85.1155 30.1654L85.1381 29.972C85.1473 29.8866 85.0494 29.8181 84.9656 29.8181C84.8828 29.8181 84.7849 29.8866 84.7941 29.972L84.8142 30.1451C84.8209 30.2017 84.7773 30.2514 84.7223 30.2514C84.6715 30.2514 84.6303 30.2087 84.6303 30.1562V29.1977C84.6303 29.1897 84.6365 29.1832 84.6442 29.1832C84.6519 29.1832 84.6582 29.1767 84.6582 29.1689V29.0534C84.6582 28.9816 84.6019 28.9235 84.5322 28.9235H84.4716C84.3844 28.9235 84.3087 28.861 84.2897 28.7732L84.2839 28.7474C84.2327 28.5125 83.9082 28.5125 83.857 28.7474L83.8404 28.8234C83.8276 28.8819 83.7772 28.9235 83.719 28.9235C83.6503 28.9235 83.5947 28.9809 83.5947 29.0517V29.2121C83.5947 29.2281 83.6072 29.241 83.6227 29.241C83.6381 29.241 83.6506 29.2539 83.6506 29.2699V30.2836C83.6506 30.3137 83.627 30.338 83.5978 30.338C83.5664 30.338 83.5419 30.3096 83.5455 30.2772L83.5705 30.0586C83.5803 29.9731 83.4821 29.9047 83.3987 29.9047C83.3154 29.9047 83.2172 29.9732 83.2269 30.0586L83.2489 30.252C83.2542 30.2979 83.2195 30.338 83.1748 30.338C83.1301 30.338 83.0954 30.2979 83.1006 30.252L83.1227 30.0586C83.1325 29.9732 83.0343 29.9047 82.9509 29.9047C82.8676 29.9047 82.7694 29.9732 82.7791 30.0586L82.7995 30.2376C82.8056 30.2911 82.7652 30.338 82.713 30.338C82.6609 30.338 82.6204 30.2911 82.6265 30.2376L82.6469 30.0586C82.6566 29.9732 82.5584 29.9047 82.4752 29.9047C82.3917 29.9047 82.2936 29.9732 82.3033 30.0586L82.3237 30.2376C82.3298 30.2911 82.2894 30.338 82.2372 30.338C82.185 30.338 82.1447 30.2911 82.1506 30.2376L82.1711 30.0586C82.1809 29.9732 82.0827 29.9047 81.9993 29.9047C81.916 29.9047 81.8177 29.9732 81.8275 30.0586L81.8495 30.252C81.8548 30.2979 81.8202 30.338 81.7754 30.338C81.7306 30.338 81.696 30.2979 81.7013 30.252L81.7233 30.0586C81.7331 29.9731 81.6348 29.9047 81.5515 29.9047C81.4682 29.9047 81.3699 29.9732 81.3797 30.0586L81.4017 30.252C81.407 30.2979 81.3723 30.338 81.3276 30.338C81.283 30.338 81.2482 30.2979 81.2534 30.252L81.2755 30.0586C81.2853 29.9732 81.1871 29.9047 81.1037 29.9047C81.0203 29.9047 80.9221 29.9732 80.9319 30.0586L80.9539 30.252C80.9591 30.2979 80.9244 30.338 80.8798 30.338C80.835 30.338 80.8004 30.2979 80.8056 30.252L80.8445 29.91C80.8484 29.8766 80.8231 29.8524 80.7921 29.863C80.7636 29.8727 80.7399 29.8509 80.7399 29.8199V24.2179L80.6838 23.4096V23.3519C80.6838 23.32 80.7089 23.2941 80.7399 23.2941C80.7708 23.2941 80.7958 23.2682 80.7958 23.2364V23.1064C80.7958 23.0825 80.8147 23.0631 80.8378 23.0631C80.861 23.0631 80.8798 23.0437 80.8798 23.0199V22.5067C80.8798 22.4792 80.8582 22.457 80.8315 22.457C80.8103 22.457 80.7915 22.4426 80.7853 22.4217L80.6876 22.0942C80.6852 22.0859 80.6833 22.0772 80.6824 22.0685C80.6633 21.899 80.4245 21.899 80.4054 22.0685C80.4044 22.0772 80.4027 22.0859 80.4003 22.0942L80.3025 22.4217C80.2962 22.4426 80.2775 22.457 80.2564 22.457H80.2521C80.2278 22.457 80.2081 22.4772 80.2081 22.5024C80.2081 22.5354 80.1753 22.5574 80.146 22.544L79.9867 22.4709C79.9665 22.4617 79.9448 22.457 79.9227 22.457H79.8876C79.7091 22.457 79.5643 22.3076 79.5643 22.1235V21.5331C79.5643 21.4852 79.5267 21.4465 79.4804 21.4465C79.4339 21.4465 79.3964 21.4077 79.3964 21.3599V19.833C79.3964 19.8154 79.3825 19.801 79.3653 19.801C79.3508 19.801 79.3382 19.7906 79.335 19.7759L79.2366 19.319C79.2317 19.297 79.213 19.2814 79.1911 19.2814C79.1653 19.2814 79.1444 19.2599 79.1444 19.2334V18.5019C79.1444 18.486 79.157 18.4731 79.1725 18.4731C79.188 18.4731 79.2005 18.4601 79.2005 18.4441V18.1411C79.2005 18.1171 79.2192 18.0977 79.2425 18.0977C79.2656 18.0977 79.2844 18.0784 79.2844 18.0545V17.6215C79.2844 17.5975 79.2656 17.5781 79.2425 17.5781C79.2192 17.5781 79.2005 17.5587 79.2005 17.5349V16.4196C79.2005 16.4057 79.2114 16.3945 79.2248 16.3945C79.2408 16.3945 79.2523 16.3789 79.2483 16.363L79.1444 15.9615L79.0238 15.6061C78.9788 15.4731 78.8572 15.3841 78.7205 15.3841C78.562 15.3841 78.4271 15.2646 78.403 15.103L77.7188 10.5027C77.7084 10.4337 77.7867 10.3885 77.8384 10.4336C77.896 10.4839 77.9808 10.4223 77.9543 10.3494L77.913 10.2359C77.8965 10.1905 77.9116 10.1393 77.9499 10.1111L77.9564 10.1063C78.0495 10.0377 77.9978 9.88622 77.8836 9.89278L77.8534 9.89451C77.807 9.89717 77.7653 9.86503 77.7545 9.81826C77.7314 9.71641 77.5909 9.71641 77.5676 9.81826C77.557 9.86503 77.5153 9.89717 77.4687 9.89451L77.4386 9.89278C77.3243 9.88622 77.2727 10.0377 77.3659 10.1063L77.3723 10.1111C77.4106 10.1393 77.4256 10.1905 77.4092 10.2359L77.368 10.3494C77.3415 10.4223 77.4263 10.4839 77.4838 10.4336C77.5354 10.3885 77.6137 10.4337 77.6034 10.5027L76.9169 15.1186C76.8942 15.2714 76.7667 15.3841 76.617 15.3841C76.488 15.3841 76.3731 15.4682 76.3305 15.5937L76.2056 15.9615L76.102 16.363C76.0978 16.3789 76.1094 16.3945 76.1254 16.3945C76.1388 16.3945 76.1498 16.4057 76.1498 16.4196V17.5349C76.1498 17.5587 76.1309 17.5781 76.1077 17.5781C76.0845 17.5781 76.0658 17.5975 76.0658 17.6215V18.0545C76.0658 18.0784 76.0845 18.0977 76.1077 18.0977C76.1309 18.0977 76.1498 18.1171 76.1498 18.1411V18.4441C76.1498 18.4601 76.1622 18.4731 76.1777 18.4731C76.1932 18.4731 76.2056 18.486 76.2056 18.5019V19.32C76.2056 19.3465 76.1848 19.368 76.1592 19.368C76.1372 19.368 76.1183 19.3836 76.1137 19.4056L76.018 19.85C76.0131 19.872 75.9942 19.8876 75.9725 19.8876C75.9466 19.8876 75.9258 19.9091 75.9258 19.9356V21.4754C75.9258 21.5072 75.9008 21.5331 75.8698 21.5331C75.8389 21.5331 75.8139 21.559 75.8139 21.5909V22.4006C75.8139 22.4796 75.7519 22.5435 75.6754 22.5435C75.6559 22.5435 75.6367 22.5477 75.6191 22.5557L75.456 22.6306C75.4269 22.644 75.3941 22.622 75.3941 22.589C75.3941 22.5639 75.3743 22.5435 75.3499 22.5435H75.3458C75.3245 22.5435 75.3059 22.5292 75.2995 22.5084L75.2019 22.1807C75.1994 22.1724 75.1976 22.1639 75.1967 22.1551C75.1775 21.9856 74.9388 21.9856 74.9197 22.1551C74.9188 22.1637 74.917 22.1724 74.9145 22.1807L74.8169 22.5084C74.8105 22.5292 74.7919 22.5435 74.7706 22.5435C74.7439 22.5435 74.7224 22.5659 74.7224 22.5934V23.1064C74.7224 23.1304 74.7411 23.1497 74.7643 23.1497C74.7875 23.1497 74.8064 23.1691 74.8064 23.193V23.323C74.8064 23.3549 74.8314 23.3807 74.8622 23.3807C74.8932 23.3807 74.9183 23.4065 74.9183 23.4384V23.4961L74.8622 24.3045V30.3414C74.8622 30.3714 74.8387 30.3957 74.8097 30.3957C74.7781 30.3957 74.7536 30.3674 74.7572 30.335L74.7821 30.1164C74.792 30.0309 74.6938 29.9625 74.6104 29.9625C74.527 29.9625 74.4288 30.0309 74.4386 30.1164L74.4606 30.3097C74.4659 30.3555 74.4311 30.3957 74.3865 30.3957C74.3419 30.3957 74.3071 30.3555 74.3123 30.3097L74.3344 30.1164C74.3441 30.0309 74.2459 29.9625 74.1626 29.9625C74.0792 29.9625 73.981 30.0309 73.9908 30.1164L74.0128 30.3097C74.0181 30.3555 73.9833 30.3957 73.9387 30.3957C73.8939 30.3957 73.8593 30.3555 73.8645 30.3097L73.8866 30.1164C73.8963 30.0309 73.7981 29.9625 73.7148 29.9625C73.6315 29.9625 73.5332 30.0309 73.543 30.1164L73.5649 30.3097C73.5703 30.3555 73.5355 30.3957 73.4909 30.3957C73.4461 30.3957 73.4115 30.3555 73.4167 30.3097L73.4387 30.1164C73.4486 30.0309 73.3503 29.9625 73.267 29.9625C73.1836 29.9625 73.0854 30.0309 73.095 30.1164L73.1172 30.3097C73.1223 30.3555 73.0877 30.3957 73.043 30.3957C72.9983 30.3957 72.9637 30.3555 72.9688 30.3097L72.991 30.1164C73.0006 30.0309 72.9025 29.9625 72.8191 29.9625C72.7358 29.9625 72.6376 30.0309 72.6473 30.1164L72.6628 30.2524C72.6715 30.3287 72.6137 30.3957 72.5393 30.3957C72.4648 30.3957 72.407 30.3287 72.4156 30.2524L72.4311 30.1164C72.4409 30.0309 72.3427 29.9625 72.2594 29.9625C72.176 29.9625 72.0778 30.0309 72.0875 30.1164L72.108 30.2954C72.1141 30.3489 72.0737 30.3957 72.0215 30.3957C71.9693 30.3957 71.9289 30.3489 71.9349 30.2954L71.9554 30.1164C71.9651 30.0309 71.867 29.9625 71.7836 29.9625C71.7001 29.9625 71.602 30.0309 71.6117 30.1164L71.6366 30.335C71.6404 30.3674 71.6159 30.3957 71.5843 30.3957C71.5553 30.3957 71.5317 30.3714 71.5317 30.3414V29.3131C71.5317 29.3052 71.538 29.2987 71.5456 29.2987C71.5533 29.2987 71.5597 29.2922 71.5597 29.2842V29.14C71.5597 29.0522 71.4908 28.9811 71.4056 28.9811H71.342C71.2402 28.9811 71.1519 28.9082 71.1295 28.8057C71.0783 28.5709 70.7537 28.5701 70.7025 28.805L70.6886 28.8685C70.6742 28.9345 70.6176 28.9811 70.5521 28.9811C70.4748 28.9811 70.4121 29.0459 70.4121 29.1255V29.2699C70.4121 29.2859 70.4247 29.2987 70.4401 29.2987C70.4555 29.2987 70.4681 29.3116 70.4681 29.3276V30.3414C70.4681 30.3714 70.4445 30.3957 70.4154 30.3957C70.3839 30.3957 70.3594 30.3674 70.3631 30.335L70.388 30.1164C70.3978 30.0309 70.2995 29.9625 70.2162 29.9625C70.1328 29.9625 70.0347 30.0309 70.0443 30.1164L70.0665 30.3097C70.0716 30.3555 70.037 30.3957 69.9923 30.3957C69.9476 30.3957 69.913 30.3555 69.9181 30.3097L69.9403 30.1164C69.9499 30.0309 69.8517 29.9625 69.7683 29.9625C69.685 29.9625 69.5869 30.0309 69.5966 30.1164L69.6187 30.3097C69.6238 30.3555 69.5892 30.3957 69.5445 30.3957C69.4998 30.3957 69.465 30.3555 69.4704 30.3097L69.4923 30.1164C69.5021 30.0309 69.4039 29.9625 69.3206 29.9625C69.2372 29.9625 69.1391 30.0309 69.1488 30.1164L69.1659 30.2667C69.1738 30.3354 69.1217 30.3957 69.0547 30.3957C68.9877 30.3957 68.9356 30.3354 68.9434 30.2667L68.9606 30.1164C68.9704 30.0309 68.8721 29.9625 68.7888 29.9625C68.7055 29.9625 68.6072 30.0309 68.617 30.1164L68.6391 30.3097C68.6443 30.3555 68.6097 30.3957 68.5649 30.3957C68.5202 30.3957 68.4855 30.3555 68.4908 30.3097L68.5127 30.1164C68.5226 30.0309 68.4244 29.9625 68.341 29.9625C68.2576 29.9625 68.1594 30.0309 68.1692 30.1164L68.1913 30.3097C68.1965 30.3555 68.1617 30.3957 68.1171 30.3957C68.0723 30.3957 68.0377 30.3555 68.043 30.3097L68.065 30.1164C68.0747 30.0309 67.9765 29.9625 67.8932 29.9625C67.8098 29.9625 67.7116 30.0309 67.7214 30.1164L67.7434 30.3097C67.7487 30.3555 67.7139 30.3957 67.6693 30.3957C67.6245 30.3957 67.5899 30.3555 67.5952 30.3097L67.6172 30.1164C67.6269 30.0309 67.5287 29.9625 67.4454 29.9625C67.3621 29.9625 67.2638 30.0309 67.2736 30.1164L67.2956 30.3097C67.3009 30.3555 67.2661 30.3957 67.2214 30.3957C67.1767 30.3957 67.1421 30.3555 67.1473 30.3097L67.1693 30.1164C67.1792 30.0309 67.081 29.9625 66.9976 29.9625C66.9142 29.9625 66.816 30.0309 66.8258 30.1164L66.8478 30.3097C66.853 30.3555 66.8183 30.3957 66.7737 30.3957C66.7289 30.3957 66.6943 30.3555 66.6994 30.3097L66.7216 30.1164C66.7312 30.0309 66.6331 29.9625 66.5497 29.9625C66.4664 29.9625 66.3682 30.0309 66.378 30.1164L66.3999 30.3097C66.4053 30.3555 66.3705 30.3957 66.3259 30.3957C66.2811 30.3957 66.2464 30.3555 66.2517 30.3097L66.2737 30.1164C66.2834 30.0309 66.1853 29.9625 66.102 29.9625C66.0186 29.9625 65.9204 30.0309 65.93 30.1164L65.9464 30.2591C65.9547 30.3319 65.8995 30.3957 65.8286 30.3957C65.7632 30.3957 65.71 30.341 65.71 30.2735V29.9482C65.71 29.9084 65.6788 29.8761 65.64 29.8761C65.6015 29.8761 65.5702 29.8439 65.5702 29.8039V29.4864C65.5702 29.4784 65.5764 29.4719 65.5842 29.4719C65.5919 29.4719 65.5982 29.4655 65.5982 29.4575V29.2265C65.5982 29.2026 65.5793 29.1832 65.5561 29.1832C65.533 29.1832 65.5142 29.1639 65.5142 29.14V29.0814C65.5142 29.0724 65.513 29.0634 65.5106 29.0546L65.2706 28.1467C65.2664 28.1309 65.2781 28.1151 65.2941 28.1151C65.3075 28.1151 65.3182 28.104 65.3182 28.0901V28.0285C65.3182 28.0126 65.3058 27.9996 65.2903 27.9996C65.2748 27.9996 65.2623 27.9867 65.2623 27.9709V27.2779C65.2623 27.262 65.2748 27.2491 65.2903 27.2491C65.3058 27.2491 65.3182 27.2361 65.3182 27.2202V27.1912C65.3182 27.1595 65.2932 27.1336 65.2623 27.1336H65.1869C65.1314 27.1336 65.0819 27.0976 65.0632 27.0436L65.0381 26.971C64.963 26.7544 64.6659 26.7544 64.5909 26.971L64.5658 27.0436C64.5471 27.0976 64.4975 27.1336 64.442 27.1336H64.3666C64.3356 27.1336 64.3106 27.1595 64.3106 27.1912V27.2202C64.3106 27.2361 64.3232 27.2491 64.3386 27.2491C64.3541 27.2491 64.3666 27.262 64.3666 27.2779V27.9709C64.3666 27.9867 64.3541 27.9996 64.3386 27.9996C64.3232 27.9996 64.3106 28.0126 64.3106 28.0285V28.0901C64.3106 28.104 64.3215 28.1151 64.3349 28.1151C64.3509 28.1151 64.3625 28.1309 64.3583 28.1467L64.1182 29.0546C64.1159 29.0634 64.1148 29.0724 64.1148 29.0814V29.14C64.1148 29.1639 64.0959 29.1832 64.0727 29.1832C64.0495 29.1832 64.0308 29.2026 64.0308 29.2265V29.3709C64.0308 29.3789 64.0371 29.3854 64.0448 29.3854C64.0525 29.3854 64.0588 29.3917 64.0588 29.3997V29.7174C64.0588 29.7572 64.0275 29.7895 63.9888 29.7895C63.9501 29.7895 63.9188 29.8217 63.9188 29.8617V31.7814C63.9188 31.893 63.8311 31.9835 63.723 31.9835H63.583C63.5521 31.9835 63.527 32.0094 63.527 32.0412C63.527 32.0731 63.5019 32.099 63.471 32.099H63.4291C63.3749 32.099 63.331 32.0537 63.331 31.998V31.868C63.331 31.7882 63.2684 31.7237 63.1911 31.7237C63.1138 31.7237 63.0513 31.7882 63.0513 31.868V32.1134C63.0513 32.2171 62.9698 32.3011 62.8693 32.3011C62.7688 32.3011 62.6873 32.3851 62.6873 32.4887V33.1237C62.6873 33.2594 62.5808 33.3692 62.4494 33.3692C62.3181 33.3692 62.2116 33.2594 62.2116 33.1237V32.0557C62.2116 31.7926 62.0048 31.5794 61.7498 31.5794H61.4699C61.3693 31.5794 61.2878 31.6634 61.2878 31.767V31.8247C61.2878 31.8965 61.2315 31.9546 61.162 31.9546C61.0925 31.9546 61.036 31.8965 61.036 31.8247C61.036 31.753 60.9797 31.6947 60.91 31.6947H60.5043C60.2106 31.6947 59.9725 31.4492 59.9725 31.1464V30.1992C59.9725 30.0686 59.8698 29.9627 59.7431 29.9627C59.6208 29.9627 59.5199 29.8636 59.5139 29.7377L58.9409 17.6625C58.9387 17.6152 58.9009 17.5781 58.8549 17.5781H58.797C58.7815 17.5781 58.7689 17.5652 58.7689 17.5492C58.7689 17.5332 58.7564 17.5204 58.7409 17.5204H58.671C58.6169 17.5204 58.573 17.4752 58.573 17.4194V17.3761C58.573 17.2964 58.5104 17.2317 58.4331 17.2317H58.2567C58.1005 17.2317 57.9683 17.114 57.9419 16.9552C57.8438 16.3694 57.7432 16.0192 57.6215 16.0192C57.5188 16.0192 57.4447 16.1347 57.3421 16.1347H54.962C54.862 16.1347 54.7826 16.0192 54.6827 16.0192C54.3469 16.0192 54.0949 18.6751 54.0949 21.9374C54.0949 22.7647 54.116 23.5486 54.1399 24.2701C54.1458 24.4441 54.0064 24.5861 53.8378 24.5779C53.6841 24.5702 53.5632 24.4395 53.5632 24.2807V22.457C53.5632 22.425 53.5882 22.3991 53.6191 22.3991C53.65 22.3991 53.675 22.3734 53.675 22.3414V18.4154C53.675 18.3835 53.65 18.3575 53.6191 18.3575C53.5882 18.3575 53.5632 18.3317 53.5632 18.2999V15.4996C53.5632 15.4676 53.5882 15.4419 53.6191 15.4419C53.65 15.4419 53.675 15.416 53.675 15.3841V12.1076C53.675 11.9083 53.5184 11.7467 53.3253 11.7467H53.1712C53.0631 11.7467 52.9754 11.6562 52.9754 11.5446C52.9754 11.433 52.8877 11.3425 52.7794 11.3425H51.9398C51.8316 11.3425 51.7439 11.433 51.7439 11.5446V11.6312C51.7439 11.695 51.6938 11.7467 51.632 11.7467C51.5702 11.7467 51.52 11.7984 51.52 11.8622V24.2324C51.52 24.3124 51.4772 24.3857 51.4088 24.4234C51.2691 24.5002 51.1002 24.3957 51.1002 24.2324V23.6694C51.1002 23.6375 51.1252 23.6116 51.1561 23.6116C51.1871 23.6116 51.2121 23.5857 51.2121 23.554V19.3535C51.2121 19.2817 51.1558 19.2236 51.0863 19.2236C51.0166 19.2236 50.9602 19.1655 50.9602 19.0937V15.5429C50.9602 15.519 50.9791 15.4996 51.0022 15.4996C51.0254 15.4996 51.0442 15.4802 51.0442 15.4562V11.1693C51.0442 10.978 50.8938 10.8229 50.7083 10.8229H50.5964C50.4727 10.8229 50.3725 10.7195 50.3725 10.592C50.3725 10.4644 50.2722 10.361 50.1486 10.361H49.197C49.0732 10.361 48.9731 10.4644 48.9731 10.592V10.6641C48.9731 10.7518 48.9042 10.8229 48.8191 10.8229C48.7342 10.8229 48.6651 10.894 48.6651 10.9817V15.3696C48.6651 15.4255 48.6213 15.4707 48.5672 15.4707C48.5131 15.4707 48.4693 15.516 48.4693 15.5717V19.5845C48.4693 19.6244 48.5006 19.6567 48.5393 19.6567C48.5778 19.6567 48.6092 19.689 48.6092 19.7289V23.3279C48.6092 23.3786 48.5833 23.4255 48.5412 23.4516C48.448 23.5092 48.3293 23.44 48.3293 23.3279V20.7686C48.3293 20.2849 47.9367 19.8846 47.4887 20.0275C47.1384 20.1391 46.8091 20.3152 46.5171 20.549C46.3616 20.6734 46.2736 20.8627 46.2543 21.0647C46.022 23.4901 45.9371 27.991 45.9242 28.7544C45.9231 28.8179 45.8728 28.8657 45.8112 28.8657C45.7489 28.8657 45.6984 28.8136 45.6984 28.7494V24.6577C45.6984 24.5767 45.7008 24.5134 45.6498 24.4516C45.5562 24.3382 45.468 24.1921 45.3949 24.0637C45.3386 23.9647 45.2558 23.8695 45.1452 23.778C44.8921 23.5687 44.6909 23.2826 44.6909 22.9482V13.0457C44.6909 12.982 44.6406 12.9304 44.5789 12.9304C44.517 12.9304 44.4669 12.8786 44.4669 12.8149V12.6416C44.4669 12.6097 44.4419 12.5839 44.411 12.5839C44.38 12.5839 44.355 12.558 44.355 12.5261V12.3873C44.355 12.3131 44.3148 12.2445 44.2487 12.2151C44.1652 12.1778 44.0791 12.1468 43.9911 12.122C43.3609 11.8927 42.6999 11.7662 42.032 11.7467Z" fill="white"/>
</g>
</svg>
