<svg width="200" height="50" viewBox="0 0 200 50" fill="none" xmlns="http://www.w3.org/2000/svg">
<path d="M11 36.5534C11 40.2131 13.4671 42.484 17.4536 42.484H21.3094C23.7438 42.484 25.6881 43.2029 27.2674 44.6896L27.5888 45L27.921 44.6841C29.484 43.2083 31.4337 42.4894 33.8735 42.4894H37.7403C41.7105 42.4894 44.1721 40.2185 44.1721 36.5589V5H11V36.5534ZM11.6971 5.69707H43.475V36.5534C43.475 39.8319 41.3292 41.7869 37.7403 41.7869H33.8735C31.3248 41.7869 29.2662 42.5221 27.5888 44.0361C25.9059 42.5221 23.8473 41.7869 21.304 41.7869H17.4482C13.8483 41.7869 11.6917 39.8319 11.6917 36.5534V5.69707H11.6971Z" fill="white"/>
<path d="M16.3864 25.2303C16.5389 25.3555 16.7077 25.4481 16.8765 25.5516C17.0399 25.6387 17.0454 25.6551 16.9637 25.8184C16.9473 25.8566 16.9201 25.8892 16.9038 25.9274C16.3973 26.8749 16.2775 27.8606 16.6478 28.879C16.7132 29.0642 16.8003 29.2439 16.8983 29.4726C16.9855 29.037 17.0617 28.6721 17.1434 28.3018C17.2523 27.8007 17.4756 27.376 17.9167 27.0819C18.0583 26.9839 18.189 26.8695 18.3198 26.7606C18.347 26.7388 18.3906 26.7225 18.4396 26.7007C18.5812 26.8913 18.6901 27.0928 18.6955 27.3106C18.7228 27.7735 18.6683 28.231 18.4287 28.6503C18.2653 28.9444 18.1128 29.2439 17.9821 29.5543C17.7043 30.1915 17.786 30.8123 18.1999 31.3678C18.347 31.5638 18.5158 31.7327 18.6846 31.9396C18.6247 32.0104 18.543 32.103 18.4777 32.1901C18.3524 32.3535 18.3524 32.5005 18.4722 32.6694C18.5213 32.7402 18.5975 32.8001 18.6574 32.8763C18.7445 32.9961 18.8644 33.105 18.9079 33.2412C19.0277 33.6006 19.1258 33.96 19.0277 34.3521C18.9842 34.5046 19.0005 34.668 19.1584 34.766C19.458 34.9403 19.7902 34.9839 20.1333 34.9403C20.2858 34.9185 20.3021 34.8804 20.2803 34.7225C20.2531 34.5155 20.1823 34.3249 20.0516 34.1561C19.8882 33.9491 19.7303 33.7422 19.5724 33.5298C19.3218 33.1867 19.2946 32.6911 19.507 32.3589C19.9754 32.5931 20.471 32.7402 20.9992 32.8164C20.9992 32.8818 21.0047 32.9253 20.9992 32.9634C20.9611 33.2793 20.9502 33.6006 20.9829 33.9274C21.0265 34.3903 21.4022 34.8695 21.8216 35.0002C22.3063 35.1472 22.7692 35.0656 23.2103 34.8532C23.6569 34.6299 23.9456 34.1942 23.8584 33.557C23.8312 33.3719 23.7767 33.1976 23.7277 32.9907C23.8312 32.8436 24.0055 32.8818 24.1688 32.8654C24.3322 32.8491 24.4575 32.9253 24.5228 33.0833C24.5936 33.2684 24.6644 33.4536 24.7407 33.6278C24.7843 33.7259 24.7679 33.7912 24.7189 33.8783C24.5773 34.1289 24.4629 34.3903 24.3213 34.6517C24.2396 34.8041 24.2832 34.924 24.3921 35.0274C24.4738 35.0982 24.561 35.1527 24.6427 35.2235C24.7843 35.3487 24.7679 35.4685 24.5827 35.5012C24.4303 35.5393 24.2505 35.5393 24.098 35.5012C23.8094 35.4413 23.6188 35.5285 23.4935 35.7953C23.4554 35.877 23.4118 35.9478 23.3029 35.9696C23.047 36.0131 22.9108 36.1983 22.8237 36.427C22.8073 36.4651 22.8237 36.5142 22.8237 36.5741C22.9326 36.525 23.0088 36.4869 23.0905 36.4543C23.6188 36.2419 24.158 36.2691 24.6917 36.3889C25.2526 36.5087 25.7645 36.7429 26.2492 37.0479C26.271 37.0642 26.3092 37.0642 26.3473 37.0696C26.3963 36.8137 26.3636 36.6013 26.1131 36.4815C26.0477 36.4543 25.9878 36.4107 25.917 36.3835C25.5794 36.2745 25.2417 36.1765 24.9041 36.073C24.806 36.0458 24.708 36.0349 24.6917 35.8824C24.8986 35.8225 25.1056 35.8225 25.2962 35.8661C25.8081 35.975 26.32 36.1112 26.832 36.231C26.9845 36.2691 27.1424 36.3344 27.3112 36.3835C27.3276 36.3235 27.3548 36.28 27.3548 36.2364C27.3276 36.0077 27.2894 35.779 27.1642 35.5829C27.0662 35.4304 26.9899 35.267 26.8919 35.1146C26.7721 34.924 26.7612 34.7334 26.8483 34.5046C27.284 34.4828 27.6761 34.6462 28.09 34.7551C28.5094 34.8641 28.9124 35.0111 29.359 35.1527C29.3753 34.9621 29.3862 34.7933 29.4025 34.6299C29.4679 34.6026 29.5332 34.5809 29.5931 34.5591C29.7456 34.5046 29.8782 34.5409 29.9907 34.668C30.4536 35.1908 31.0255 35.523 31.6953 35.7136C31.8369 35.7517 31.9731 35.7735 32.1582 35.7191C32.0548 35.6374 31.9731 35.5775 31.9077 35.5121C31.8369 35.4413 31.7389 35.3814 31.7552 35.2616C31.7825 35.2453 31.7988 35.2344 31.8151 35.2398C32.0657 35.3106 32.3162 35.3923 32.5667 35.4685C32.7628 35.5285 32.8227 35.4958 32.9044 35.3052C32.9861 35.1146 33.0242 34.9076 33.0024 34.7007C32.9969 34.6408 33.0024 34.5809 33.0024 34.5046C33.193 34.521 33.3019 34.6244 33.4272 34.6952C33.6523 34.8259 33.8629 34.8023 34.0589 34.6244C34.0862 34.5972 34.1188 34.5645 34.1461 34.5373C34.6907 33.9328 35.0283 33.2357 35.1917 32.4406C35.2135 32.3208 35.2571 32.2119 35.2952 32.1084C35.4804 32.0867 35.6492 32.1901 35.7799 32.0649C35.7636 31.9124 35.5457 31.896 35.5947 31.7218C35.8398 31.6945 36.0849 31.7436 36.3299 31.5965C36.2864 31.5584 36.2591 31.5366 36.221 31.5148C35.8888 31.3297 35.6165 31.0792 35.4368 30.7524C35.2298 30.3875 35.0392 30.0172 34.8323 29.6523C34.6798 29.3637 34.5654 29.3419 34.3203 29.5107C34.3149 29.5162 34.2931 29.5107 34.2332 29.5107C34.1243 29.3201 33.9881 29.1132 33.8738 28.9008C33.7921 28.7538 33.7485 28.6067 33.7431 28.4325C33.7431 28.3072 33.6831 28.1765 33.6124 28.073C33.5307 27.9478 33.449 27.9478 33.3183 28.0295C33.2747 28.0567 33.2202 28.0785 33.1494 28.1275C33.1276 27.9423 33.1059 27.7899 33.0841 27.6047C32.9752 27.6047 32.8717 27.5992 32.7737 27.6047C32.6647 27.6101 32.583 27.5666 32.5231 27.4794C32.4251 27.327 32.3325 27.169 32.2454 27.0165C32.1746 26.8858 32.2073 26.8205 32.3652 26.7987C32.3924 26.7933 32.4306 26.7987 32.4632 26.7987C33.3292 26.7824 34.1624 26.6026 34.9249 26.1888C35.2571 26.0145 35.6002 25.8892 35.9596 25.7912C36.1067 25.7531 36.2537 25.7422 36.3735 25.862C36.624 26.1289 36.8746 26.3903 37.1142 26.6571C37.234 26.7878 37.2993 26.9457 37.2612 27.1363C37.234 27.2834 37.2993 27.4032 37.4028 27.5121C37.5117 27.6374 37.6098 27.7899 37.7024 27.9314C37.8222 28.1057 37.8276 28.2963 37.7623 28.4978C37.7187 28.6231 37.6915 28.7483 37.6316 28.8736C37.5444 29.0587 37.5934 29.2058 37.7405 29.3093C37.9474 29.4563 38.1598 29.6033 38.3777 29.7231C38.5465 29.8103 38.6445 29.7449 38.6663 29.5598C38.7044 29.2385 38.6827 28.9226 38.5029 28.6285C38.2851 28.2636 38.1653 27.8661 38.1653 27.4304C38.1653 26.9948 37.9801 26.6952 37.7078 26.4012C37.4954 26.1724 37.3211 25.9165 37.1414 25.6605C37.0216 25.4917 36.9508 25.2956 36.8528 25.1159C36.6894 24.8273 36.4933 24.604 36.1175 24.6367C35.9487 24.653 35.7744 24.653 35.6056 24.653C35.562 24.653 35.5185 24.6258 35.464 24.6095C35.464 24.5931 35.4586 24.5713 35.4586 24.5604C35.7799 24.4624 35.9705 24.2174 36.1883 23.9886C36.4389 23.7163 36.6894 23.444 36.9508 23.1826C37.0815 23.041 37.1196 23.0519 37.2612 23.1772C37.3048 23.2153 37.3429 23.2589 37.381 23.3024C37.5771 23.5148 37.7732 23.7272 37.9747 23.9342C38.0999 24.0594 38.1707 24.1847 38.1489 24.3698C38.1272 24.555 38.2143 24.6803 38.3995 24.7456C38.4648 24.7674 38.5302 24.8164 38.5683 24.8763C38.7643 25.1922 38.7535 25.361 38.492 25.6496C38.4703 25.6714 38.4485 25.6986 38.4267 25.7204C38.2742 25.8675 38.2796 26.0363 38.3613 26.2214C38.4811 26.4719 38.6609 26.6462 38.9277 26.7333C39.1401 26.8041 39.249 26.7606 39.2708 26.5427C39.2926 26.3576 39.2872 26.1615 39.249 25.9818C39.1619 25.557 39.0584 25.1268 39.1074 24.6857C39.1347 24.4188 39.0366 24.2282 38.8569 24.0485C38.5846 23.7708 38.3287 23.4822 38.0727 23.1881C37.8167 22.894 37.5825 22.5945 37.49 22.1969C37.4736 22.1316 37.4464 22.0717 37.4192 22.0118C37.2993 21.8048 37.1251 21.7449 36.929 21.8702C36.782 21.9682 36.6513 22.0989 36.5315 22.2296C36.3354 22.4638 36.1067 22.6435 35.8344 22.7687C35.671 22.8395 35.5784 22.8123 35.4967 22.6435C35.4586 22.5564 35.4313 22.4583 35.415 22.3549C35.3333 21.8865 35.159 21.4563 34.8704 21.0696C34.7451 20.9008 34.6035 20.7538 34.4892 20.5849C34.2768 20.2909 34.0099 20.0404 33.8847 19.6864C33.6396 18.9948 33.3836 18.314 33.1331 17.6224C33.0841 17.4917 33.046 17.3501 32.9915 17.1758C33.1658 17.1922 33.3019 17.1976 33.4326 17.2194C33.7322 17.263 34.0371 17.3174 34.2877 17.5135C34.4129 17.6115 34.5218 17.7259 34.6471 17.8075C34.7506 17.8729 34.8595 17.9274 34.9793 17.9491C35.0392 17.9655 35.1264 17.9274 35.1699 17.8783C35.1917 17.8566 35.1427 17.7694 35.1209 17.7095C35.1155 17.6823 35.0991 17.6605 35.0937 17.6278C35.1808 17.6442 35.2407 17.6768 35.3006 17.7259C35.4477 17.8293 35.5512 17.8293 35.671 17.6986C35.7309 17.6333 35.7527 17.5244 35.7581 17.4318C35.7636 17.2793 35.7527 17.1214 35.7418 16.9689C35.7363 16.8055 35.671 16.6911 35.513 16.6149C35.415 16.5659 35.3224 16.4842 35.2571 16.3971C34.9412 15.9614 34.6417 15.5203 34.3367 15.0792C34.2877 14.9975 34.2332 14.9103 34.2114 14.8123C34.1624 14.6272 34.1079 14.4529 33.9609 14.3113C33.9446 14.295 33.9446 14.2514 33.9391 14.2133C34.0263 14.1969 34.1079 14.1915 34.2114 14.1751C34.1243 13.99 34.0644 13.8157 33.9609 13.6687C33.8901 13.5598 33.7648 13.4563 33.645 13.4182C33.4925 13.3746 33.3128 13.3583 33.1603 13.3909C32.8499 13.4617 32.6266 13.3692 32.4033 13.1568C32.2781 13.037 32.131 12.9498 31.984 12.8572C31.9567 12.8355 31.8968 12.8409 31.8369 12.8409C31.8533 12.9444 31.8587 13.0152 31.8751 13.135C31.581 13.0969 31.3087 13.0642 31.0309 13.0315C31.0146 13.2493 31.2379 13.3201 31.2814 13.5107C31.1997 13.5271 31.1344 13.5489 31.069 13.5489C30.715 13.5652 30.361 13.5489 30.0179 13.6523C29.9689 13.6687 29.8927 13.6306 29.8437 13.5924C29.6748 13.4672 29.4897 13.44 29.2827 13.489C28.9723 13.5598 28.6945 13.6959 28.4277 13.8647C28.3787 13.892 28.3188 13.9137 28.2153 13.9628C28.2153 13.7885 28.1881 13.6469 28.2207 13.538C28.395 12.9988 28.3678 12.4651 28.2044 11.9369C28.139 11.7082 28.0356 11.4958 27.9484 11.2616C27.9648 11.2398 27.9865 11.2017 28.0138 11.1799C28.2316 10.9947 28.3242 10.7442 28.3351 10.4828C28.3405 10.3412 28.2861 10.1888 28.2153 10.0689C28.1554 9.96003 28.0192 10.0417 27.9157 10.0254C27.8068 10.009 27.687 9.99815 27.5944 9.93825C27.3058 9.76398 27.0226 9.76398 26.7285 9.91646C26.3636 10.1071 25.9769 10.2541 25.5685 10.3195C25.269 10.3685 24.964 10.3848 24.6644 10.2759C24.5827 10.2487 24.5011 10.2323 24.3921 10.2051C24.4902 10.5972 24.7461 10.8096 25.0184 11.0002C24.9313 11.1636 24.7679 11.0002 24.6808 11.1037C24.6808 11.1255 24.6753 11.1472 24.6862 11.1527C24.9422 11.3705 25.2363 11.5067 25.5903 11.4849C25.672 11.4794 25.7537 11.4849 25.8245 11.5067C26.0314 11.572 26.222 11.5938 26.4181 11.4903C26.4834 11.4631 26.5488 11.425 26.6087 11.474C26.6087 11.4958 26.6141 11.5012 26.6141 11.5121C26.5978 11.5339 26.5924 11.5557 26.576 11.572C26.2329 11.8443 26.1185 12.2201 26.1185 12.6449C26.1185 12.8627 26.0968 13.086 25.9878 13.2929C25.9497 13.3746 25.9443 13.4672 25.917 13.5489C25.9007 13.6088 25.8789 13.6687 25.8517 13.734C25.6774 13.6905 25.514 13.6306 25.3615 13.6088C25.2526 13.5924 25.1274 13.587 25.0239 13.6251C24.8823 13.6741 24.7788 13.6632 24.659 13.5761C24.403 13.4018 24.1198 13.38 23.8421 13.5489C23.6678 13.6523 23.499 13.7776 23.3301 13.8865C23.1994 13.9736 23.0796 14.0771 22.9489 14.1534C22.8618 14.2024 22.7529 14.2187 22.6984 14.0935C22.5895 13.8484 22.486 13.6033 22.3771 13.3528C22.2791 13.1459 22.2083 12.9117 21.9087 12.928C21.7835 12.9335 21.7399 12.8463 21.7399 12.732C21.7399 12.6666 21.7562 12.5795 21.7181 12.5468C21.5656 12.4216 21.522 12.2527 21.473 12.0785C21.4512 11.9913 21.4022 11.9314 21.3097 11.9696C21.3042 12.073 21.3042 12.1656 21.3042 12.2037C21.3641 12.3508 21.4022 12.4597 21.4512 12.5958C21.4458 12.5958 21.473 12.6013 21.5003 12.6122C21.6092 12.6503 21.6255 12.7374 21.5493 12.8028C21.4621 12.9008 21.3532 12.9771 21.2389 13.037C21.1953 13.0587 21.0755 13.037 21.0428 12.9988C20.9012 12.8518 20.6997 12.7211 20.8358 12.4542C20.7868 12.2037 20.9012 12.073 21.1299 11.9968C21.1354 11.9968 21.1463 11.9696 21.1517 11.9587C21.0809 11.8606 20.9992 11.7681 20.923 11.67C20.6234 11.2562 20.3294 10.8423 20.0189 10.4284C19.959 10.3467 19.8719 10.2759 19.7847 10.216C19.6758 10.1506 19.5397 10.1779 19.4689 10.2596C19.3817 10.3576 19.3981 10.4556 19.4525 10.5536C19.4907 10.6244 19.5397 10.6952 19.5832 10.7606C19.9209 11.2453 20.2586 11.7299 20.6071 12.2146C20.6561 12.2909 20.716 12.3671 20.667 12.4597C20.5853 12.5904 20.6398 12.6939 20.716 12.7973C20.7977 12.9008 20.8903 12.9934 20.9665 13.1078C21.0373 13.2167 21.1299 13.3256 21.1408 13.4454C21.1844 13.7122 21.3097 13.9246 21.4349 14.1425C21.5112 14.2623 21.5765 14.3875 21.6419 14.5073C21.7617 14.7252 21.729 14.9212 21.5438 15.0901C21.4349 15.1935 21.3097 15.2807 21.2225 15.3896C21.0918 15.5584 20.972 15.7327 20.8685 15.9178C20.8032 16.0376 20.7705 16.1847 20.9066 16.3208C21.0591 16.2827 21.2225 16.2555 21.375 16.201C21.6255 16.1139 21.8379 16.299 21.7889 16.5768C21.7617 16.7456 21.6691 16.8872 21.4948 16.9417C21.4077 16.9689 21.3205 16.9852 21.2389 17.0233C20.9393 17.1323 20.6343 17.2357 20.3402 17.361C19.8773 17.5679 19.8555 18.1016 20.0843 18.4066C20.2803 18.6626 20.2477 18.8041 19.9863 19.0111C19.8664 19.1091 19.7412 19.1799 19.6268 19.267C19.4852 19.3705 19.3926 19.5012 19.4199 19.6864C19.4362 19.7953 19.3817 19.8715 19.3 19.9423C19.1476 20.0839 19.0441 20.2582 18.9787 20.4542C18.9406 20.5577 18.9515 20.6449 19.0277 20.7265C19.1094 20.8028 19.1802 20.7483 19.2565 20.7211C19.4308 20.6557 19.5996 20.5577 19.7847 20.525C20.2259 20.4379 20.6725 20.3617 21.1299 20.3835C21.5057 20.4052 21.8706 20.4542 22.181 20.683C22.4152 20.8572 22.6385 21.0587 22.8618 21.2493C22.9598 21.331 23.047 21.4182 23.1559 21.4672C23.2811 21.5271 23.4445 21.5053 23.548 21.5761C23.6515 21.6469 23.7005 21.8048 23.7767 21.9137L23.7931 21.9301C23.8965 22.0172 23.8911 22.137 23.853 22.2459C23.8257 22.3549 23.7223 22.344 23.6351 22.3549C23.1504 22.4148 22.6712 22.4801 22.2083 22.6435C22.1211 22.6707 22.0558 22.6653 21.9795 22.6054C21.8597 22.5073 21.7344 22.4148 21.6037 22.3276C21.0973 21.9845 20.5526 21.7177 19.9209 21.6741C19.4634 21.6469 19.0604 21.783 18.7228 22.0935C18.3089 22.4692 18.0311 22.9212 17.7915 23.4168C17.6717 23.651 17.5954 23.9015 17.541 24.1574C17.4919 24.4243 17.4157 24.6857 17.3449 24.9417C17.3013 25.0887 17.2414 25.1159 17.1325 25.0451C16.8548 24.8709 16.5661 24.7129 16.3755 24.4188C16.1413 24.054 16.1304 23.8579 16.5008 23.4931C16.5498 23.444 16.6315 23.4223 16.7132 23.3841C16.7731 23.5366 16.7077 23.6945 16.8384 23.8035C16.9419 23.8906 17.0127 24.0159 17.0944 24.1248C17.3939 23.896 17.3395 23.3841 17.0236 23.2262C16.9582 23.199 16.8765 23.1772 16.8112 23.1826C16.3973 23.2208 16.1195 23.3569 15.9943 23.8144C15.8418 24.3589 15.9344 24.8654 16.4082 25.2412L16.3864 25.2303ZM20.6289 12.0077C20.313 11.5502 19.9917 11.0873 19.6758 10.6353C19.6159 10.5536 19.507 10.4393 19.6159 10.3576C19.7466 10.2596 19.7793 10.4447 19.8283 10.521C20.1387 10.9457 20.4437 11.376 20.7542 11.8007C20.8032 11.8715 20.8413 11.9641 20.8957 12.0513C20.7487 12.122 20.6834 12.0948 20.6289 12.0131V12.0077ZM19.055 31.3406C18.8698 31.0683 18.6901 30.8504 18.5757 30.5672C18.5921 30.5509 18.6138 30.54 18.6247 30.5237C18.6846 30.5727 18.7445 30.6217 18.7936 30.6707C18.8807 30.7687 18.9678 30.8668 19.0604 30.9594C19.1911 31.1064 19.202 31.1009 19.055 31.3406ZM19.6486 34.2051C19.5669 34.2323 19.5016 34.2487 19.4416 34.2705C19.3817 34.3957 19.4852 34.4611 19.5233 34.5482C19.5451 34.5918 19.5288 34.6517 19.5397 34.7116C19.4798 34.7061 19.4144 34.7116 19.3654 34.6843C19.1693 34.5591 19.1203 34.4393 19.2129 34.2269C19.2619 34.0962 19.2892 33.9709 19.2347 33.8239C19.153 33.5897 19.1693 33.4318 19.2347 33.2793C19.36 33.361 19.6105 33.9056 19.654 34.2051H19.6486ZM19.2946 30.7361C19.0659 30.638 18.9188 30.5073 18.848 30.3113C18.8262 30.2514 18.8698 30.1588 18.897 30.0826C19.0169 29.8157 19.153 29.5707 19.2565 29.2984C19.5124 28.6231 19.5778 27.9151 19.4907 27.2126C19.4416 26.8096 19.2238 26.4556 18.9515 26.1452C18.8807 26.0635 18.8426 25.9927 18.8807 25.8783C19.0277 25.3991 19.1584 24.9144 19.3055 24.4406C19.4961 23.8252 19.9155 23.4386 20.5309 23.2643C20.8032 23.1826 21.0755 23.1336 21.3587 23.1772C21.4022 23.1826 21.4458 23.2044 21.522 23.2262C21.4839 23.2916 21.4621 23.3515 21.424 23.4005C21.0428 23.9233 20.874 24.5169 20.7759 25.1432C20.6942 25.6823 20.6779 26.2214 20.6942 26.766C20.6997 26.9784 20.6997 27.1908 20.7324 27.4032C20.7705 27.6755 20.7324 27.9478 20.7051 28.2092C20.667 28.525 20.5091 28.7701 20.264 28.9498C20.1224 29.0587 19.9699 29.1622 19.8174 29.2602C19.654 29.3637 19.5506 29.5053 19.5179 29.6959C19.4525 30.0336 19.3708 30.3549 19.2892 30.7306L19.2946 30.7361ZM20.8903 32.3916C20.4982 32.2936 20.1279 32.1411 19.7793 31.9287C19.6486 31.847 19.6486 31.8035 19.7739 31.5856C20.2586 31.749 20.7487 31.9178 21.2443 32.0867C21.228 32.3154 21.0918 32.4461 20.8903 32.3971V32.3916ZM27.638 26.4611C27.8558 26.7333 28.0846 27.0111 28.297 27.2834C28.3841 27.4032 28.4713 27.5176 28.5475 27.6537C28.5747 27.7136 28.5965 27.8171 28.5638 27.8498C28.5203 27.8988 28.4222 27.9532 28.3569 27.9369C27.9974 27.8661 27.6489 27.7408 27.4692 27.3869C27.3984 27.2453 27.3167 27.169 27.137 27.2126C27.0988 27.218 27.0389 27.1963 27.0063 27.1745C26.8973 27.0873 26.7939 26.9893 26.6904 26.9022C26.6196 26.8368 26.6032 26.7715 26.6523 26.6898C26.7231 26.57 26.8047 26.4556 26.8592 26.3304C26.9845 26.0363 27.1261 25.7476 27.2023 25.4427C27.3439 24.9199 27.4474 24.3916 27.5672 23.8307C27.8123 23.7653 28.0791 23.6891 28.395 23.602C28.3787 23.7218 28.3896 23.8089 28.3678 23.8906C28.1826 24.4406 27.992 24.9907 27.8068 25.5461C27.736 25.7531 27.6598 25.9655 27.589 26.1724C27.5509 26.2813 27.5618 26.3794 27.6326 26.4665L27.638 26.4611ZM28.4604 25.7476C28.6128 25.2357 28.7762 24.7238 28.9396 24.1738C29.0104 24.2337 29.0594 24.2609 29.0921 24.299C29.2609 24.4842 29.4352 24.6748 29.5986 24.8654C29.7511 25.0397 29.7021 25.4263 29.5169 25.5461C29.3753 25.6496 28.6945 25.7803 28.4604 25.7422V25.7476ZM26.4889 26.0145C26.0695 26.0853 25.6502 26.1833 25.2417 26.2705C24.7788 26.3739 24.6971 26.3304 24.6372 25.8511C24.6154 25.6986 24.5991 25.5407 24.5773 25.3882C24.5719 25.3882 24.561 25.3882 24.5555 25.3828C24.6372 24.8327 24.7189 24.2827 24.806 23.7272C24.8333 23.5584 24.8714 23.3896 24.9258 23.2208C24.9694 23.0574 25.0075 23.0356 25.1764 23.0574C25.77 23.1282 26.3691 23.2099 26.9572 23.2916C27.0171 23.297 27.0662 23.3297 27.1206 23.3406C27.2187 23.3787 27.2513 23.4386 27.2459 23.5475C27.1751 24.2664 27.0171 24.9743 26.8483 25.6714C26.7884 25.8783 26.6958 25.9709 26.4943 26.009L26.4889 26.0145ZM27.6217 22.992C27.0171 22.8069 26.3963 22.6816 25.8299 22.3821C25.7264 22.3331 25.5957 22.2841 25.6012 22.1534C25.6066 22.0118 25.7645 21.9845 25.868 21.9791C26.124 21.9519 26.3908 21.9519 26.6523 21.9519C26.7013 21.9519 26.7612 21.99 26.8047 22.0172C27.1642 22.2677 27.4528 22.589 27.7306 22.9594C27.6652 22.9866 27.6326 23.0029 27.6217 22.9975V22.992ZM26.0695 21.1404C25.77 21.2929 25.4759 21.4508 25.1655 21.5979C25.013 21.6687 24.8442 21.7231 24.6753 21.7613C24.4466 21.8103 24.256 21.7177 24.1035 21.5543C24.0055 21.4508 24.0055 21.3637 24.1089 21.282C24.354 21.0914 24.6372 20.9444 24.9476 21.037C25.2472 21.135 25.4977 21.0751 25.7428 20.9171C25.7863 20.8899 25.8245 20.8681 25.868 20.8355C26.1185 20.6666 26.1567 20.6721 26.3092 20.9988C26.2275 21.0478 26.1567 21.1023 26.075 21.1404H26.0695ZM24.6644 28.8518C24.8605 28.6013 24.9966 28.5741 25.269 28.7483C25.3071 28.7701 25.3343 28.7973 25.367 28.8191C25.3724 28.8246 25.3833 28.8464 25.3942 28.8845C25.0783 29.2875 24.5664 29.4508 24.1961 29.8103C24.0872 29.6142 24.0926 29.5325 24.2179 29.3909C24.3649 29.2167 24.5174 29.0315 24.6644 28.8464V28.8518ZM23.9728 29.3528C23.8639 29.4999 23.7223 29.6088 23.6079 29.7504C23.3084 30.1098 23.3519 30.4474 23.7549 30.698C23.9292 30.8069 24.0763 30.9267 24.1525 31.1227C24.1743 31.1717 24.1743 31.2316 24.1797 31.2916C23.8856 31.2752 23.6188 31.2698 23.3628 31.2643C22.7964 31.2425 22.2736 31.3896 21.7889 31.6891C21.729 31.7272 21.6473 31.749 21.582 31.7381C21.1626 31.6782 20.7596 31.5856 20.3838 31.395C20.2422 31.3242 20.1061 31.2643 19.9699 31.199C19.9971 30.9485 20.2041 30.5455 20.3893 30.393C20.7051 30.1207 21.0591 29.9301 21.4894 29.8811C21.7399 29.8538 21.9795 29.7504 22.2246 29.6687C22.8346 29.4617 23.4173 29.2003 23.9728 28.8845C24 28.8681 24.0327 28.8627 24.0708 28.8572C24.0872 28.8572 24.098 28.8627 24.1362 28.8627C24.207 29.0696 24.0763 29.2167 23.9673 29.3637L23.9728 29.3528ZM22.9271 33.9818C22.7311 34.0853 22.3662 33.9764 22.2899 33.7694C22.2682 33.7204 22.2845 33.6278 22.3117 33.5843C22.388 33.4862 22.4642 33.3937 22.5623 33.3174C22.7365 33.1867 22.938 33.0832 23.1722 33.0451C23.3901 33.3991 23.243 33.8184 22.9271 33.9764V33.9818ZM26.8647 35.7027C26.6577 35.8443 26.1022 35.7681 25.7101 35.5611C25.3289 35.3542 24.9966 34.9131 24.9912 34.5863C25.2907 34.6081 25.5794 34.668 25.819 34.8368C26.0913 35.0274 26.3309 35.2398 26.5924 35.4468C26.6904 35.5284 26.7775 35.6156 26.8647 35.7027ZM28.7381 34.1016C28.6891 34.0962 28.6292 34.0853 28.5747 34.0744C28.2861 33.9873 28.0029 33.9274 27.6979 33.9328C27.3058 33.9491 26.9246 33.9764 26.5379 33.96C26.2275 33.9437 25.9116 33.9655 25.6121 33.8511C25.3343 33.7476 25.111 33.5734 24.9422 33.3283C24.7679 33.0724 24.7951 32.7892 24.8932 32.5223C24.964 32.2936 24.9531 32.2228 24.7189 32.1683C24.4902 32.1193 24.2505 32.0703 24.0109 32.0649C23.5861 32.0485 23.1559 32.0267 22.742 32.1629C22.3607 32.2827 22.0068 32.457 21.7726 32.8001C21.4131 33.3392 21.3968 33.9001 21.6201 34.4992C21.6364 34.5482 21.6473 34.6026 21.6636 34.6462C21.6473 34.6626 21.6364 34.668 21.6201 34.6843C21.5602 34.6244 21.4894 34.5809 21.4349 34.5155C21.1027 34.0962 21.0591 33.6061 21.1681 33.1105C21.2171 32.8763 21.3314 32.6476 21.4458 32.4352C21.68 32.0104 22.1048 31.8253 22.5241 31.6619C23.0034 31.4767 23.4935 31.4168 24 31.5203C24.2451 31.5693 24.4793 31.6292 24.7189 31.6673C25.1219 31.7272 25.5195 31.7109 25.917 31.6074C25.9552 31.602 25.9987 31.5856 26.0369 31.5693C26.3037 31.4713 26.4943 31.553 26.674 31.7762C26.881 32.0213 27.1424 32.2119 27.382 32.4297C27.4256 32.4733 27.4692 32.5169 27.5127 32.555C27.5073 32.5713 27.491 32.5931 27.4855 32.604C27.3984 32.5986 27.3112 32.5877 27.1969 32.5768C27.2241 32.6421 27.235 32.6857 27.2568 32.7238C27.5127 33.1268 27.9049 33.3719 28.3242 33.5788C28.395 33.6169 28.4712 33.6551 28.542 33.6823C28.7762 33.7912 28.7871 33.8076 28.7327 34.1016H28.7381ZM31.3304 33.4754C31.1344 33.8892 30.8185 34.1942 30.4536 34.4665C30.4373 34.4828 30.4101 34.4828 30.3338 34.4937C30.4863 34.1397 30.6279 33.8348 30.7695 33.5244C30.764 33.5189 30.7477 33.5026 30.7423 33.4971C30.6116 33.5788 30.4754 33.666 30.3393 33.7313C30.1977 33.7967 30.0452 33.8566 29.8763 33.8838C30.0942 33.5516 30.2303 33.2031 30.3011 32.8273C30.0887 32.9144 29.8981 33.0397 29.6912 33.0778C29.3753 33.1377 29.0431 33.1377 28.7163 33.1595C28.7109 33.1377 28.7 33.1214 28.6891 33.0996C28.7327 33.0615 28.7708 33.0125 28.8198 32.9907C29.0485 32.8818 29.2827 32.7783 29.5169 32.6748C29.5605 32.653 29.5986 32.6312 29.6912 32.5768C29.4733 32.5496 29.2991 32.5332 29.1411 32.5114C28.9777 32.4951 28.8198 32.4733 28.651 32.4134C28.8634 32.3154 29.0867 32.2391 29.2827 32.1248C29.4788 32.005 29.6476 31.8579 29.8763 31.7C29.7892 31.6782 29.7456 31.6619 29.7075 31.6619C29.054 31.7109 28.4059 31.6401 27.7796 31.4495C27.6925 31.4223 27.6108 31.3678 27.5236 31.3024C28.1554 31.297 28.7653 31.2208 29.3481 30.9702C29.0267 30.9757 28.7109 30.9648 28.395 30.8722C28.0955 30.7851 27.7905 30.6871 27.4964 30.5727V30.5128C27.5563 30.5073 27.6053 30.4856 27.6652 30.491C28.2262 30.54 28.7599 30.4529 29.2991 30.3222C29.5659 30.2568 29.8273 30.1969 30.0833 30.1098C30.6116 29.9246 30.8403 30.4093 30.7913 30.7579C30.7477 31.0901 30.7096 31.4277 30.666 31.7599C30.6388 31.9723 30.7259 32.1248 30.9002 32.2391C31.118 32.3644 31.2433 32.5713 31.3413 32.7892C31.4503 33.007 31.4448 33.2466 31.3359 33.4754H31.3304ZM31.1997 30.589C31.2596 30.3603 31.3087 30.1316 31.3631 29.8974C31.5537 29.892 31.7062 30.0063 31.7062 30.2133C31.7062 30.3222 31.6899 30.4474 31.6572 30.5509C31.5592 30.8069 31.4503 31.0628 31.3359 31.3242C31.3141 31.3732 31.2651 31.4114 31.1943 31.4876C31.1289 31.1554 31.1235 30.8777 31.1997 30.589ZM34.1896 33.0125C33.9446 33.5135 33.5416 33.8293 33.0351 34.0363C32.9153 34.0853 32.79 34.1234 32.6593 34.167C32.5613 34.4665 32.4687 34.7715 32.3652 35.0873C32.0983 35.0165 31.8859 34.9022 31.7171 34.7225C31.5755 34.5754 31.5755 34.3685 31.7389 34.2105C31.9241 34.0254 32.1201 33.8348 32.3434 33.7095C32.8118 33.4427 33.3074 33.2248 33.7921 32.9798C33.9337 32.9144 34.0644 32.8491 34.206 32.7728C34.2713 32.8763 34.2278 32.9417 34.1896 33.0179V33.0125ZM33.5797 28.781C33.8247 29.1241 33.8738 29.5543 34.1188 29.8974C34.2169 29.8375 34.2877 29.7939 34.3639 29.7449C34.451 29.6796 34.5327 29.685 34.609 29.7504C34.6743 29.8157 34.658 29.8811 34.609 29.9464C34.4565 30.1643 34.5491 30.3658 34.8432 30.3821C34.9684 30.3875 35.0392 30.4474 35.0882 30.5564C35.1754 30.8014 35.2734 31.041 35.366 31.297C35.317 31.3188 35.2571 31.346 35.1917 31.3787C35.2081 31.4876 35.2135 31.6074 35.2298 31.7163C35.1427 31.798 35.0773 31.7381 35.0174 31.6782C34.805 31.4713 34.5818 31.2752 34.3857 31.0628C34.2604 30.9321 34.1679 30.7851 34.0426 30.6217C34.0807 30.5727 34.1079 30.54 34.1297 30.5019C34.2713 30.3058 34.2332 30.1697 34.0045 30.0662C33.8738 30.0063 33.7757 29.9246 33.7322 29.7722C33.6886 29.5815 33.6015 29.4073 33.5416 29.2112C33.498 29.0805 33.4435 28.9226 33.5906 28.7701L33.5797 28.781ZM32.9969 29.2439C33.1603 29.3256 33.2093 29.4508 33.2257 29.6578C33.144 29.6197 33.1004 29.5979 33.0569 29.5707C32.9316 29.4726 32.8063 29.4672 32.6756 29.5489C32.5885 29.5979 32.5667 29.6687 32.6266 29.7558C32.7137 29.8974 32.79 30.0444 32.8935 30.1697C33.144 30.4801 33.3782 30.796 33.4599 31.199C33.4871 31.3515 33.5034 31.5094 33.5089 31.6619C33.5143 31.8797 33.6124 32.0376 33.8084 32.1248C33.8356 32.1411 33.8574 32.1629 33.9119 32.2065C33.8247 32.3263 33.7431 32.4515 33.645 32.5604C33.5252 32.702 33.4108 32.8327 33.2801 32.9634C33.0296 33.2085 32.7301 33.2139 32.436 33.0887C32.1582 32.9689 31.9132 32.7075 31.9459 32.3589C31.9676 32.1466 31.984 31.9342 32.0058 31.7218C32.0548 31.2153 32.1038 30.7088 32.1528 30.2024C32.1582 30.1207 32.1528 30.039 32.1365 29.9573C32.0929 29.5924 31.9023 29.3964 31.5319 29.4127C31.2542 29.4291 30.9819 29.4944 30.7096 29.5543C30.5353 29.5924 30.3665 29.6578 30.1868 29.6959C30.1051 29.7122 30.0016 29.6959 29.9308 29.6523C29.653 29.489 29.3862 29.3093 29.1139 29.1459C28.798 28.9553 28.4767 28.781 28.1499 28.6013C28.1336 28.5958 28.1064 28.6013 28.09 28.5958C28.139 28.8082 28.2371 29.0152 28.2425 29.2221C28.248 29.4291 28.1608 29.636 28.1118 29.8593C28.1281 29.8811 28.1717 29.9083 28.1935 29.9464C28.2316 29.9954 28.2915 30.088 28.2752 30.0989C28.2262 30.1479 28.1499 30.2078 28.0846 30.2187C27.9103 30.2351 27.7197 30.2405 27.54 30.2133C27.0934 30.1425 26.6523 30.039 26.2111 29.9573C26.0042 29.9192 25.7972 29.8865 25.5739 29.8702C25.9334 30.2677 26.3309 30.6217 26.5597 31.1064C26.5379 31.1282 26.5161 31.1554 26.4998 31.1554C26.1349 31.1554 25.7918 31.297 25.4487 31.3896C25.318 31.4277 25.2308 31.4059 25.1546 31.2916C25.0511 31.1282 24.9585 30.9702 24.8551 30.8123C24.6808 30.5346 24.7843 30.2895 24.964 30.0717C25.0511 29.9682 25.1382 29.8756 25.2526 29.7994C25.6121 29.5543 25.8462 29.2112 26.1076 28.879C26.1676 28.7973 26.2166 28.7102 26.2819 28.6449C26.3255 28.5958 26.4017 28.5577 26.4671 28.5414C27.0988 28.4379 27.7306 28.3453 28.3678 28.2528C29.2991 28.122 30.1759 27.7899 31.0418 27.4359C31.1507 27.3923 31.2161 27.4086 31.2923 27.5012C31.4339 27.6755 31.5701 27.8443 31.728 28.0077C31.8315 28.1166 31.8315 28.2201 31.7661 28.3399C31.6463 28.5523 31.6572 28.5577 31.8696 28.6612C32.2454 28.8681 32.6266 29.0642 33.0078 29.2493L32.9969 29.2439ZM35.1046 23.6728C35.1863 23.4386 35.3224 23.2698 35.5729 23.1717C35.8289 23.0683 36.0794 22.9376 36.3299 22.8178C36.4425 22.7669 36.5732 22.7687 36.7221 22.8232C36.575 23.0084 36.4552 23.1826 36.3082 23.3351C36.123 23.5312 35.9324 23.7272 35.72 23.8852C35.6165 23.9668 35.464 23.9941 35.3333 24.005C35.1264 24.005 35.0392 23.8579 35.1046 23.6673V23.6728ZM30.0125 16.3099C30.1813 15.3896 30.5843 14.589 31.4503 14.1207C31.5483 14.0717 31.6463 14.039 31.7443 13.9954C31.9077 13.9355 32.0602 13.9192 32.2236 13.9954C32.3107 14.0336 32.4142 14.039 32.5122 14.0771C32.5939 14.1043 32.6647 14.1152 32.7464 14.0717C32.8717 13.99 32.9752 14.0281 33.0841 14.1098C33.2529 14.235 33.4435 14.344 33.6124 14.4692C33.7158 14.54 33.803 14.6217 33.8847 14.7197C34.0045 14.8504 33.9555 14.9648 33.7866 15.0138C33.7049 15.0356 33.6232 15.041 33.5416 15.0628C33.5034 15.0683 33.4816 15.1009 33.4163 15.1445C33.4871 15.1608 33.5252 15.1663 33.5688 15.1717C33.6069 15.1772 33.6505 15.1772 33.6723 15.1772C33.7322 15.2752 33.7703 15.3732 33.8411 15.4223C33.9173 15.4658 34.0263 15.444 34.1188 15.4604C34.1679 15.4658 34.2278 15.4876 34.2713 15.5203C34.3094 15.5475 34.3367 15.5911 34.3585 15.6401C34.5654 16.1193 34.9412 16.457 35.3115 16.7892C35.3333 16.811 35.3551 16.8327 35.3769 16.86C35.3823 16.8763 35.3823 16.8872 35.3932 16.909C35.3714 17.007 35.2897 16.9961 35.2189 16.9961C35.012 16.9798 34.8159 16.9961 34.6144 17.0724C34.5491 17.0996 34.451 17.0778 34.3802 17.056C34.0154 16.9471 33.645 16.8218 33.2801 16.702C33.1331 16.6585 32.9806 16.6203 32.8336 16.5713C32.3434 16.3862 32.1855 15.9832 32.4197 15.4985C32.4578 15.4168 32.5014 15.3351 32.5395 15.2534C32.5395 15.248 32.534 15.2371 32.5177 15.2099C32.289 15.3841 32.1201 15.5856 32.0929 15.8852C32.0548 16.2609 32.1746 16.5986 32.3434 16.9199C32.5068 17.2194 32.7083 17.508 32.8336 17.8293C33.0242 18.3086 33.1712 18.8041 33.3346 19.2943C33.3782 19.4195 33.4108 19.5448 33.4381 19.6755C33.6015 20.2854 33.5361 20.8899 33.3891 21.4835C33.3183 21.783 33.2148 22.0771 33.1004 22.3712C33.0024 22.6163 32.9697 22.6217 32.7029 22.5564C32.4469 22.491 32.1964 22.4148 31.9404 22.3658C31.7335 22.3222 31.5211 22.295 31.3141 22.3875C31.4611 22.5073 31.63 22.54 31.8043 22.5836C32.1474 22.6544 32.4959 22.7306 32.8172 22.894C32.9425 22.9594 33.0242 23.0465 33.0623 23.1881C33.1059 23.3732 33.1494 23.553 33.2093 23.7327C33.2529 23.8579 33.2093 23.9287 33.0895 23.9505C32.8771 23.9941 32.6538 24.0376 32.436 24.0594C32.1909 24.0812 31.9458 24.0649 31.7008 24.0649C31.6953 24.0812 31.6844 24.103 31.679 24.1139C31.7226 24.152 31.7661 24.1956 31.8206 24.2174C32.2454 24.3698 32.6756 24.5114 33.1004 24.6639C33.1494 24.6803 33.1984 24.7238 33.2311 24.7619C33.34 24.8872 33.4762 24.9525 33.645 24.9525C34.1352 24.958 34.6308 24.9689 35.1209 24.8818C35.464 24.8164 35.818 24.7837 36.1775 24.8382C36.3735 24.8654 36.5151 24.958 36.6186 25.1159C36.6785 25.2139 36.7438 25.312 36.7874 25.4154C36.8038 25.4427 36.7874 25.5026 36.7656 25.5244C36.7438 25.5461 36.6839 25.5516 36.6567 25.5407C36.5696 25.4971 36.4824 25.4427 36.4007 25.3937C36.2265 25.2902 36.0576 25.2902 35.8616 25.3773C35.4477 25.5679 35.0392 25.7422 34.6199 25.9219C34.206 26.0962 33.7921 26.1506 33.34 26.1125C32.7791 26.069 32.229 26.0036 31.6953 25.8239C31.2705 25.6823 30.8784 25.4645 30.6007 25.0941C30.2086 24.5877 29.8219 24.0703 29.4407 23.5584C29.2119 23.248 29.1466 22.9103 29.2446 22.5291C29.3916 21.9573 29.4134 21.3583 29.4951 20.7701C29.5768 20.1656 29.6803 19.5666 29.762 18.9675C29.8001 18.6898 29.8055 18.4066 29.8328 18.1289C29.8763 17.4971 29.8981 16.8872 30.007 16.2936L30.0125 16.3099ZM29.909 15.6945C29.9689 15.7653 29.9254 15.847 29.8818 15.9233C29.4134 16.6748 29.2337 17.4971 29.2936 18.3685C29.3154 18.7279 29.3426 19.0873 29.3426 19.4468C29.3481 19.975 29.054 20.3235 28.5911 20.5359C28.4604 20.5958 28.3133 20.6231 28.1663 20.6449C28.0682 20.6612 28.0138 20.6013 28.0356 20.4978C28.1173 20.122 28.2044 19.7572 28.5257 19.5067C28.6564 19.4032 28.6891 19.2943 28.6673 19.1418C28.6401 18.9566 28.6183 18.766 28.5965 18.5809C28.5584 18.3031 28.6237 18.0363 28.7054 17.7803C28.7762 17.5298 28.9015 17.2956 28.9995 17.0506C29.0159 17.0233 29.0213 16.9907 29.0376 16.9634C28.7926 17.0451 28.6346 17.2521 28.3623 17.2956C28.3678 17.2357 28.3678 17.1922 28.3841 17.1649C28.5911 16.751 28.847 16.3644 29.1683 16.0431C29.3154 15.9015 29.4897 15.7926 29.6585 15.6837C29.7402 15.6237 29.8328 15.6074 29.909 15.7V15.6945ZM29.3807 13.9355C29.3807 13.9355 29.408 13.941 29.4461 13.9519C29.4243 13.9954 29.408 14.039 29.3862 14.0717C29.201 14.2568 29.0649 14.4638 28.9505 14.6979C28.9124 14.7851 28.8525 14.8831 28.7817 14.9321C28.2915 15.2643 28.0192 15.749 27.8558 16.2936C27.7251 16.751 27.6707 17.2248 27.5563 17.6877C27.5073 17.8783 27.4093 18.069 27.3003 18.2378C27.2132 18.3794 27.0444 18.4338 26.8211 18.412C26.9246 18.6462 27.0716 18.7933 27.235 18.9185C27.3875 19.0438 27.5781 19.1255 27.7578 19.2289C27.6489 19.4577 27.54 19.6973 27.4147 19.9641C27.0498 19.4794 26.7013 19.0165 26.38 18.5809C26.5978 18.2596 26.7993 17.9709 26.9899 17.6714C27.2404 17.2739 27.3711 16.8327 27.3875 16.3644C27.3929 16.1357 27.4583 15.9287 27.5563 15.7272C27.9539 14.9212 28.5802 14.3331 29.3862 13.941L29.3807 13.9355ZM27.186 12.879C27.3929 12.879 27.4202 12.9171 27.3711 13.1132C27.3439 13.233 27.3112 13.3256 27.5018 13.3637C27.5236 13.2221 27.54 13.086 27.5618 12.9444C28.041 12.8627 28.1281 12.9444 28.0029 13.3637C27.9375 13.5979 27.8286 13.8212 27.7034 14.0336C27.6162 14.1969 27.5345 14.186 27.382 14.0826C27.1315 13.9083 27.028 13.636 26.9355 13.3637C26.8701 13.1894 26.8374 12.9988 26.7721 12.8191C26.7285 12.6884 26.7666 12.6013 26.8538 12.5087C27.1424 12.2092 27.7197 12.231 27.992 12.5523C27.8504 12.7211 27.6326 12.7592 27.4256 12.6721C27.3221 12.6285 27.2132 12.6013 27.1043 12.6013C27.0389 12.6013 26.9736 12.6666 26.9082 12.7048C26.9736 12.8463 27.0716 12.879 27.1969 12.879H27.186ZM27.6652 11.218C27.7469 11.3814 27.8068 11.5502 27.8613 11.7191C27.8994 11.8389 27.9266 11.9641 27.9648 12.1166C27.7469 12.1003 27.5835 12.0948 27.4202 12.0785C27.235 12.0567 27.1533 11.9478 27.186 11.7681C27.2132 11.5611 27.2894 11.3705 27.4147 11.2017C27.5182 11.0601 27.5835 11.0547 27.6652 11.218ZM25.367 11.2779C25.367 11.2779 25.3506 11.2398 25.3452 11.218C25.6175 11.0982 25.8898 10.9839 26.1893 10.8532C26.0205 11.1636 25.6829 11.3324 25.367 11.2779ZM26.4344 10.5155C26.1676 10.6626 25.9225 10.8368 25.6121 10.8913C25.3833 10.9294 25.1873 10.864 25.0021 10.7442C24.964 10.717 24.9422 10.6626 24.8932 10.5809C25.062 10.5972 25.1927 10.6026 25.318 10.619C25.5685 10.6571 25.7863 10.6135 25.9987 10.4774C26.2492 10.3304 26.4998 10.1833 26.7394 10.0417C26.9246 9.93825 27.1152 9.92191 27.3112 9.99271C27.3494 10.009 27.3766 10.0417 27.4202 10.0798C27.3984 10.118 27.3766 10.1452 27.3602 10.1452C27.0063 10.1615 26.7231 10.3521 26.429 10.5101L26.4344 10.5155ZM24.6318 14.2841C24.9204 14.491 25.1818 14.7252 25.4487 14.9594C25.6992 15.1772 25.9279 15.4168 26.2492 15.5203C26.4126 15.5693 26.5869 15.5856 26.7993 15.6237C26.6032 15.7436 26.4181 15.7926 26.2329 15.7762C26.0423 15.7708 25.8571 15.6945 25.6611 15.6455C25.8245 15.9342 26.4344 16.1302 27.137 16.103C27.137 16.1792 27.1587 16.2664 27.1315 16.3317C27.0607 16.5005 26.979 16.6748 26.8755 16.8327C26.7013 17.0887 26.4508 17.1649 26.1403 17.0887C24.9803 16.8164 24.207 16.0812 23.695 15.0465C23.646 14.943 23.6133 14.8341 23.597 14.7143C23.5752 14.5509 23.5317 14.4148 23.3846 14.3222C23.3465 14.3004 23.3356 14.2514 23.2866 14.1915C23.7713 14.0009 24.2179 13.9954 24.6318 14.2895V14.2841ZM21.936 13.4617C22.1102 13.7068 22.2791 13.9301 22.4479 14.1697C23.5643 15.7218 24.6808 17.263 25.7972 18.815C26.5924 19.9151 27.382 21.0206 28.1772 22.1207C29.0159 23.2807 29.8654 24.4352 30.715 25.5897C31.2433 26.3249 31.7825 27.0547 32.2998 27.7953C32.3815 27.9151 32.4632 28.024 32.6212 28.0295C32.7301 28.0349 32.7682 28.1275 32.7737 28.2201C32.8009 28.4379 32.8227 28.6557 32.8608 28.9335C32.5667 28.7919 32.3107 28.6666 32.033 28.5359C32.0602 28.4651 32.0766 28.4052 32.1038 28.3617C32.1909 28.2364 32.1746 28.1275 32.082 28.0022C31.5102 27.2071 30.9438 26.4066 30.3719 25.6115C29.6095 24.5387 28.8361 23.4713 28.0737 22.3984C27.4474 21.5325 26.8265 20.6666 26.2002 19.7899C24.8496 17.9001 23.4935 16.0213 22.1429 14.1316C22.0558 14.0118 21.9686 13.8974 21.876 13.7776C21.7944 13.6578 21.8052 13.5652 21.9251 13.4617H21.936ZM22.9707 20.0621C22.4098 20.0186 21.8978 19.8498 21.375 19.6428C20.8086 19.425 20.2531 19.4522 19.7139 19.7626C19.6922 19.779 19.6704 19.779 19.6431 19.7899C19.5397 19.6809 19.5778 19.5829 19.6595 19.4903C19.8447 19.2779 20.0734 19.1472 20.3348 19.0655C20.9938 18.8695 21.6582 18.668 22.3117 18.4611C22.4424 18.4175 22.5786 18.363 22.7038 18.314C22.7529 18.2922 22.791 18.2541 22.8781 18.1942C21.9795 18.0417 21.1735 18.1506 20.3675 18.4665C20.1496 18.0907 20.1823 17.9056 20.5145 17.666C20.8086 17.4536 21.1463 17.3882 21.4894 17.3773C21.9741 17.3773 22.4588 17.4263 22.9271 17.5625C23.3519 17.6877 23.7713 17.8184 24.1961 17.9546C24.2124 17.96 24.2179 17.9764 24.2396 17.9982C24.1198 18.1397 23.9401 18.1452 23.7985 18.2323C23.6569 18.3195 23.5044 18.3848 23.3574 18.4611C23.2049 18.5427 23.047 18.6135 22.8945 18.6898C22.7474 18.7606 22.6004 18.8314 22.4479 18.8967C22.2954 18.9566 22.1266 19.0056 21.9686 19.0873C22.0993 19.1527 22.2246 19.0928 22.3499 19.071C22.4915 19.0492 22.6276 19.0329 22.7692 19.022C22.9108 19.0002 23.047 18.9839 23.1831 18.9566C23.3138 18.9348 23.45 18.8967 23.597 18.8695C23.5208 19.1037 23.3792 19.2017 22.7801 19.4522C22.8182 19.474 22.8454 19.4958 22.8672 19.4958C23.3138 19.4794 23.7549 19.4577 24.1525 19.2071C24.256 19.1418 24.3649 19.0819 24.4738 19.0329C24.5119 19.0165 24.5827 19.0165 24.6045 19.0383C24.6263 19.0655 24.6318 19.1363 24.6209 19.169C24.5174 19.4195 24.354 19.6319 24.1362 19.779C23.7822 20.0131 23.3955 20.0948 22.9653 20.0676L22.9707 20.0621ZM22.742 23.3841C23.1341 23.199 23.5425 23.1554 23.9619 23.0846C24.1362 23.0574 24.1743 23.1009 24.1906 23.2807C24.2124 23.5911 24.2342 23.9069 24.2614 24.2119C24.3377 25.0179 24.0327 25.7095 23.6079 26.363C23.3356 26.7769 23.0361 27.1418 22.6004 27.3977C22.4315 27.5012 22.2845 27.6319 22.132 27.7572C22.0721 27.8062 22.0231 27.877 21.936 27.9696C22.2736 28.1438 22.6058 28.1166 22.9054 28.1602C22.9544 28.2691 22.9108 28.329 22.8237 28.3671C22.6494 28.4325 22.4697 28.5087 22.2954 28.5632C21.985 28.6721 21.6691 28.7592 21.3696 28.8845C20.765 29.135 20.3239 29.5598 20.008 30.1207C19.9318 30.2623 19.8555 30.393 19.7793 30.5346C19.7357 30.6054 19.6758 30.6871 19.5887 30.638C19.5451 30.6108 19.507 30.5128 19.507 30.4529C19.5451 29.9083 19.7956 29.489 20.2422 29.184C20.7324 28.8464 21.0482 28.3998 21.1027 27.7899C21.1898 26.7769 21.3314 25.764 21.5711 24.7674C21.7344 24.1139 22.1375 23.6673 22.742 23.3787V23.3841ZM17.541 26.7551C17.7588 26.4447 17.8405 26.0962 17.8514 25.7313C17.8677 25.0832 18.0474 24.4842 18.3361 23.9178C18.4777 23.6401 18.6302 23.3732 18.799 23.0737C18.7337 23.1118 18.6901 23.1227 18.652 23.1554C18.4614 23.3242 18.2707 23.4931 18.0801 23.6564C18.0366 23.6945 17.9766 23.7218 17.895 23.7653C17.8895 23.7 17.8786 23.6619 17.8895 23.6401C18.249 22.9594 18.7173 22.3766 19.4199 22.0063C19.6105 21.9029 19.812 21.8593 20.0135 21.8756C20.667 21.9192 21.2062 22.2351 21.6582 22.6925C21.7181 22.7524 21.7617 22.8178 21.7072 22.9103C21.6582 23.0084 21.5874 23.0574 21.473 23.041C21.2007 23.0138 20.9339 22.992 20.667 22.9702C19.9481 22.9103 19.4689 23.2807 19.1094 23.8579C18.8371 24.299 18.6683 24.7783 18.5866 25.2847C18.4831 25.9001 18.189 26.4066 17.7207 26.815C17.6717 26.8586 17.6009 26.8858 17.5519 26.9185C17.5355 26.9022 17.5246 26.8804 17.5083 26.8695C17.5137 26.8314 17.5246 26.7987 17.5464 26.7606L17.541 26.7551Z" fill="white"/>
<path d="M27.6647 13.627C27.5339 13.4854 27.376 13.5181 27.1963 13.5562C27.327 13.834 27.4686 13.8557 27.6647 13.627Z" fill="white"/>
<path d="M52.4939 10.6808H55.7997V11.8136H56.8889V9.69512H56.1809V5.37109H52.8806V6.25333C52.8806 8.20295 52.5048 9.13964 51.8241 9.70602H51.4102V11.8245H52.4994V10.6863H52.4939V10.6808ZM53.9208 6.35135H55.0972V9.69512H53.0222C53.594 9.01439 53.899 7.97423 53.9208 6.35135Z" fill="white"/>
<path d="M61.7253 9.69512H59.1385V8.34999H60.9683V7.42964H59.1385V6.35135H61.6273V5.37109H58.0547V10.6808H61.7199V9.69512H61.7253Z" fill="white"/>
<path d="M64.0931 6.35135H66.2607V10.6808H67.339V5.37109H63.0039V10.6808H64.0931V6.35135Z" fill="white"/>
<path d="M69.8721 9.98957H72.0451L72.3446 10.6812H73.5155L71.1519 5.27344H70.7925L68.418 10.6812H69.5889L69.8775 9.98957H69.8721ZM70.9613 7.29931L71.6693 9.091H70.2533L70.9667 7.29931H70.9613Z" fill="white"/>
<path d="M75.6609 8.80591H76.5704C77.6869 8.80591 78.4874 8.10883 78.4874 7.08501C78.4874 6.06118 77.6923 5.375 76.5704 5.375H74.5771V10.6793H75.6664V8.80591H75.6609ZM75.6609 6.32803H76.5704C77.0769 6.32803 77.371 6.64389 77.371 7.08501C77.371 7.52612 77.0769 7.85832 76.5704 7.85832H75.6609V6.32803Z" fill="white"/>
<path d="M81.014 10.6808H82.1033V6.35135H83.8079V5.37109H79.3203V6.3568H81.0195V10.6863L81.014 10.6808Z" fill="white"/>
<path d="M84.9301 10.6812L85.2296 9.98957H87.4026L87.6967 10.6812H88.8676L86.4986 5.27344H86.1391L83.7646 10.6812H84.9247H84.9301ZM86.3189 7.29931L87.0269 9.091H85.6109L86.3243 7.29931H86.3189Z" fill="white"/>
<path d="M91.0139 7.84389L92.3536 9.52123H92.7076L94.0473 7.84389V10.6812H95.1366V5.27344H94.7826L92.5333 8.14886L90.2895 5.27344H89.9355V10.6812H91.0139V7.84389Z" fill="white"/>
<path d="M100.369 9.69512H97.7826V8.34999H99.6125V7.42964H97.7826V6.35135H100.271V5.37109H96.6934V10.6808H100.369V9.69512Z" fill="white"/>
<path d="M102.744 8.38811H105.097V10.6808H106.186V5.37109H105.097V7.40785H102.744V5.37109H101.655V10.6808H102.744V8.38811Z" fill="white"/>
<path d="M108.941 10.6808H110.031V6.35135H111.735V5.37109H107.242V6.3568H108.941V10.6863V10.6808Z" fill="white"/>
<path d="M56.1862 20.3347V15.0195H51.8457V20.3347H52.9349V16.0052H55.1025V20.3347H56.1917H56.1862Z" fill="white"/>
<path d="M58.8318 18.4622H59.7413C60.8578 18.4622 61.6583 17.7651 61.6583 16.7413C61.6583 15.7174 60.8632 15.0312 59.7413 15.0312H57.748V20.3355H58.8373V18.4622H58.8318ZM58.8318 15.9843H59.7413C60.2478 15.9843 60.5419 16.3001 60.5419 16.7413C60.5419 17.1824 60.2478 17.5146 59.7413 17.5146H58.8318V15.9843Z" fill="white"/>
<path d="M66.4617 19.349H63.8802V18.0039H65.7047V17.0781H63.8802V16.0052H66.3636V15.0195H62.791V20.3347H66.4562V19.349H66.4617Z" fill="white"/>
<path d="M68.4998 20.3347H71.8056V21.4675H72.8948V19.349H72.1868V15.0195H68.8865V15.8963C68.8865 17.8459 68.5107 18.7826 67.8299 19.349H67.416V21.4675H68.5052V20.3347H68.4998ZM69.9267 16.0052H71.103V19.349H69.0281C69.5999 18.6683 69.9049 17.6281 69.9267 16.0052Z" fill="white"/>
<path d="M75.1428 16.0052H77.3103V20.3347H78.3995V15.0195H74.0645V20.3347H75.1428V16.0052Z" fill="white"/>
<path d="M81.9509 15.0254H79.9521V20.3297H81.0414V18.4563H81.9509C83.0673 18.4563 83.8679 17.7592 83.8679 16.7354C83.8679 15.7116 83.0673 15.0254 81.9509 15.0254ZM81.9509 17.5142H81.0414V15.9839H81.9509C82.4573 15.9839 82.7514 16.2997 82.7514 16.7408C82.7569 17.1983 82.4573 17.5142 81.9509 17.5142Z" fill="white"/>
<path d="M86.0892 15.0258H85V20.4335H85.354L88.5127 17.0734V20.3355H89.6019V14.9277H89.2425L86.0892 18.2552V15.0203V15.0258Z" fill="white"/>
<path d="M94.6019 17.0563H92.2492V15.0195H91.1709V20.3347H92.2492V18.042H94.6019V20.3347H95.6911V15.0195H94.6019V17.0563Z" fill="white"/>
<path d="M98.3334 18.2548V15.0199H97.2441V20.4277H97.6036L100.762 17.0676V20.3296H101.852V14.9219H101.487L98.3334 18.2493V18.2548Z" fill="white"/>
<path d="M106.012 17.8032L103.763 14.9277H103.409V20.3355H104.498V17.4982L105.838 19.1755H106.192L107.532 17.4982V20.3355H108.61V14.9277H108.256L106.012 17.8032Z" fill="white"/>
<path d="M110.843 20.3355L111.137 19.6439H113.31L113.61 20.3355H114.781L112.412 14.9277H112.052L109.678 20.3355H110.838H110.843ZM112.226 16.9536L112.934 18.7453H111.519L112.232 16.9536H112.226Z" fill="white"/>
<path d="M116.441 20.3347H117.53V16.0052H119.235V15.0195H114.747V16.0052H116.446V20.3347H116.441Z" fill="white"/>
<path d="M123.967 19.349H121.38V18.0039H123.21V17.0781H121.38V16.0052H123.864V15.0195H120.291V20.3347H123.967V19.349Z" fill="white"/>
<path d="M128.461 20.3355H129.55V15.0312H126.097V16.017C126.097 18.3369 125.684 19.2573 124.834 19.3607V20.3846C126.179 20.2865 127.105 19.4315 127.132 16.017H128.461V20.3355Z" fill="white"/>
<path d="M135.226 18.5874C135.226 17.5581 134.431 16.8556 133.287 16.8556H132.198V15.0312H131.108V20.3355H133.281C134.42 20.3355 135.22 19.6439 135.22 18.5874H135.226ZM133.287 19.3716H132.198V17.7923H133.287C133.815 17.7923 134.115 18.1245 134.115 18.5874C134.115 19.0503 133.815 19.3716 133.287 19.3716Z" fill="white"/>
<path d="M139.032 20.4335C140.061 20.4335 140.922 19.9271 141.385 19.1102L140.562 18.5275C140.208 19.0938 139.707 19.426 139.043 19.426C138.052 19.426 137.333 18.7126 137.333 17.6942C137.333 16.6759 138.063 15.9352 139.043 15.9352C139.713 15.9352 140.214 16.2674 140.562 16.8338L141.385 16.2511C140.922 15.4342 140.061 14.9277 139.043 14.9277C137.458 14.9277 136.211 16.1204 136.211 17.6779C136.211 19.2354 137.453 20.4335 139.032 20.4335Z" fill="white"/>
<path d="M142.261 16.0052H143.96V20.3347H145.038V16.0052H146.743V15.0195H142.261V16.0052Z" fill="white"/>
<path d="M151.917 18.773C151.917 18.1195 151.557 17.6729 150.975 17.466C151.225 17.2209 151.372 16.8996 151.372 16.5129C151.372 15.6362 150.675 15.0371 149.689 15.0371H147.811V20.3414H150.174C151.203 20.3414 151.917 19.6933 151.917 18.7784V18.773ZM148.851 15.9575H149.602C150.049 15.9575 150.294 16.1916 150.294 16.562C150.294 16.9323 150.049 17.1719 149.602 17.1719H148.851V15.9575ZM148.851 19.4047V18.065H150.092C150.572 18.065 150.849 18.321 150.849 18.7349C150.849 19.1487 150.572 19.4047 150.092 19.4047H148.851Z" fill="white"/>
<path d="M154.951 14.9277L152.576 20.3355H153.747L154.047 19.6439H156.22L156.514 20.3355H157.685L155.316 14.9277H154.945H154.951ZM154.422 18.7507L155.13 16.959L155.838 18.7507H154.428H154.422Z" fill="white"/>
<path d="M56.4531 29.9917V24.584H56.0882L52.9349 27.9114V24.6766H51.8457V30.0843H52.2051L55.3639 26.7242V29.9863H56.4531V29.9917Z" fill="white"/>
<path d="M60.7715 24.682V30.0898H61.1255L64.2842 26.7297V29.9917H65.3734V24.584H65.014L61.8607 27.9114V24.6766H60.7715V24.682Z" fill="white"/>
<path d="M68.0207 27.6982H70.3734V29.991H71.4626V24.6758H70.3734V26.7125H68.0207V24.6758H66.9424V29.991H68.0207V27.6982Z" fill="white"/>
<path d="M77.5448 29.991V24.6758H76.4556V26.7125H74.1029V24.6758H73.0137V29.991H74.1029V27.6982H76.4556V29.991H77.5448Z" fill="white"/>
<path d="M84.4396 27.34C84.4396 25.7825 83.1706 24.5898 81.6076 24.5898C80.0446 24.5898 78.792 25.7825 78.792 27.34C78.792 28.8975 80.05 30.0902 81.6076 30.0902C83.1652 30.0902 84.4396 28.8975 84.4396 27.34ZM79.9139 27.34C79.9139 26.3162 80.6273 25.5919 81.6185 25.5919C82.6097 25.5919 83.3231 26.3107 83.3231 27.34C83.3231 28.3693 82.5879 29.0827 81.6185 29.0827C80.6491 29.0827 79.9139 28.3693 79.9139 27.34Z" fill="white"/>
<path d="M88.8458 27.1203C89.0963 26.8752 89.2434 26.5539 89.2434 26.1672C89.2434 25.2905 88.5463 24.6914 87.5605 24.6914H85.6816V30.0066H88.0507C89.08 30.0066 89.7989 29.3585 89.7989 28.4491C89.7934 27.7901 89.434 27.3327 88.8513 27.1257L88.8458 27.1203ZM86.7218 25.6118H87.4734C87.92 25.6118 88.1651 25.8459 88.1651 26.2163C88.1651 26.5866 87.92 26.8262 87.4734 26.8262H86.7218V25.6118ZM87.9636 29.059H86.7218V27.7193H87.9636C88.4428 27.7193 88.7206 27.9753 88.7206 28.3892C88.7206 28.803 88.4319 29.059 87.9636 29.059Z" fill="white"/>
<path d="M92.8218 24.584L90.4473 29.9917H91.6182L91.9123 29.3001H94.0852L94.3848 29.9917H95.5557L93.1866 24.584H92.8218ZM92.2935 28.407L93.0015 26.6153L93.7095 28.407H92.2989H92.2935Z" fill="white"/>
<path d="M100.936 24.6816H99.8463V29.0111H97.7005V24.6816H96.6113V29.9968H100.543V31.1296H101.633V29.0111H100.936V24.6816Z" fill="white"/>
<path d="M102.826 24.682V30.0898H103.18L106.339 26.7297V29.9917H107.428V24.584H107.069L103.915 27.9114V24.6766H102.826V24.682Z" fill="white"/>
<path d="M111.474 24.584C109.916 24.584 108.658 25.7766 108.658 27.3342C108.658 28.8917 109.916 30.0843 111.474 30.0843C113.031 30.0843 114.306 28.8917 114.306 27.3342C114.306 25.7766 113.037 24.584 111.474 24.584ZM111.479 29.0823C110.488 29.0823 109.775 28.3689 109.775 27.3396C109.775 26.3103 110.488 25.5915 111.479 25.5915C112.47 25.5915 113.184 26.3103 113.184 27.3396C113.184 28.3689 112.449 29.0823 111.479 29.0823Z" fill="white"/>
<path d="M120.063 29.991V24.6758H118.974V26.7125H116.632V24.6758H115.543V29.991H116.632V27.6982H118.974V29.991H120.063Z" fill="white"/>
<path d="M125.063 26.7184H122.721V24.6816H121.632V29.9968H122.721V27.7041H125.063V29.9968H126.152V24.6816H125.063V26.7184Z" fill="white"/>
<path d="M130.215 24.584C128.657 24.584 127.399 25.7766 127.399 27.3342C127.399 28.8917 128.657 30.0843 130.215 30.0843C131.773 30.0843 133.047 28.8917 133.047 27.3342C133.052 25.7766 131.784 24.584 130.215 24.584ZM130.22 29.0823C129.229 29.0823 128.516 28.3689 128.516 27.3396C128.516 26.3103 129.229 25.5915 130.22 25.5915C131.212 25.5915 131.925 26.3103 131.925 27.3396C131.925 28.3689 131.195 29.0823 130.22 29.0823Z" fill="white"/>
<path d="M134.287 29.991H135.376V25.6615H137.713V24.6758H134.287V29.991Z" fill="white"/>
<path d="M141.216 24.584C139.658 24.584 138.4 25.7766 138.4 27.3342C138.4 28.8917 139.658 30.0843 141.216 30.0843C142.774 30.0843 144.048 28.8917 144.048 27.3342C144.053 25.7766 142.784 24.584 141.216 24.584ZM141.232 29.0823C140.241 29.0823 139.528 28.3689 139.528 27.3396C139.528 26.3103 140.241 25.5915 141.232 25.5915C142.224 25.5915 142.937 26.3103 142.937 27.3396C142.937 28.3689 142.202 29.0823 141.232 29.0823Z" fill="white"/>
<path d="M150.071 24.6816H148.072V29.9968H149.161V28.1234H150.071C151.187 28.1234 151.988 27.4264 151.988 26.4025C151.983 25.3569 151.187 24.6816 150.071 24.6816ZM150.071 27.165H149.161V25.6347H150.071C150.577 25.6347 150.872 25.9505 150.872 26.3916C150.872 26.8545 150.577 27.165 150.071 27.165Z" fill="white"/>
<path d="M154.564 24.584L152.189 29.9917H153.36L153.654 29.3001H155.827L156.127 29.9917H157.298L154.929 24.584H154.564ZM154.03 28.407L154.738 26.6153L155.446 28.407H154.036H154.03Z" fill="white"/>
<path d="M161.328 27.186C161.639 26.9355 161.813 26.5815 161.813 26.1567C161.813 25.2473 161.012 24.5938 159.999 24.5938C159.144 24.5938 158.442 25.0621 158.082 25.7537L158.839 26.2929C159.139 25.8572 159.525 25.6012 159.994 25.6012C160.462 25.6012 160.745 25.8572 160.745 26.2275C160.745 26.5706 160.5 26.8375 160.059 26.8375H159.237V27.736H160.282C160.762 27.736 161.034 28.0138 161.034 28.3841C161.034 28.8415 160.609 29.0975 160.086 29.0975C159.564 29.0975 159.101 28.847 158.758 28.3242L157.995 28.8688C158.382 29.6094 159.128 30.0941 160.097 30.0941C161.219 30.0941 162.118 29.4242 162.118 28.4276C162.112 27.8613 161.824 27.4365 161.339 27.1914L161.328 27.186Z" fill="white"/>
<path d="M166.539 27.1203C166.79 26.8752 166.937 26.5539 166.937 26.1672C166.937 25.2905 166.24 24.6914 165.254 24.6914H163.375V30.0066H165.744C166.773 30.0066 167.492 29.3585 167.492 28.4491C167.487 27.7901 167.116 27.3327 166.545 27.1257L166.539 27.1203ZM164.415 25.6118H165.167C165.613 25.6118 165.858 25.8459 165.858 26.2163C165.858 26.5866 165.613 26.8262 165.167 26.8262H164.415V25.6118ZM165.651 29.059H164.41V27.7193H165.651C166.131 27.7193 166.408 27.9753 166.408 28.3892C166.408 28.803 166.131 29.059 165.651 29.059Z" fill="white"/>
<path d="M169.779 27.911V24.6762H168.701V30.0839H169.055L172.214 26.7238V29.9859H173.303V24.5781H172.944L169.785 27.9056L169.779 27.911Z" fill="white"/>
<path d="M174.361 25.6673H176.061V29.9968H177.15V25.6673H178.854V24.6816H174.367V25.6673H174.361Z" fill="white"/>
<path d="M180.994 27.911V24.6762H179.916V30.0839H180.27L183.429 26.7238V29.9859H184.518V24.5781H184.153L181 27.9056L180.994 27.911Z" fill="white"/>
<path d="M188.068 24.6812C186.87 24.6812 186.02 25.4164 186.02 26.5165C186.02 27.1918 186.352 27.7364 186.881 28.0522L185.617 29.991H186.832L187.91 28.3518C187.97 28.3572 188.013 28.3572 188.073 28.3572H188.858V29.991H189.947V24.6758H188.073L188.068 24.6812ZM188.863 27.3987H188.062C187.491 27.3987 187.137 27.0338 187.137 26.5165C187.137 25.9991 187.491 25.6397 188.062 25.6397H188.863V27.3933V27.3987Z" fill="white"/>
<path d="M51.8457 39.6472H52.9349V35.3177H55.2713V34.332H51.8457V39.6472Z" fill="white"/>
<path d="M58.7834 34.2383C57.2258 34.2383 55.9678 35.4309 55.9678 36.9885C55.9678 38.546 57.2258 39.7386 58.7834 39.7386C60.341 39.7386 61.6154 38.546 61.6154 36.9885C61.6154 35.4309 60.3464 34.2383 58.7834 34.2383ZM58.7888 38.7366C57.7977 38.7366 57.0842 38.0232 57.0842 36.9939C57.0842 35.9646 57.7977 35.2458 58.7888 35.2458C59.78 35.2458 60.4935 35.9646 60.4935 36.9939C60.4935 38.0232 59.7582 38.7366 58.7888 38.7366Z" fill="white"/>
<path d="M64.8444 34.3359H62.8457V39.6511H63.9349V37.7777H64.8444C65.9609 37.7777 66.7614 37.0807 66.7614 36.0568C66.7614 35.033 65.9609 34.3359 64.8444 34.3359ZM64.8444 36.8193H63.9349V35.289H64.8444C65.3509 35.289 65.645 35.6048 65.645 36.0459C65.6504 36.5088 65.3509 36.8193 64.8444 36.8193Z" fill="white"/>
<path d="M70.5363 34.2383C68.9787 34.2383 67.7207 35.4309 67.7207 36.9885C67.7207 38.546 68.9787 39.7386 70.5363 39.7386C72.0939 39.7386 73.3628 38.546 73.3628 36.9885C73.3628 35.4309 72.0939 34.2383 70.5363 34.2383ZM70.5418 38.7366C69.5506 38.7366 68.8371 38.0232 68.8371 36.9939C68.8371 35.9646 69.5506 35.2458 70.5418 35.2458C71.533 35.2458 72.2464 35.9646 72.2464 36.9939C72.2464 38.0232 71.5112 38.7366 70.5418 38.7366Z" fill="white"/>
<path d="M78.8354 34.3359H75.535V35.2127C75.535 37.1624 75.1593 38.099 74.4676 38.6654H74.0537V40.7839H75.1429V39.6511H78.4487V40.7839H79.5379V38.6654H78.8299V34.3359H78.8354ZM77.757 38.6654H75.6821C76.2648 37.9792 76.5589 36.9445 76.5861 35.3216H77.7625V38.6654H77.757Z" fill="white"/>
<path d="M82.7846 34.2383L80.4102 39.646H81.5811L81.8752 38.9544H84.0481L84.3477 39.646H85.5186L83.1495 34.2383H82.7846ZM82.2455 38.0613L82.9535 36.2696L83.6615 38.0613H82.2509H82.2455Z" fill="white"/>
<path d="M91.9392 37.1137L89.6899 34.2383H89.3359V39.646H90.4252V36.8087L91.7649 38.4861H92.1189L93.4586 36.8087V39.646H94.5369V34.2383H94.183L91.9392 37.1137Z" fill="white"/>
<path d="M98.6164 34.2383C97.0588 34.2383 95.8008 35.4309 95.8008 36.9885C95.8008 38.546 97.0588 39.7386 98.6164 39.7386C100.174 39.7386 101.448 38.546 101.448 36.9885C101.448 35.4309 100.179 34.2383 98.6164 34.2383ZM98.6218 38.7366C97.6307 38.7366 96.9172 38.0232 96.9172 36.9939C96.9172 35.9646 97.6307 35.2458 98.6218 35.2458C99.613 35.2458 100.326 35.9646 100.326 36.9939C100.326 38.0232 99.5912 38.7366 98.6218 38.7366Z" fill="white"/>
<path d="M105.287 35.2458C105.957 35.2458 106.458 35.578 106.807 36.1443L107.629 35.5616C107.166 34.7447 106.305 34.2383 105.287 34.2383C103.702 34.2383 102.455 35.4309 102.455 36.9885C102.455 38.546 103.702 39.7386 105.276 39.7386C106.305 39.7386 107.166 39.2322 107.629 38.4153L106.807 37.8326C106.453 38.3989 105.951 38.7311 105.287 38.7311C104.296 38.7311 103.577 38.0177 103.577 36.9993C103.577 35.981 104.307 35.2512 105.287 35.2512V35.2458Z" fill="white"/>
<path d="M113.222 34.3359H111.926L109.9 36.7975V34.3359H108.811V39.6511H109.9V36.8792L112.176 39.6511H113.483L111.185 36.8465L113.222 34.3414V34.3359Z" fill="white"/>
<path d="M117.721 36.7765C117.971 36.5315 118.118 36.2101 118.118 35.8235C118.118 34.9467 117.421 34.3477 116.436 34.3477H114.557V39.6628H116.926C117.955 39.6628 118.674 39.0148 118.674 38.1053C118.668 37.4464 118.309 36.9889 117.726 36.782L117.721 36.7765ZM115.597 35.268H116.348C116.795 35.268 117.04 35.5022 117.04 35.8725C117.04 36.2428 116.795 36.4824 116.348 36.4824H115.597V35.268ZM116.839 38.7153H115.597V37.3756H116.839C117.318 37.3756 117.596 37.6315 117.596 38.0454C117.59 38.4647 117.307 38.7153 116.839 38.7153Z" fill="white"/>
<path d="M122.034 36.1658H120.945V34.3359H119.855V39.6511H122.028C123.167 39.6511 123.967 38.9595 123.967 37.903C123.967 36.8465 123.172 36.1712 122.028 36.1712L122.034 36.1658ZM122.034 38.6872H120.945V37.1133H122.034C122.562 37.1133 122.862 37.4455 122.862 37.9084C122.862 38.3713 122.562 38.6872 122.034 38.6872Z" fill="white"/>
<path d="M125.989 34.3359H124.899V39.6511H125.989V34.3359Z" fill="white"/>
</svg>
