<svg width="200" height="50" viewBox="0 0 200 50" fill="none" xmlns="http://www.w3.org/2000/svg">
<path d="M75.8752 45C74.6782 43.5379 73.1715 42.5992 71.2797 42.3001C70.9114 42.242 70.5431 42.217 70.1748 42.2087C68.5425 42.2004 66.9186 42.2087 65.2864 42.2087C64.2902 42.2087 63.3193 42.0426 62.3985 41.6521C60.7662 40.946 59.7534 39.7082 59.2762 38.0218C59.0837 37.324 59 36.6096 59 35.8951C59 25.6521 59 15.4091 59 5.17445C59 5.12461 59 5.06646 59 5H92.7588C92.7588 5.05815 92.7672 5.108 92.7672 5.15784C92.7672 15.4507 92.7672 25.7352 92.7672 36.028C92.7672 37.1495 92.5663 38.2378 92.0557 39.243C91.3442 40.6552 90.1723 41.5026 88.6572 41.918C87.9457 42.109 87.2258 42.2004 86.4892 42.2004C84.882 42.2004 83.2665 42.2004 81.6593 42.2004C79.868 42.2004 78.2776 42.7736 76.9215 43.9367C76.57 44.2357 76.2686 44.5929 75.9422 44.9252C75.9254 44.9418 75.9171 44.9668 75.9087 44.9917H75.8752V45ZM75.9171 43.513C75.9171 43.513 75.9422 43.4714 75.9589 43.4465C77.5326 41.9927 79.3993 41.2368 81.5505 41.2201C83.166 41.2035 84.7816 41.2201 86.3971 41.2201C87.05 41.2201 87.6946 41.1537 88.3307 40.9792C89.6282 40.622 90.6243 39.891 91.2102 38.6615C91.6204 37.7975 91.7627 36.8671 91.7627 35.92C91.7627 26.0093 91.7627 16.0986 91.7627 6.17965C91.7627 6.1215 91.7627 6.06334 91.7627 5.99688H60.0045V6.22949C60.0045 16.1153 60.0045 25.9927 60.0045 35.8785C60.0045 36.4019 60.0631 36.9335 60.1719 37.4486C60.4649 38.811 61.1847 39.8827 62.4403 40.5556C63.2774 41.0042 64.1898 41.1952 65.1273 41.2118C66.8182 41.2285 68.5091 41.2118 70.1916 41.2201C71.8741 41.2201 73.4226 41.7103 74.8038 42.6656C75.1805 42.9232 75.5237 43.2222 75.9003 43.5213L75.9171 43.513Z" fill="white"/>
<path d="M99.5303 19.0396C99.9907 19.0396 100.434 19.0396 100.878 19.0396C100.92 19.0396 100.987 19.1143 101.012 19.1642C101.447 20.2026 101.882 21.2493 102.318 22.2877C102.577 22.9191 102.837 23.5422 103.105 24.1735C103.121 24.2151 103.146 24.2483 103.172 24.3064C103.347 23.8744 103.523 23.4674 103.69 23.0603C104.226 21.7644 104.77 20.4601 105.298 19.1642C105.34 19.0728 105.381 19.0312 105.49 19.0312C105.909 19.0312 106.327 19.0312 106.763 19.0312V25.8599H105.674V21.0084C105.674 21.0084 105.649 21.0084 105.641 21.0084C105.532 21.2742 105.415 21.5401 105.306 21.8142C104.762 23.1185 104.218 24.4227 103.682 25.727C103.64 25.8184 103.598 25.8599 103.498 25.8516C103.28 25.8516 103.063 25.8433 102.853 25.8516C102.728 25.8516 102.669 25.8184 102.619 25.7021C101.991 24.1818 101.363 22.6616 100.727 21.1413C100.711 21.0998 100.685 21.0499 100.644 21.0084V25.8599H99.5303V19.0312V19.0396Z" fill="white"/>
<path d="M99.5303 28.7432C99.9907 28.7432 100.434 28.7432 100.878 28.7432C100.92 28.7432 100.987 28.8179 101.012 28.8678C101.447 29.9062 101.882 30.9529 102.318 31.9914C102.577 32.6227 102.837 33.2458 103.105 33.8771C103.121 33.9187 103.146 33.9519 103.172 34.0101C103.347 33.5781 103.523 33.171 103.69 32.7639C104.226 31.468 104.77 30.1637 105.298 28.8678C105.34 28.7764 105.381 28.7349 105.49 28.7349C105.909 28.7349 106.327 28.7349 106.763 28.7349V35.5635H105.674V30.712C105.674 30.712 105.649 30.712 105.641 30.712C105.524 30.9862 105.415 31.2603 105.298 31.5261C104.754 32.8221 104.218 34.1264 103.682 35.4223C103.64 35.5137 103.598 35.5552 103.498 35.5469C103.28 35.5469 103.063 35.5386 102.853 35.5469C102.728 35.5469 102.669 35.5137 102.619 35.3974C101.991 33.8771 101.363 32.3569 100.727 30.8366C100.711 30.7951 100.685 30.7453 100.644 30.7037V35.5552H99.5303V28.7266V28.7432Z" fill="white"/>
<path d="M127.86 35.5708V28.7505C127.902 28.7505 127.944 28.7422 127.977 28.7422C128.873 28.7422 129.768 28.7422 130.664 28.7505C131.208 28.7588 131.71 28.9083 132.121 29.2905C132.882 29.9883 132.79 31.4836 131.819 31.9738C131.803 31.9821 131.786 31.9987 131.769 32.007C131.886 32.0651 132.012 32.115 132.121 32.1814C132.723 32.5636 132.933 33.1285 132.882 33.8097C132.824 34.6737 132.221 35.3133 131.292 35.5127C131.074 35.5542 130.857 35.5792 130.639 35.5875C129.752 35.5875 128.864 35.5875 127.977 35.5875C127.935 35.5875 127.902 35.5875 127.852 35.5792L127.86 35.5708ZM129.023 34.5906C129.526 34.5906 130.003 34.5906 130.48 34.5906C130.539 34.5906 130.589 34.5906 130.647 34.5906C130.815 34.5573 130.982 34.5241 131.141 34.466C131.384 34.3663 131.568 34.1835 131.652 33.9343C131.869 33.3112 131.518 32.6799 130.848 32.6051C130.246 32.547 129.643 32.5885 129.023 32.5885V34.5906ZM129.023 31.5999C129.526 31.5999 130.011 31.6165 130.497 31.5999C130.848 31.5916 131.158 31.467 131.334 31.143C131.669 30.5283 131.292 29.8221 130.58 29.764C130.095 29.7308 129.601 29.7474 129.107 29.7391C128.998 29.7391 129.007 29.8055 129.007 29.8803C129.007 30.412 129.007 30.9436 129.007 31.4753C129.007 31.5169 129.007 31.5501 129.015 31.6082L129.023 31.5999Z" fill="white"/>
<path d="M115.09 16.2971C113.492 16.2971 112.269 15.2919 111.951 13.7135C111.759 12.7499 111.826 11.8111 112.269 10.9222C112.881 9.70106 114.078 9.15277 115.35 9.24415C116.882 9.35215 118.003 10.4238 118.263 12.0271C118.388 12.7831 118.338 13.5225 118.07 14.2452C117.585 15.5578 116.497 16.3054 115.09 16.3054V16.2971ZM117.133 12.7665C117.133 12.2514 117.041 11.7613 116.798 11.3044C116.17 10.1247 114.513 9.92536 113.642 10.9306C113.282 11.3459 113.123 11.8444 113.073 12.376C113.006 13.0655 113.081 13.7301 113.45 14.3283C114.119 15.4331 115.727 15.5578 116.555 14.5692C116.991 14.0458 117.124 13.4228 117.133 12.7582V12.7665Z" fill="white"/>
<path d="M107.751 32.2725C107.759 31.2756 107.96 30.4449 108.538 29.7387C109.216 28.908 110.128 28.584 111.183 28.6339C111.936 28.6671 112.606 28.9329 113.158 29.4563C113.719 29.988 114.02 30.6525 114.146 31.4085C114.288 32.2808 114.221 33.1364 113.828 33.9423C113.267 35.0804 112.338 35.6619 111.065 35.6951C110.203 35.72 109.442 35.4791 108.805 34.8893C108.203 34.3327 107.901 33.6266 107.793 32.8291C107.759 32.6048 107.751 32.3805 107.742 32.2725H107.751ZM108.948 32.0565C108.939 32.4968 108.981 32.9288 109.149 33.3441C109.458 34.1167 110.011 34.5902 110.873 34.6318C111.677 34.6733 112.313 34.3493 112.681 33.6349C113.175 32.6629 113.175 31.6577 112.681 30.6858C112.321 29.9796 111.693 29.664 110.906 29.6889C110.161 29.7138 109.626 30.071 109.283 30.719C109.057 31.1344 108.973 31.583 108.964 32.0565H108.948Z" fill="white"/>
<path d="M107.707 23.7381C108.092 23.7381 108.452 23.7381 108.812 23.7381C108.845 23.7381 108.887 23.7879 108.904 23.8295C109.406 25.142 111.164 25.2417 111.959 24.4027C112.303 24.0372 112.596 23.356 112.57 22.8824C112.118 22.8824 111.666 22.8824 111.206 22.8824C110.746 22.8824 110.302 22.8824 109.842 22.8824V21.8939H112.554C112.537 21.7859 112.529 21.6945 112.512 21.6031C112.37 20.9717 112.068 20.4401 111.457 20.1493C110.662 19.7755 109.356 19.925 108.912 21.088C108.896 21.1296 108.837 21.1711 108.804 21.1711C108.452 21.1711 108.101 21.1711 107.732 21.1711C107.774 20.8887 107.866 20.6228 108 20.3819C108.469 19.5096 109.222 19.0527 110.202 18.9364C110.871 18.8534 111.516 18.9364 112.11 19.2521C112.88 19.6509 113.366 20.2905 113.6 21.113C113.918 22.2262 113.893 23.331 113.349 24.3778C112.805 25.4162 111.909 25.9312 110.737 25.9811C110.101 26.006 109.498 25.898 108.954 25.5574C108.276 25.142 107.866 24.5356 107.707 23.7298V23.7381Z" fill="white"/>
<path d="M99.5303 9.34375H105.088V16.1724H103.933V10.3988H100.702V16.1724H99.5303V9.34375Z" fill="white"/>
<path d="M130.167 9.34375C129.145 10.4486 128.149 11.5286 127.145 12.6252C128.166 13.8048 129.179 14.9845 130.208 16.1724C130.15 16.1724 130.108 16.189 130.075 16.189C129.673 16.189 129.271 16.189 128.869 16.189C128.794 16.189 128.702 16.1475 128.66 16.0893C127.806 15.1257 126.952 14.162 126.107 13.1984C126.082 13.1651 126.048 13.1319 125.99 13.0738V16.189H124.826V9.35206H125.981V12.243L126.04 12.2846C126.065 12.243 126.082 12.1849 126.124 12.1516C126.969 11.2461 127.806 10.3406 128.66 9.44344C128.71 9.39359 128.802 9.35206 128.878 9.35206C129.296 9.34375 129.715 9.35206 130.175 9.35206L130.167 9.34375Z" fill="white"/>
<path d="M127.197 28.7459C126.176 29.8508 125.179 30.939 124.175 32.0273C125.196 33.2069 126.209 34.3866 127.239 35.5828C127.163 35.5828 127.113 35.5912 127.063 35.5912C126.686 35.5912 126.309 35.5912 125.933 35.5912C125.816 35.5912 125.74 35.5579 125.665 35.4749C124.828 34.5195 123.982 33.5642 123.145 32.6088C123.112 32.5673 123.07 32.534 123.011 32.4593V35.5745H121.848V28.7459H123.003V31.6701C123.053 31.6285 123.087 31.6036 123.112 31.5787C123.966 30.6649 124.819 29.7511 125.682 28.8373C125.732 28.7874 125.824 28.7459 125.899 28.7459C126.318 28.7376 126.736 28.7459 127.197 28.7459Z" fill="white"/>
<path d="M119.292 9.34375H123.762V10.3739H120.455V12.1683H123.578V13.1818H120.455V15.1423H123.762V16.1724H119.292V9.34375Z" fill="white"/>
<path d="M125.783 25.8843C125.39 25.8843 125.021 25.8843 124.645 25.8843C124.603 25.8843 124.553 25.8262 124.536 25.7763C124.36 25.3194 124.193 24.8542 124.034 24.389C124 24.2976 123.967 24.2561 123.858 24.2561C123.037 24.2561 122.226 24.2561 121.405 24.2561C121.305 24.2561 121.255 24.281 121.221 24.3807C121.062 24.8376 120.895 25.2862 120.744 25.7431C120.71 25.8511 120.652 25.8843 120.543 25.8843C120.191 25.8843 119.84 25.8843 119.472 25.8843C119.564 25.6268 119.647 25.4025 119.739 25.1699C120.484 23.1761 121.238 21.1741 121.974 19.1803C122.016 19.0723 122.058 19.0391 122.175 19.0391C122.493 19.0474 122.82 19.0391 123.138 19.0391C123.213 19.0391 123.255 19.0557 123.28 19.1304C124.117 21.3568 124.946 23.5915 125.783 25.8179C125.783 25.8345 125.783 25.8428 125.8 25.8843H125.783ZM123.607 23.2426C123.272 22.3122 122.945 21.39 122.611 20.4264C122.276 21.3817 121.949 22.3039 121.623 23.2426H123.615H123.607Z" fill="white"/>
<path d="M120.909 30.9766C120.532 30.9766 120.172 30.9766 119.812 30.9766C119.77 30.9766 119.72 30.9019 119.703 30.852C119.477 30.2373 119.059 29.8385 118.398 29.7305C117.435 29.5644 116.648 29.9964 116.28 30.9019C115.937 31.7658 115.937 32.6464 116.305 33.5021C116.891 34.8479 118.322 34.8562 119.076 34.3328C119.419 34.0919 119.645 33.7679 119.745 33.3526H120.917C120.875 33.7845 120.716 34.175 120.474 34.5239C119.98 35.23 119.285 35.5955 118.448 35.6869C117.427 35.7949 116.514 35.554 115.786 34.798C115.284 34.283 115.016 33.6516 114.907 32.9538C114.773 32.1231 114.832 31.3089 115.158 30.528C115.694 29.2487 116.899 28.526 118.297 28.6506C119.017 28.717 119.662 28.9496 120.172 29.473C120.574 29.8884 120.8 30.3951 120.9 30.985L120.909 30.9766Z" fill="white"/>
<path d="M107.557 13.8229V16.1739H106.394V9.36188C106.394 9.36188 106.435 9.34527 106.461 9.34527C107.331 9.34527 108.193 9.32865 109.064 9.35358C109.826 9.3785 110.495 9.64433 110.914 10.3172C111.399 11.0898 111.424 11.9122 110.989 12.7098C110.579 13.474 109.876 13.798 109.03 13.8146C108.553 13.8229 108.068 13.8146 107.565 13.8146L107.557 13.8229ZM107.557 12.8094C108.026 12.8094 108.486 12.8261 108.947 12.8094C109.616 12.7762 110.077 12.2861 110.077 11.6215C110.077 10.9071 109.666 10.4335 108.963 10.392C108.52 10.3671 108.076 10.3754 107.624 10.3754C107.599 10.3754 107.574 10.3837 107.549 10.392V12.8094H107.557Z" fill="white"/>
<path d="M115.921 25.8771H114.758V19.0567C114.758 19.0567 114.8 19.0484 114.817 19.0484C115.687 19.0484 116.549 19.0318 117.42 19.0567C118.198 19.0816 118.876 19.3558 119.295 20.0536C119.755 20.8179 119.772 21.6237 119.353 22.4129C118.943 23.1605 118.265 23.4928 117.42 23.5261C116.976 23.5427 116.524 23.5261 116.08 23.5344C116.03 23.5344 115.98 23.5344 115.921 23.5344V25.8771ZM115.93 20.0619V22.496C116.424 22.496 116.901 22.5292 117.378 22.496C118.048 22.4378 118.466 21.9311 118.449 21.2665C118.433 20.5853 118.014 20.1367 117.328 20.0951C116.926 20.0702 116.524 20.0868 116.122 20.0785C116.055 20.0785 115.997 20.0785 115.93 20.0785V20.0619Z" fill="white"/>
<path d="M133.816 35.5704V28.75H134.971V31.1591C135.046 31.1591 135.105 31.1591 135.163 31.1591C135.665 31.1591 136.176 31.1508 136.678 31.1841C137.825 31.2671 138.645 32.1311 138.679 33.2443C138.712 34.4405 137.967 35.3627 136.821 35.5371C136.687 35.5537 136.553 35.5787 136.419 35.5787C135.573 35.5787 134.736 35.5787 133.891 35.5787C133.874 35.5787 133.849 35.5787 133.816 35.5704ZM134.987 34.5735C135.515 34.5569 136.025 34.5735 136.536 34.5153C137.114 34.4489 137.482 33.9836 137.499 33.3938C137.515 32.7791 137.189 32.3139 136.595 32.2308C136.076 32.1643 135.548 32.1976 135.021 32.1809C135.021 32.1809 135.004 32.1893 134.996 32.1976V34.5569L134.987 34.5735Z" fill="white"/>
<path d="M132.528 10.39H130.368V9.35156H135.851V10.3817H133.7V16.1719H132.528V10.3817V10.39Z" fill="white"/>
<path d="M140.535 35.5708H139.389V28.7422H140.535V35.5708Z" fill="white"/>
<path d="M65.7189 38.0852C65.3925 38.0852 65.0911 38.0852 64.7898 38.0852C64.6642 38.0852 64.6977 37.9855 64.6977 37.919C64.6977 37.4123 64.6308 36.9138 64.5052 36.432C64.4215 36.0914 64.3294 35.7508 64.229 35.4102C64.1955 35.2856 64.1955 35.1776 64.229 35.053C64.6056 33.7404 64.974 32.4278 65.3423 31.107C65.3757 30.9824 65.4343 30.8993 65.5432 30.8328C65.8947 30.6251 66.2128 30.3759 66.4723 30.0602C66.7736 29.6864 66.8992 29.2544 66.8574 28.7809C66.8071 28.2243 66.7402 27.6677 66.6899 27.1028C66.6397 26.5296 66.6648 25.9647 66.7988 25.3998C66.7988 25.3749 66.8071 25.35 66.8155 25.3084C66.5476 25.433 66.3635 25.6158 66.2044 25.8318C65.9366 26.1973 65.7775 26.6044 65.6687 27.0364C65.5348 27.5597 65.359 28.0665 65.0744 28.5234C64.7061 29.1215 64.1704 29.512 63.5175 29.7446C63.3333 29.811 63.1408 29.8775 62.9566 29.9522C62.5214 30.135 62.3205 30.5171 62.4209 30.974C62.4209 31.0073 62.4376 31.0405 62.446 31.0904C62.2786 31.1485 62.1196 31.1983 61.9605 31.2565C61.8015 31.3063 61.6508 31.3562 61.4834 31.4143C61.0732 30.3344 60.8807 29.2461 61.4081 28.1578C61.5001 27.9668 61.6173 27.7674 61.7596 27.6096C62.3372 26.9865 62.6804 26.2472 62.9148 25.4413C63.0487 24.9761 63.1575 24.4943 63.3417 24.0457C63.7267 23.0737 64.3796 22.3261 65.4092 21.9938C66.5393 21.6283 67.6274 21.7196 68.5817 22.4922C68.7742 22.6501 68.883 22.6418 69.0923 22.5504C69.695 22.2762 70.3395 22.1599 71.0092 22.0935C70.9255 21.9522 70.8501 21.811 70.7581 21.6781C70.7413 21.6532 70.6744 21.6532 70.6241 21.6532C70.1889 21.6781 69.7536 21.7362 69.3267 21.7279C68.6905 21.7113 68.0962 21.512 67.5354 21.2212C66.9578 20.9304 66.3551 20.7477 65.7022 20.7643C65.4009 20.7726 65.0911 20.8058 64.7898 20.8307C64.6894 20.8307 64.5805 20.8474 64.4633 20.8557C64.4801 20.7975 64.4885 20.7643 64.4968 20.7227C65.1749 18.6625 66.2714 16.8349 67.6274 15.1568C67.7028 15.0654 67.7112 14.9907 67.6609 14.8827C67.3177 14.1848 66.9997 13.4787 66.6481 12.7892C66.4472 12.3905 66.4304 12 66.5895 11.5929C66.6899 11.3271 66.8322 11.0862 66.9662 10.8121C66.397 10.0395 65.811 9.25027 65.2167 8.43614C65.4846 8.24508 65.7441 8.0457 66.0287 7.84632C67.2759 9.54103 68.5231 11.2274 69.7787 12.9221C70.6074 12.3821 71.5282 12.1745 72.5159 12.1745C72.541 11.8837 72.5745 11.6096 72.5912 11.3271C72.6415 10.5711 72.8926 9.90655 73.4618 9.37488C73.7966 9.06751 74.1817 8.84321 74.6002 8.66875C74.7927 8.59399 74.9267 8.31153 74.8848 8.08724C74.8429 7.87124 74.6588 7.72171 74.4244 7.7134C74.0812 7.7134 73.7715 7.80478 73.4953 7.99585C73.1437 8.24508 72.7921 8.51091 72.4406 8.76013C71.9551 9.10904 71.4277 9.31673 70.8167 9.2918C70.08 9.26688 69.4857 8.93459 68.9584 8.44445C68.8998 8.39461 68.8496 8.34476 68.7742 8.2783C69.0337 8.03739 69.2765 7.81309 69.5025 7.60541C69.7369 7.77156 69.9461 7.95432 70.1805 8.08724C70.6827 8.36969 71.2017 8.34476 71.6872 8.03739C72.0053 7.82971 72.3066 7.5971 72.608 7.3728C73.0935 7.00728 73.6292 6.74975 74.2486 6.70821C75.3619 6.62514 76.1488 7.57218 75.8139 8.63552C75.7721 8.77675 75.8056 8.84321 75.906 8.92628C76.5338 9.46626 76.9691 10.1225 77.0444 10.9616C77.0779 11.3105 77.0193 11.676 76.9858 12.0249C76.9607 12.2908 76.9105 12.5566 76.8686 12.8307C77.2621 12.9387 77.6555 13.055 78.0405 13.1547C78.074 13.163 78.1242 13.1381 78.1577 13.1132C79.4468 11.892 80.9284 11.7259 82.5356 12.3406C82.9123 12.4818 83.2722 12.6646 83.6489 12.8307C83.7326 12.864 83.7661 12.9138 83.7577 12.9969C83.7577 13.0052 83.7577 13.0135 83.7577 13.0301C83.674 13.4621 83.8665 13.7612 84.1762 14.0519C84.7036 14.5421 85.1974 15.0737 85.6997 15.5971C86.3024 16.2202 86.294 17.2337 85.6829 17.8484C85.5323 17.9979 85.3732 18.1475 85.2225 18.297C85.1472 18.3718 85.0886 18.3801 84.9882 18.3385C84.4859 18.1475 83.9753 17.9564 83.4647 17.7819C83.3643 17.7487 83.2471 17.757 83.1466 17.7653C82.862 17.7819 82.5774 17.8152 82.2928 17.8401C82.3096 17.8816 82.3347 17.9232 82.3598 17.973C82.6862 18.5961 83.1215 19.1527 83.5652 19.6926C84.0674 20.2991 84.5278 20.9387 84.804 21.6864C84.9045 21.9522 84.9714 22.2347 85.0551 22.5338C85.9089 22.0769 86.7627 21.6199 87.65 21.1381C88.1355 21.7113 88.6378 22.2679 89.0982 22.8494C89.433 23.2814 89.726 23.7549 90.0189 24.2285C90.2115 24.5441 90.2533 24.918 90.2868 25.2752C90.337 25.8484 90.3705 26.4216 90.4123 27.0031C90.4123 27.028 90.4124 27.0613 90.404 27.1111H89.4162C89.3995 26.8536 89.3995 26.5794 89.3744 26.3136C89.3409 25.8899 89.2991 25.4746 89.2488 25.0509C89.207 24.6854 88.9977 24.378 88.7801 24.0955C88.3448 23.5223 87.9012 22.9657 87.4491 22.3925C87.2148 22.5171 87.0139 22.6251 86.813 22.7331C86.2438 23.0405 85.6746 23.3396 85.1137 23.6553C85.0468 23.6885 84.9882 23.7716 84.9714 23.838C84.8542 24.2949 84.6868 24.7269 84.419 25.1173C84.4022 25.1423 84.3855 25.1755 84.3604 25.2253C85.0802 25.2253 85.7499 25.0758 86.3777 24.7767C87.1729 25.7155 87.9346 26.6708 88.6127 27.6843C89.0814 28.3821 89.2991 29.1381 89.2823 29.9772C89.2823 30.3925 89.2823 30.8079 89.2823 31.2233H88.2862C88.2862 31.1402 88.2862 31.0737 88.2862 31.0073C88.2695 30.4424 88.2695 29.8858 88.2276 29.3209C88.2109 29.0966 88.1272 28.864 88.0183 28.6646C87.5747 27.8422 86.9888 27.1111 86.4112 26.3801C86.3275 26.2804 86.2521 26.1807 86.1601 26.0727C86.1182 26.0893 86.0847 26.1059 86.0512 26.1308C85.1807 26.6376 84.3018 27.136 83.4312 27.6511C82.7951 28.0249 82.117 28.2492 81.3804 28.3074C81.3218 28.3074 81.2716 28.3157 81.213 28.324C81.213 28.324 81.2046 28.324 81.1795 28.3406C81.5311 28.8141 81.8827 29.296 82.251 29.7861C82.2761 29.7196 82.2928 29.6698 82.3012 29.6199C82.4519 29.1132 82.7783 28.7477 83.2722 28.5566C83.5903 28.432 83.9084 28.324 84.2432 28.2077C84.3353 28.5317 84.4022 28.8474 84.5027 29.1547C84.6282 29.5286 84.7538 29.9024 84.9128 30.2513C85.2225 30.9242 85.7918 31.3313 86.4447 31.6386C86.8297 31.8214 87.2148 32.0208 87.6082 32.2118C87.4659 32.3614 87.332 32.5026 87.1897 32.6438C87.0139 32.8183 86.8465 32.9927 86.6707 33.1589C86.5702 33.2503 86.5535 33.3416 86.5535 33.4746C86.6121 34.7124 86.3275 35.8505 85.5239 36.8307C84.9965 37.4621 84.3269 37.9024 83.5652 38.2015C83.4982 38.2264 83.4396 38.2513 83.3559 38.2845C83.3894 38.4091 83.4061 38.5338 83.448 38.6418C83.4647 38.675 83.5401 38.7082 83.5819 38.7082C84.0423 38.7082 84.5027 38.7082 84.9631 38.7082H85.1388V39.6885C85.097 39.6885 85.0468 39.6968 84.9965 39.6968C83.7493 39.6968 82.5105 39.6968 81.2632 39.6968C81.146 39.6968 81.0958 39.6553 81.054 39.5556C80.9451 39.2731 80.828 38.9907 80.7191 38.7082C80.6857 38.6251 80.6354 38.5836 80.5434 38.5836C79.3212 38.5836 78.2247 38.1599 77.1616 37.595C76.7431 37.3707 76.2827 37.2129 75.8307 37.055C75.6968 37.0052 75.5042 37.0384 75.3703 37.0883C75.069 37.2046 74.9601 37.4621 75.0355 37.811C75.1024 38.1267 75.2531 38.4008 75.4791 38.6251C75.521 38.6667 75.5963 38.6916 75.6633 38.6916C76.0567 38.6916 76.4417 38.6916 76.8519 38.6916V39.6719C76.8017 39.6719 76.7515 39.6802 76.6929 39.6802C75.5126 39.6802 74.324 39.6802 73.1437 39.6802C73.06 39.6802 72.993 39.6802 72.9428 39.5888C72.5326 38.8993 72.1141 38.2181 71.6956 37.5203C71.7793 37.4455 71.863 37.3624 71.9467 37.2876C72.1895 37.0467 72.382 36.7809 72.3987 36.4237C72.4071 36.1745 72.3066 35.9668 72.1057 35.8172C71.8128 35.6013 71.4696 35.5763 71.1096 35.6262C71.185 35.7923 71.2771 35.9335 71.3356 36.0914C71.7458 37.188 71.1096 38.3676 69.9294 38.7082C68.498 39.1236 67.0917 38.243 66.8657 36.7477C66.6397 35.269 67.2089 34.1059 68.3641 33.1921C69.0588 32.6521 69.8624 32.3697 70.733 32.2368C71.6119 32.1039 72.4908 32.1122 73.3613 32.3032C73.3865 32.3032 73.4116 32.3115 73.4702 32.3282C73.1102 31.6885 72.767 31.0737 72.4238 30.4673C72.7168 30.4673 72.993 30.4673 73.2776 30.4673C74.5751 30.4673 75.8725 30.4839 77.17 30.4839C77.8731 30.4839 78.5763 30.4673 79.271 30.4839C80.083 30.5005 80.7191 31.2316 80.7024 32.0872C80.694 32.5525 80.5266 32.9595 80.2588 33.3333C79.8737 33.865 80.016 34.4881 80.5936 34.8037C81.1544 35.1111 82.0082 35.0031 82.477 34.5794C82.8788 34.2139 82.929 33.7155 82.5942 33.2835C82.1505 32.7103 81.6818 32.1454 81.2297 31.5805C81.1963 31.5389 81.1628 31.5057 81.1209 31.4476C81.3469 31.2731 81.5813 31.0987 81.8241 30.9076C81.2716 30.1516 80.7108 29.404 80.1583 28.648C79.9658 28.7311 79.7816 28.8141 79.5891 28.8806C78.1912 29.3956 76.7515 29.7113 75.2615 29.7113C74.2486 29.7113 73.2358 29.6615 72.2313 29.6283C72.1309 29.6283 72.089 29.6698 72.0388 29.7362C71.5868 30.3593 71.0762 30.9242 70.44 31.3562C69.5611 31.9543 68.5901 32.3614 67.5605 32.6355C67.0415 32.7684 66.5142 32.9014 65.9868 33.0343C65.8864 33.0592 65.8361 33.1007 65.8026 33.2087C65.6352 33.8235 65.4511 34.4299 65.2837 35.0447C65.2586 35.1443 65.2586 35.2607 65.2837 35.3603C65.4427 35.9585 65.6185 36.5566 65.6771 37.1797C65.7022 37.4621 65.7106 37.7446 65.7357 38.0519L65.7189 38.0852ZM81.1126 16.0125C81.1712 16.0706 81.2046 16.1205 81.2465 16.162C81.4223 16.3281 81.5729 16.5192 81.7738 16.6438C82.1505 16.8847 82.5691 16.8931 82.996 16.7851C83.1885 16.7352 83.3643 16.7352 83.54 16.7851C83.9418 16.9097 84.352 17.0426 84.7538 17.1838C84.8626 17.2253 84.9296 17.2004 84.9965 17.109C85.1891 16.8432 85.164 16.5026 84.9212 16.2534C84.3018 15.622 83.6824 14.974 83.0462 14.3593C82.8285 14.1433 82.6779 13.9439 82.7365 13.6283C82.7365 13.5867 82.703 13.5203 82.6695 13.5036C82.2175 13.3043 81.7738 13.0966 81.28 13.0384C80.4011 12.9387 79.6226 13.1298 78.9613 13.7362C78.367 14.2845 78.0405 14.9824 77.8648 15.7549C77.5299 17.2503 77.5969 18.7456 77.9401 20.2326C77.9987 20.4985 78.074 20.756 78.1494 21.0301C77.8313 21.1381 77.5216 21.2378 77.2118 21.3375C77.1867 21.2793 77.17 21.2461 77.1616 21.2046C76.8519 20.1911 76.6845 19.1527 76.6677 18.0976C76.651 17.1672 76.6845 16.2451 76.944 15.3479C77.0695 14.9076 77.2537 14.4839 77.4211 14.0436C76.8686 13.8858 76.2911 13.7279 75.7135 13.5618C75.7888 13.1215 75.8725 12.6895 75.9395 12.2658C75.9897 11.9086 76.0567 11.5597 76.0567 11.2025C76.0483 10.6044 75.7219 10.1392 75.295 9.7321C75.1443 9.59087 75.0187 9.56595 74.8262 9.65733C74.1566 9.98962 73.6794 10.4631 73.6208 11.2357C73.5706 11.8671 73.5371 12.5068 73.4869 13.1381C73.4869 13.188 73.4702 13.2378 73.4618 13.3043C72.3736 13.055 71.3524 13.1464 70.3814 13.7196C70.4232 13.7778 70.4567 13.8276 70.4986 13.8775C73.6962 18.2139 76.9021 22.5504 80.0997 26.8868C80.242 27.0779 80.4178 27.2025 80.6438 27.2607C81.1126 27.3936 81.5646 27.3105 82.0166 27.1859C82.5523 27.0447 82.996 26.7456 83.4647 26.4798C83.607 26.3967 83.7493 26.3136 83.8832 26.2305C83.3643 26.1724 82.929 25.9398 82.4686 25.7238C82.7281 25.4746 82.9876 25.2503 83.222 25.0094C84.0507 24.1288 84.2934 23.1236 83.8498 21.9855C83.6154 21.3956 83.2471 20.8889 82.8453 20.3988C82.3347 19.784 81.8408 19.1527 81.4809 18.4465C81.2549 18.0145 81.0372 17.5826 80.8363 17.134C80.7861 17.0177 80.7526 16.8515 80.7945 16.7352C80.8782 16.486 81.0205 16.2534 81.146 15.9959L81.1126 16.0125ZM73.5957 23.9211C73.5371 23.9045 73.4869 23.9045 73.445 23.8796C73.0851 23.7134 72.7335 23.5473 72.3736 23.3894C72.2397 23.3313 72.1057 23.2565 71.9634 23.215C71.4696 23.082 70.9673 23.0654 70.4651 23.1817C70.0298 23.2814 69.5862 23.3562 69.2179 23.622C68.2385 24.3281 67.6944 25.2752 67.6944 26.4798C67.6944 27.053 67.7865 27.6262 67.8367 28.1994C67.8869 28.7144 67.9288 29.2295 67.7698 29.7362C67.5437 30.4756 67.0582 31.0156 66.4304 31.4476C66.2296 31.5888 66.2212 31.7799 66.1542 31.9875C66.4221 31.9211 66.6565 31.8629 66.8908 31.8048C67.6023 31.6303 68.2971 31.3894 68.9668 31.0737C70.0633 30.567 70.8669 29.7529 71.4947 28.7477C71.5449 28.6646 71.5868 28.6064 71.7123 28.6148C72.5243 28.6729 73.3446 28.7311 74.1566 28.756C75.6716 28.8141 77.1616 28.6563 78.6014 28.1911C78.9111 28.0914 79.2208 27.9751 79.5473 27.8588C75.5628 22.459 71.5951 17.0924 67.6274 11.7176C67.5019 11.9502 67.4433 12.1412 67.5689 12.3988C68.0125 13.2793 68.4227 14.1682 68.8579 15.0571C68.9082 15.1568 68.8998 15.2233 68.8245 15.3063C67.7781 16.4943 66.9076 17.7986 66.1961 19.2191C66.1124 19.3936 66.0287 19.5763 65.945 19.7508C65.9701 19.7674 65.9784 19.7757 65.9868 19.7757C66.715 19.7923 67.3931 20.0249 68.0376 20.3489C68.7742 20.7144 69.5443 20.8224 70.3563 20.6812C70.6827 20.6231 71.0176 20.5732 71.3608 20.5234C71.7793 21.7612 72.6164 22.5753 73.8636 22.9657C73.7715 23.2814 73.6878 23.5971 73.6041 23.9128L73.5957 23.9211ZM75.3619 34.4299C75.2531 34.3635 75.1694 34.3136 75.0857 34.2638C74.6588 34.0229 74.2486 33.7404 73.805 33.5493C72.9093 33.1672 71.9718 33.134 71.0176 33.2586C70.2642 33.3583 69.5611 33.5826 68.9584 34.0561C68.1213 34.7124 67.6944 35.5514 67.8535 36.6231C67.9539 37.3292 68.4394 37.7861 69.1174 37.8609C69.7117 37.919 70.2642 37.5867 70.4232 37.0717C70.5153 36.756 70.4149 36.3655 70.1805 36.2077C70.1805 36.2326 70.1805 36.2492 70.1805 36.2658C70.214 36.5234 70.1135 36.7227 69.8959 36.8557C69.6699 36.9886 69.4439 36.972 69.2346 36.8224C69.0253 36.6729 68.9584 36.4569 69.017 36.216C69.1091 35.8256 69.3016 35.4766 69.628 35.2357C70.3228 34.7124 71.1096 34.5628 71.9467 34.7373C72.6833 34.8868 73.1856 35.3271 73.3781 36.0665C73.5204 36.6314 73.3613 37.1464 73.0433 37.6199C73.0014 37.6781 72.9679 37.7196 73.0181 37.8027C73.2023 38.0852 73.3697 38.3842 73.5455 38.6667C73.5622 38.6999 73.5957 38.7414 73.6292 38.7414C73.8468 38.7414 74.0728 38.7414 74.2905 38.7414C74.2905 38.7165 74.2905 38.7082 74.2905 38.7082C74.2654 38.6584 74.2486 38.6085 74.2235 38.5587C74.031 38.1101 73.9473 37.6449 74.098 37.163C74.3323 36.3905 75.1778 35.9335 76.0316 36.108C76.6092 36.2243 77.1281 36.4985 77.6555 36.7477C78.141 36.9803 78.6181 37.2461 79.1371 37.3956C80.3843 37.7529 81.6567 37.7695 82.9123 37.3956C83.7577 37.1464 84.4608 36.6812 84.9547 35.9419C85.4318 35.2357 85.5992 34.4465 85.5406 33.6158C85.5155 33.2004 85.4904 32.8183 85.9592 32.5524C84.5947 31.9709 83.9167 30.9076 83.5568 29.5701C83.3392 29.703 83.2387 29.8775 83.2471 30.1018C83.2471 30.4424 83.1885 30.7581 83.0964 31.082C83.0378 31.2814 82.9541 31.4476 82.7616 31.5473C82.703 31.5805 82.6528 31.6303 82.5858 31.6719C82.6193 31.7134 82.6444 31.7549 82.6695 31.7882C82.9206 32.1122 83.1801 32.4278 83.4312 32.7518C84.0255 33.541 83.9837 34.5462 83.2973 35.244C82.5356 36.0249 81.5981 36.2243 80.5768 35.9169C78.9195 35.4268 78.7186 33.7238 79.4719 32.7767C79.5724 32.6604 79.631 32.5026 79.6728 32.3531C79.7984 31.946 79.6226 31.4974 79.045 31.5223C78.6265 31.5473 78.2163 31.5389 77.7978 31.5473C76.7515 31.5473 75.7051 31.5473 74.6588 31.5556C74.5081 31.5556 74.3491 31.5556 74.1649 31.5556C74.6923 32.4694 75.0355 33.4413 75.387 34.4382L75.3619 34.4299ZM67.9874 23.298C67.8116 23.1236 67.5772 22.9907 67.3261 22.9159C66.3467 22.6085 64.9991 22.8245 64.3629 24.2368C64.1704 24.6521 64.0616 25.109 63.936 25.5493C63.6681 26.4631 63.3333 27.352 62.6804 28.0748C62.6051 28.1578 62.5297 28.2492 62.4628 28.3406C62.2702 28.6148 62.1782 28.9221 62.1279 29.2295C62.4962 29.08 62.8562 28.9387 63.2161 28.7975C63.7602 28.5898 64.162 28.2326 64.388 27.7093C64.5052 27.4268 64.6056 27.136 64.6894 26.837C64.8149 26.3884 64.9656 25.9564 65.2 25.5576C65.6603 24.7684 66.3216 24.2783 67.2508 24.1703C67.2926 24.1703 67.3428 24.1371 67.3763 24.1039C67.5856 23.8463 67.7865 23.5805 67.9958 23.3063L67.9874 23.298ZM82.3598 38.5504C82.1505 38.5753 81.958 38.6002 81.7655 38.6251C81.8157 38.7414 82.0752 38.7747 82.4016 38.7165C82.3849 38.6667 82.3765 38.6168 82.3598 38.5504Z" fill="white"/>
</svg>
