<svg width="219" height="59" viewBox="0 0 219 59" fill="none" xmlns="http://www.w3.org/2000/svg">
<path d="M3.984 47V13.4H10.416L30.24 37.592H27.12V13.4H34.8V47H28.416L8.544 22.808H11.664V47H3.984Z" fill="#0072B9"/>
<path d="M36.4705 33.512C36.7964 33.8535 36.9866 34.3246 36.9993 34.8216C37.012 35.3186 36.8461 35.8008 36.5382 36.1623L26.953 47.4136C26.7976 47.5956 26.611 47.7413 26.404 47.842C26.197 47.9426 25.9739 47.9963 25.7479 47.9998C25.5219 48.0033 25.2975 47.9566 25.0881 47.8623C24.8786 47.7681 24.6884 47.6282 24.5285 47.4511L19.454 41.8254C19.1552 41.47 18.9925 40.9998 19.0003 40.514C19.008 40.0282 19.1855 39.5646 19.4954 39.2211C19.8053 38.8775 20.2235 38.6807 20.6617 38.6721C21.0999 38.6636 21.524 38.8439 21.8446 39.1751L25.69 43.4356L34.0799 33.587C34.388 33.2257 34.8129 33.0148 35.2612 33.0008C35.7095 32.9867 36.1445 33.1706 36.4705 33.512Z" fill="#01A638"/>
<path d="M52.504 48.32C50.7547 48.32 49.144 48.032 47.672 47.456C46.2 46.88 44.92 46.08 43.832 45.056C42.744 44.0107 41.9013 42.7947 41.304 41.408C40.7067 40 40.408 38.464 40.408 36.8C40.408 35.136 40.7067 33.6107 41.304 32.224C41.9013 30.816 42.744 29.6 43.832 28.576C44.92 27.5307 46.2 26.72 47.672 26.144C49.144 25.568 50.744 25.28 52.472 25.28C54.2213 25.28 55.8213 25.568 57.272 26.144C58.744 26.72 60.024 27.5307 61.112 28.576C62.2 29.6 63.0427 30.816 63.64 32.224C64.2373 33.6107 64.536 35.136 64.536 36.8C64.536 38.464 64.2373 40 63.64 41.408C63.0427 42.816 62.2 44.032 61.112 45.056C60.024 46.08 58.744 46.88 57.272 47.456C55.8213 48.032 54.232 48.32 52.504 48.32ZM52.472 44.672C53.6027 44.672 54.648 44.48 55.608 44.096C56.568 43.712 57.4 43.168 58.104 42.464C58.808 41.7387 59.352 40.9067 59.736 39.968C60.1413 39.008 60.344 37.952 60.344 36.8C60.344 35.648 60.1413 34.6027 59.736 33.664C59.352 32.704 58.808 31.872 58.104 31.168C57.4 30.4427 56.568 29.888 55.608 29.504C54.648 29.12 53.6027 28.928 52.472 28.928C51.3413 28.928 50.296 29.12 49.336 29.504C48.3973 29.888 47.5653 30.4427 46.84 31.168C46.136 31.872 45.5813 32.704 45.176 33.664C44.792 34.6027 44.6 35.648 44.6 36.8C44.6 37.9307 44.792 38.976 45.176 39.936C45.5813 40.896 46.136 41.7387 46.84 42.464C47.544 43.168 48.376 43.712 49.336 44.096C50.296 44.48 51.3413 44.672 52.472 44.672ZM69.9055 48V25.6H79.1215C81.1055 25.6 82.8015 25.92 84.2095 26.56C85.6388 27.2 86.7375 28.1173 87.5055 29.312C88.2735 30.5067 88.6575 31.9253 88.6575 33.568C88.6575 35.2107 88.2735 36.6293 87.5055 37.824C86.7375 38.9973 85.6388 39.904 84.2095 40.544C82.8015 41.1627 81.1055 41.472 79.1215 41.472H72.2095L74.0655 39.584V48H69.9055ZM84.5615 48L78.8975 39.872H83.3455L89.0415 48H84.5615ZM74.0655 40.032L72.2095 38.048H78.9295C80.7642 38.048 82.1402 37.6533 83.0575 36.864C83.9962 36.0747 84.4655 34.976 84.4655 33.568C84.4655 32.1387 83.9962 31.04 83.0575 30.272C82.1402 29.504 80.7642 29.12 78.9295 29.12H72.2095L74.0655 27.072V40.032ZM94.2717 48V25.6H97.6957L107.488 41.952H105.696L115.328 25.6H118.752L118.784 48H114.848L114.816 31.776H115.648L107.456 45.44H105.6L97.2797 31.776H98.2397V48H94.2717Z" fill="#0072B9"/>
<path d="M132.738 48.32C130.989 48.32 129.314 48.0747 127.714 47.584C126.114 47.072 124.845 46.4213 123.906 45.632L125.346 42.4C126.242 43.104 127.352 43.6907 128.674 44.16C129.997 44.6293 131.352 44.864 132.738 44.864C133.912 44.864 134.861 44.736 135.586 44.48C136.312 44.224 136.845 43.8827 137.186 43.456C137.528 43.008 137.698 42.5067 137.698 41.952C137.698 41.2693 137.453 40.7253 136.962 40.32C136.472 39.8933 135.832 39.5627 135.042 39.328C134.274 39.072 133.41 38.8373 132.45 38.624C131.512 38.4107 130.562 38.1653 129.602 37.888C128.664 37.5893 127.8 37.216 127.01 36.768C126.242 36.2987 125.613 35.68 125.122 34.912C124.632 34.144 124.386 33.1627 124.386 31.968C124.386 30.752 124.706 29.6427 125.346 28.64C126.008 27.616 127 26.8053 128.322 26.208C129.666 25.5893 131.362 25.28 133.41 25.28C134.754 25.28 136.088 25.4507 137.41 25.792C138.733 26.1333 139.885 26.624 140.866 27.264L139.554 30.496C138.552 29.8987 137.517 29.4613 136.45 29.184C135.384 28.8853 134.36 28.736 133.378 28.736C132.226 28.736 131.288 28.8747 130.562 29.152C129.858 29.4293 129.336 29.792 128.994 30.24C128.674 30.688 128.514 31.2 128.514 31.776C128.514 32.4587 128.749 33.0133 129.218 33.44C129.709 33.8453 130.338 34.1653 131.106 34.4C131.896 34.6347 132.77 34.8693 133.73 35.104C134.69 35.3173 135.64 35.5627 136.578 35.84C137.538 36.1173 138.402 36.48 139.17 36.928C139.96 37.376 140.589 37.984 141.058 38.752C141.549 39.52 141.794 40.4907 141.794 41.664C141.794 42.8587 141.464 43.968 140.802 44.992C140.162 45.9947 139.17 46.8053 137.826 47.424C136.482 48.0213 134.786 48.32 132.738 48.32ZM157.247 48.32C155.541 48.32 153.951 48.0427 152.479 47.488C151.029 46.912 149.759 46.112 148.671 45.088C147.605 44.0427 146.773 42.816 146.175 41.408C145.578 40 145.279 38.464 145.279 36.8C145.279 35.136 145.578 33.6 146.175 32.192C146.773 30.784 147.615 29.568 148.703 28.544C149.791 27.4987 151.061 26.6987 152.511 26.144C153.962 25.568 155.551 25.28 157.279 25.28C159.114 25.28 160.789 25.6 162.303 26.24C163.818 26.8587 165.098 27.7867 166.143 29.024L163.455 31.552C162.645 30.6773 161.738 30.0267 160.735 29.6C159.733 29.152 158.645 28.928 157.471 28.928C156.298 28.928 155.221 29.12 154.239 29.504C153.279 29.888 152.437 30.432 151.711 31.136C151.007 31.84 150.453 32.672 150.047 33.632C149.663 34.592 149.471 35.648 149.471 36.8C149.471 37.952 149.663 39.008 150.047 39.968C150.453 40.928 151.007 41.76 151.711 42.464C152.437 43.168 153.279 43.712 154.239 44.096C155.221 44.48 156.298 44.672 157.471 44.672C158.645 44.672 159.733 44.4587 160.735 44.032C161.738 43.584 162.645 42.912 163.455 42.016L166.143 44.576C165.098 45.792 163.818 46.72 162.303 47.36C160.789 48 159.103 48.32 157.247 48.32ZM167.453 48L177.533 25.6H181.629L191.741 48H187.389L178.717 27.808H180.381L171.741 48H167.453ZM172.093 42.816L173.213 39.552H185.309L186.429 42.816H172.093ZM195.549 48V25.6H198.973L213.021 42.848H211.325V25.6H215.453V48H212.029L197.981 30.752H199.677V48H195.549Z" fill="#01A538"/>
</svg>
