<svg width="301" height="224" viewBox="0 0 301 224" fill="none" xmlns="http://www.w3.org/2000/svg">
<path d="M213 75C211.562 75 210.113 75.0625 208.613 75.1875C198.3 45.475 170.337 25 138 25C96.6375 25 63 58.6375 63 100C63 100.525 63 101.05 63.0125 101.575C41.4625 107.138 25.5 126.738 25.5 150C25.5 177.575 47.925 200 75.5 200H138V142.675L121.837 158.837C119.4 161.275 116.2 162.5 113 162.5C109.8 162.5 106.6 161.275 104.163 158.837C99.275 153.95 99.275 146.05 104.163 141.163L141.65 103.675C142.812 102.512 144.188 101.6 145.725 100.962C148.775 99.7 152.225 99.7 155.275 100.962C156.812 101.6 158.188 102.512 159.35 103.675L196.837 141.163C201.725 146.05 201.725 153.95 196.837 158.837C194.4 161.275 191.2 162.5 188 162.5C184.8 162.5 181.6 161.275 179.163 158.837L163 142.675V200H213C247.462 200 275.5 171.962 275.5 137.5C275.5 103.037 247.462 75 213 75Z" fill="#0072B9"/>
</svg>
