<svg width="319" height="42" viewBox="0 0 319 42" fill="none" xmlns="http://www.w3.org/2000/svg">
<g clip-path="url(#clip0_10_51)">
<path d="M308.36 22.44L310.46 17.42L312.56 22.44H308.36ZM302.47 27.99H306.02L307.08 25.45H313.84L314.9 27.99H318.45L310.7 10.84H310.22L302.47 27.99ZM297.64 27.99H301.02V11.09H297.64V17.56H294.26V11.09H290.88V28H294.26V20.7H297.64V27.99ZM278.06 28.23H278.54L284.84 19.66V27.99H287.98V10.84H287.5L281.2 19.41V11.08H278.06V28.23ZM264.77 27.99H272.74V30.65H275.88V24.86H274.91V11.09H271.53V24.86H268.15V11.09H264.77V27.99ZM251.95 28.23H252.43L258.73 19.66V27.99H261.87V10.84H261.39L255.09 19.41V11.08H251.95V28.23ZM242.58 24.85C242.8 24.32 242.94 23.67 242.97 22.89L243.26 14.17H245.55V24.85H242.58ZM238.04 24.85V30.64H241.18V27.98H246.64V30.64H249.78V24.85H248.81V11.09H240.12L239.71 22.9C239.66 24.32 239.01 24.85 238.04 24.85ZM228.62 27.99H236.83V24.85H232V20.72H235.62V17.58H232V14.22H236.47V11.08H228.62V27.99ZM211.16 11.09V28H214.42V15.96L218.31 20.11H218.55L222.46 15.98V27.98H225.72V11.09C222.58 11.48 220.45 13.29 218.45 15.73C216.43 13.28 214.3 11.47 211.16 11.09Z" fill="white"/>
<path d="M198.01 14.18V18.86C195.96 18.86 194.87 18.09 194.87 16.52C194.87 14.95 195.96 14.18 198.01 14.18ZM198.01 21.95V27.99H201.27V11.09H198.85C193.78 11.09 191.61 12.9 191.61 16.52C191.61 18.48 192.36 20.24 194.29 21.2L191.2 27.99H194.85L197.36 21.93L198.01 21.95ZM180.26 22.44L182.36 17.42L184.46 22.44H180.26ZM174.37 27.99H177.92L178.98 25.45H185.74L186.8 27.99H190.35L182.6 10.84H182.12L174.37 27.99ZM170.48 27.99H174.01L170.87 19.15L173.65 11.08H170.29L168.21 17.58H167.1V11.08H163.84V27.99H167.1V20.72H168.12L170.48 27.99ZM159.4 28.23C160.08 28.23 160.63 28.18 161.19 27.96V24.65C160.63 24.79 160.15 24.84 159.43 24.84C156.29 24.84 154.12 22.79 154.12 19.53C154.12 16.27 156.29 14.22 159.43 14.22C160.15 14.22 160.64 14.27 161.19 14.41V11.05C160.63 10.88 160.1 10.83 159.4 10.83C154.33 10.83 150.61 14.21 150.61 19.52C150.61 24.61 154.33 28.23 159.4 28.23ZM142.59 17.75V14.01C144.23 14.01 145.13 14.54 145.13 15.87C145.13 17.07 144.21 17.75 142.59 17.75ZM142.59 25.04V20.6C144.88 20.6 145.85 21.3 145.85 22.82C145.85 24.34 144.86 25.04 142.59 25.04ZM139.45 27.99H142.59C146.86 27.99 149.04 26.2 149.04 23.06C149.04 21.08 148.32 19.63 146.43 18.93C147.71 18.28 148.31 17.09 148.31 15.62C148.31 12.72 146.21 11.08 142.1 11.08H139.44V27.99H139.45ZM128.46 24.85C125.44 24.85 123.39 22.6 123.39 19.54C123.39 16.47 125.44 14.23 128.46 14.23C131.48 14.23 133.53 16.48 133.53 19.54C133.53 22.61 131.48 24.85 128.46 24.85ZM128.44 28.23C133.39 28.23 137.04 24.49 137.04 19.54C137.04 14.35 133.39 10.85 128.44 10.85C123.49 10.85 119.89 14.35 119.89 19.54C119.89 24.49 123.49 28.23 128.44 28.23ZM115.76 27.99H119.29L116.15 19.15L118.93 11.08H115.57L113.49 17.58H112.38V11.08H109.12V27.99H112.38V20.72H113.39L115.76 27.99ZM104.67 28.23C105.35 28.23 105.9 28.18 106.46 27.96V24.65C105.9 24.79 105.42 24.84 104.7 24.84C101.56 24.84 99.39 22.79 99.39 19.53C99.39 16.27 101.56 14.22 104.7 14.22C105.42 14.22 105.91 14.27 106.46 14.41V11.05C105.9 10.88 105.37 10.83 104.67 10.83C99.6 10.83 95.88 14.21 95.88 19.52C95.88 24.61 99.6 28.23 104.67 28.23ZM85.38 24.85C82.36 24.85 80.31 22.6 80.31 19.54C80.31 16.47 82.36 14.23 85.38 14.23C88.4 14.23 90.45 16.48 90.45 19.54C90.45 22.61 88.4 24.85 85.38 24.85ZM85.35 28.23C90.3 28.23 93.95 24.49 93.95 19.54C93.95 14.35 90.3 10.85 85.35 10.85C80.4 10.85 76.8 14.35 76.8 19.54C76.81 24.49 80.4 28.23 85.35 28.23ZM59.83 11.09V28H63.09V15.96L66.98 20.11H67.22L71.13 15.98V27.98H74.39V11.09C71.25 11.48 69.12 13.29 67.12 15.73C65.09 13.28 62.97 11.47 59.83 11.09Z" fill="white"/>
<path d="M42.64 2.70995C41.79 2.09995 40.93 1.59995 40.06 1.19995C40.06 2.16995 40.06 3.30995 40.06 4.49995C40.35 4.67995 40.63 4.85995 40.92 5.05995C44.05 7.30995 47.27 13.22 43.3 20.28C42.04 22.52 41.03 23.85 39.9 25.15C38.38 26.9 37.01 28.35 34.1 31.01C31.08 33.77 26.61 36.5899 24.06 38.1199C21.51 36.5899 17.04 33.77 14.02 31.01C11.11 28.35 9.72999 26.9 8.21999 25.15C7.08999 23.85 6.07999 22.52 4.81999 20.28C0.819992 13.22 4.03999 7.30995 7.16999 5.05995C7.45999 4.85995 7.73999 4.66995 8.02999 4.49995C8.02999 3.30995 8.02999 2.16995 8.02999 1.19995C7.14999 1.59995 6.29999 2.09995 5.44999 2.70995C1.46999 5.56995 -2.67001 12.98 2.22999 21.69C3.40999 23.79 4.49999 25.34 5.97999 27.04C7.56999 28.87 8.99999 30.3799 12.02 33.1399C16.01 36.7899 22.15 40.4 24.05 41.49C25.95 40.41 32.09 36.7899 36.08 33.1399C39.1 30.3799 40.53 28.87 42.12 27.04C43.6 25.34 44.68 23.79 45.87 21.69C50.75 12.98 46.61 5.56995 42.64 2.70995Z" fill="white"/>
<path d="M42.38 10.28C41.83 8.93996 40.97 7.88996 40.06 7.07996C40.06 9.70996 40.06 12.11 40.06 12.91C40.06 13.09 40.05 13.26 40.04 13.43C40.05 14.2 39.92 15.02 39.65 15.89C39.37 16.87 38.96 17.75 38.49 18.56C38.49 18.56 38.49 18.56 38.49 18.57C38.36 18.81 38.18 19.09 37.97 19.39C37.91 19.48 37.85 19.57 37.78 19.65C37.75 19.69 37.73 19.72 37.7 19.76C37.6 19.9 37.49 20.04 37.39 20.17C37.39 20.18 37.38 20.18 37.38 20.19C37.29 20.3 37.21 20.41 37.12 20.52C36.24 21.62 35.1 22.91 33.87 24.19C33.28 24.82 32.66 25.43 32.04 26.01C31.81 26.22 31.59 26.44 31.36 26.64C28.66 29.11 25.84 31.05 24.05 32.19C22.26 31.05 19.44 29.12 16.74 26.64C16.52 26.43 16.29 26.22 16.06 26.01C15.43 25.42 14.82 24.82 14.23 24.19C13 22.92 11.86 21.63 10.98 20.52C10.89 20.41 10.81 20.3 10.72 20.19C10.72 20.18 10.71 20.18 10.71 20.17C10.6 20.03 10.5 19.9 10.4 19.76C10.37 19.72 10.35 19.69 10.32 19.65C10.26 19.56 10.19 19.48 10.13 19.39C9.91999 19.09 9.73999 18.81 9.60999 18.57C9.60999 18.57 9.60999 18.57 9.60999 18.56C9.12999 17.75 8.72999 16.88 8.44999 15.89C8.17999 15.02 8.04999 14.2 8.05999 13.43C8.04999 13.26 8.03999 13.09 8.03999 12.91C8.03999 12.11 8.03999 9.70996 8.03999 7.07996C7.12999 7.88996 6.27999 8.93996 5.71999 10.28C4.54999 13.08 4.99999 16.33 7.01999 19.96C8.30999 22.27 11.95 26.22 14.72 28.76C18.63 32.35 22.71 34.83 24.04 35.6C25.37 34.83 29.45 32.35 33.36 28.76C36.13 26.21 39.78 22.26 41.06 19.96C43.09 16.33 43.53 13.08 42.38 10.28Z" fill="white"/>
<path d="M37.71 0.369974C35.39 -0.190026 32.9 -0.100026 30.06 0.629974C27.53 1.27997 25.53 2.52997 24.04 3.78997C22.55 2.52997 20.55 1.27997 18.02 0.629974C15.18 -0.100026 12.69 -0.190026 10.37 0.369974C10.32 0.379974 10.21 0.409974 10.21 0.409974C10.21 0.409974 10.21 3.87997 10.21 12.9C10.21 15.85 11.57 17.87 13.11 19.68V2.91997C14.39 2.86997 15.76 3.03997 17.28 3.42997C20.69 4.29997 22.97 6.61997 24.03 7.92997L24.04 7.93997L24.05 7.92997C25.11 6.61997 27.38 4.30997 30.79 3.42997C32.31 3.03997 33.68 2.86997 34.96 2.91997V19.68C36.5 17.87 37.86 15.85 37.86 12.9C37.86 3.86997 37.86 0.409974 37.86 0.409974C37.86 0.409974 37.75 0.379974 37.71 0.369974Z" fill="white"/>
<path d="M30.51 5.83995C28.26 6.79995 25.45 9.78995 24.05 11.7299C22.64 9.78995 19.82 6.79995 17.58 5.83995C16.9 5.54995 16.12 5.36995 15.33 5.26995L15.34 22.1199C16.25 23.1299 17.22 24.0899 18.23 24.9999V9.77995C20.51 11.2699 22.35 14.0099 24 16.3099L24.05 16.3899L24.1 16.3099C25.75 14.0099 27.59 11.2699 29.87 9.77995V24.9899C30.88 24.0899 31.85 23.1199 32.76 22.1099L32.77 5.25995C31.97 5.36995 31.19 5.54995 30.51 5.83995Z" fill="white"/>
</g>
<defs>
<clipPath id="clip0_10_51">
<rect width="318.46" height="41.49" fill="white"/>
</clipPath>
</defs>
</svg>
